<svg width="402" height="152" viewBox="0 0 402 152" fill="none" xmlns="http://www.w3.org/2000/svg">
<rect width="402" height="152" fill="#F5F5F5"/>
<rect x="1" y="1" width="400" height="150" fill="white"/>
<path d="M103.44 101.92C103.504 103.2 103.664 104.448 103.92 105.664C104.24 106.88 104.624 107.776 105.072 108.352C104.496 108.928 103.6 109.6 102.384 110.368C101.232 111.136 99.888 111.744 98.352 112.192C96.88 112.704 95.312 112.928 93.648 112.864C91.152 112.736 89.136 111.68 87.6 109.696C86.128 107.712 85.36 105.248 85.296 102.304C85.296 101.728 85.296 100.672 85.296 99.136C85.296 97.536 85.296 95.84 85.296 94.048C85.296 92.256 85.296 90.784 85.296 89.632C85.296 88.544 85.008 87.488 84.432 86.464C83.92 85.44 83.312 84.832 82.608 84.64C81.648 84.32 80.848 84.896 80.208 86.368C80.08 86.688 79.664 87.488 78.96 88.768C78.256 89.984 77.456 91.424 76.56 93.088C75.728 94.752 74.928 96.416 74.16 98.08C73.456 99.744 72.976 101.184 72.72 102.4C72.464 103.552 72.624 104.256 73.2 104.512C72.944 105.152 72.464 106.08 71.76 107.296C71.12 108.512 70.032 109.568 68.496 110.464C67.024 111.296 64.912 111.616 62.16 111.424C60.688 111.296 58.8 110.4 56.496 108.736C54.192 107.072 51.984 104.032 49.872 99.616C47.888 95.392 46.256 92.544 44.976 91.072C43.76 89.536 42.864 88.832 42.288 88.96C41.776 89.024 41.36 89.376 41.04 90.016C40.784 90.656 40.528 91.552 40.272 92.704C40.144 93.28 40.08 94.24 40.08 95.584C40.08 96.928 40.144 98.432 40.272 100.096C40.4 101.76 40.624 103.328 40.944 104.8C41.328 106.272 41.808 107.392 42.384 108.16C41.872 108.48 40.944 109.024 39.6 109.792C38.32 110.56 36.848 111.264 35.184 111.904C33.584 112.48 32.016 112.768 30.48 112.768C28.176 112.704 26.256 112.096 24.72 110.944C23.184 109.728 22.256 107.36 21.936 103.84C21.872 103.264 21.84 101.632 21.84 98.944C21.84 96.256 21.84 92.864 21.84 88.768C21.84 84.672 21.84 80.288 21.84 75.616C21.84 70.88 21.84 66.208 21.84 61.6C21.84 56.992 21.84 52.768 21.84 48.928C21.904 45.088 21.936 42.016 21.936 39.712C21.936 37.408 21.936 36.256 21.936 36.256C22.64 36.128 23.824 36.096 25.488 36.16C27.152 36.224 28.976 36.48 30.96 36.928C32.944 37.376 34.768 38.112 36.432 39.136C38.096 40.096 39.248 41.472 39.888 43.264C39.888 43.264 40.176 43.872 40.752 45.088C41.392 46.24 42.224 47.776 43.248 49.696C44.272 51.552 45.36 53.568 46.512 55.744C47.728 57.92 48.88 60.064 49.968 62.176C51.12 64.288 52.112 66.144 52.944 67.744C53.84 69.344 54.448 70.464 54.768 71.104C55.856 72.96 56.88 74.24 57.84 74.944C58.864 75.648 59.952 76.032 61.104 76.096C63.472 76.096 65.744 74.272 67.92 70.624C68.24 70.048 68.88 68.832 69.84 66.976C70.8 65.056 71.92 62.784 73.2 60.16C74.48 57.536 75.792 54.848 77.136 52.096C78.544 49.344 79.824 46.784 80.976 44.416C82.128 41.984 83.056 40.032 83.76 38.56C84.528 37.024 84.912 36.256 84.912 36.256C85.36 36.192 86 36.16 86.832 36.16C87.728 36.096 88.688 36.128 89.712 36.256C91.504 36.384 93.392 36.736 95.376 37.312C97.424 37.888 99.184 38.784 100.656 40C102.192 41.216 103.056 42.848 103.248 44.896C103.376 45.984 103.472 47.776 103.536 50.272C103.6 52.704 103.632 55.616 103.632 59.008C103.632 62.336 103.632 65.888 103.632 69.664C103.632 73.44 103.6 77.152 103.536 80.8C103.536 84.448 103.504 87.808 103.44 90.88C103.44 93.952 103.44 96.48 103.44 98.464C103.44 100.384 103.44 101.536 103.44 101.92Z" fill="#0E0000"/>
<path d="M135.32 64.48C135.64 65.2533 136.093 66 136.68 66.72C137.267 67.4133 137.773 67.9333 138.2 68.28C137.56 69.6133 136.773 70.5867 135.84 71.2C135.067 71.7067 134.24 72 133.36 72.08C132.88 72.1333 132.333 72.0933 131.72 71.96C131.107 71.8267 130.467 71.4533 129.8 70.84C129.16 70.2 128.52 69.1867 127.88 67.8C127.693 67.3467 127.28 67.0267 126.64 66.84C126 66.6533 125.32 66.5467 124.6 66.52C123.88 66.4667 123.293 66.44 122.84 66.44C122.387 66.44 121.827 66.4533 121.16 66.48C120.52 66.5067 119.933 66.6133 119.4 66.8C118.867 66.9867 118.547 67.32 118.44 67.8C118.333 68.2267 118.32 68.6667 118.4 69.12C118.48 69.5733 118.653 69.8667 118.92 70C118.467 70.4267 118.013 70.8 117.56 71.12C117.133 71.44 116.693 71.6933 116.24 71.88C115.68 72.12 115.093 72.24 114.48 72.24C113.893 72.24 113.227 72.1067 112.48 71.84C112.133 71.7067 111.773 71.4667 111.4 71.12C111.027 70.7733 110.773 70.2933 110.64 69.68C110.507 69.0667 110.613 68.2933 110.96 67.36C110.987 67.28 111.12 66.8533 111.36 66.08C111.6 65.3067 111.907 64.2933 112.28 63.04C112.68 61.76 113.107 60.3467 113.56 58.8C114.04 57.2533 114.52 55.6667 115 54.04C115.507 52.3867 115.987 50.8 116.44 49.28C116.92 47.76 117.347 46.3867 117.72 45.16C118.093 43.9333 118.387 42.96 118.6 42.24C118.813 41.52 118.92 41.16 118.92 41.16C119.16 41.0267 119.6 40.8667 120.24 40.68C120.907 40.4667 121.613 40.3467 122.36 40.32C123.187 40.2667 123.987 40.3733 124.76 40.64C125.56 40.9067 126.173 41.44 126.6 42.24C126.787 42.56 127.067 43.1733 127.44 44.08C127.813 44.9867 128.253 46.08 128.76 47.36C129.267 48.64 129.8 50.0133 130.36 51.48C130.92 52.92 131.467 54.36 132 55.8C132.56 57.2133 133.067 58.5333 133.52 59.76C133.973 60.9867 134.36 62.0267 134.68 62.88C135 63.7067 135.213 64.24 135.32 64.48ZM122.72 59.32C123.413 59.2667 123.813 59.0667 123.92 58.72C124.053 58.3733 124.133 57.9733 124.16 57.52C124.16 57.2267 124.107 56.8667 124 56.44C123.92 56.0133 123.787 55.64 123.6 55.32C123.44 54.9733 123.227 54.8 122.96 54.8C122.587 54.8 122.173 55.0667 121.72 55.6C121.293 56.1067 121.053 56.6267 121 57.16C120.92 57.6667 120.96 58.16 121.12 58.64C121.307 59.12 121.84 59.3467 122.72 59.32ZM146.501 72.36C145.355 72.1467 144.541 71.3733 144.061 70.04C143.608 68.7067 143.381 67.0533 143.381 65.08C143.381 64.84 143.368 64.24 143.341 63.28C143.341 62.32 143.328 61.1333 143.301 59.72C143.301 58.28 143.288 56.7333 143.261 55.08C143.261 53.4267 143.248 51.7733 143.221 50.12C143.195 48.4667 143.168 46.9467 143.141 45.56C143.115 44.1467 143.088 42.9867 143.061 42.08C143.035 41.1733 143.008 40.6267 142.981 40.44C143.381 40.36 143.995 40.3467 144.821 40.4C145.675 40.4267 146.555 40.56 147.461 40.8C148.395 41.0133 149.208 41.3867 149.901 41.92C150.595 42.4267 150.995 43.1333 151.101 44.04C151.155 44.4667 151.195 45.2 151.221 46.24C151.248 47.2533 151.261 48.4667 151.261 49.88C151.288 51.2667 151.301 52.7467 151.301 54.32C151.301 55.8933 151.301 57.4533 151.301 59C151.301 60.52 151.301 61.9333 151.301 63.24C151.301 64.52 151.301 65.6 151.301 66.48C151.328 67.3333 151.355 67.8533 151.381 68.04C151.435 68.6 151.541 69.0133 151.701 69.28C151.861 69.52 152.035 69.8267 152.221 70.2C151.555 70.92 150.728 71.5067 149.741 71.96C148.755 72.4133 147.675 72.5467 146.501 72.36ZM183.323 44.04C183.376 44.4933 183.403 45.2667 183.403 46.36C183.43 47.4267 183.443 48.7067 183.443 50.2C183.443 51.6933 183.443 53.2667 183.443 54.92C183.443 56.5733 183.43 58.2133 183.403 59.84C183.403 61.4667 183.39 62.9467 183.363 64.28C183.363 65.6133 183.363 66.7067 183.363 67.56C183.363 68.3867 183.376 68.8533 183.403 68.96C183.456 69.1733 183.416 69.52 183.283 70C183.15 70.4533 182.936 70.8933 182.643 71.32C182.35 71.72 181.976 71.96 181.523 72.04C181.096 72.1467 180.496 72.1467 179.723 72.04C178.976 71.96 178.216 71.76 177.443 71.44C176.696 71.0933 176.096 70.6 175.643 69.96C175.376 69.5867 174.963 69.0533 174.403 68.36C173.87 67.64 173.27 66.8667 172.603 66.04C171.963 65.1867 171.323 64.3733 170.683 63.6C170.07 62.8 169.55 62.12 169.123 61.56C168.696 60.9733 168.43 60.6133 168.323 60.48C168.083 60.1067 167.683 59.7333 167.123 59.36C166.59 58.96 166.163 58.8133 165.843 58.92C165.523 59.0267 165.283 59.36 165.123 59.92C164.963 60.4533 164.856 61.0267 164.803 61.64C164.75 62.04 164.723 62.6533 164.723 63.48C164.723 64.28 164.723 65.1067 164.723 65.96C164.75 66.8133 164.75 67.5067 164.723 68.04C164.696 68.9733 164.99 69.8667 165.603 70.72C165.39 70.8533 164.963 71.0667 164.323 71.36C163.683 71.6267 163.003 71.8667 162.283 72.08C161.563 72.2933 160.95 72.3867 160.443 72.36C159.59 72.3067 158.83 71.8667 158.163 71.04C157.523 70.2133 157.19 69.1867 157.163 67.96C157.163 67.72 157.15 67.0533 157.123 65.96C157.123 64.84 157.11 63.4533 157.083 61.8C157.083 60.1467 157.083 58.36 157.083 56.44C157.083 54.52 157.07 52.6267 157.043 50.76C157.043 48.8667 157.03 47.1467 157.003 45.6C157.003 44.0267 157.003 42.7733 157.003 41.84C157.003 40.9067 157.003 40.44 157.003 40.44C158.63 40.3867 160.003 40.5067 161.123 40.8C162.243 41.0933 163.176 41.6267 163.923 42.4C164.243 42.6933 164.71 43.2133 165.323 43.96C165.936 44.7067 166.603 45.56 167.323 46.52C168.07 47.4533 168.79 48.3867 169.483 49.32C170.203 50.2533 170.83 51.08 171.363 51.8C171.896 52.4933 172.243 52.9467 172.403 53.16C172.83 53.6933 173.256 54.12 173.683 54.44C174.136 54.7333 174.51 54.8267 174.803 54.72C175.443 54.5067 175.763 53.6133 175.763 52.04L175.683 40.44C175.976 40.3867 176.483 40.3733 177.203 40.4C177.95 40.4267 178.736 40.5467 179.563 40.76C180.47 40.9733 181.296 41.3333 182.043 41.84C182.79 42.3467 183.216 43.08 183.323 44.04Z" fill="#EF1313"/>
<path d="M132.688 104.232C132.976 104.928 133.384 105.6 133.912 106.248C134.44 106.872 134.896 107.34 135.28 107.652C134.704 108.852 133.996 109.728 133.156 110.28C132.46 110.736 131.716 111 130.924 111.072C130.492 111.12 130 111.084 129.448 110.964C128.896 110.844 128.32 110.508 127.72 109.956C127.144 109.38 126.568 108.468 125.992 107.22C125.824 106.812 125.452 106.524 124.876 106.356C124.3 106.188 123.688 106.092 123.04 106.068C122.392 106.02 121.864 105.996 121.456 105.996C121.048 105.996 120.544 106.008 119.944 106.032C119.368 106.056 118.84 106.152 118.36 106.32C117.88 106.488 117.592 106.788 117.496 107.22C117.4 107.604 117.388 108 117.46 108.408C117.532 108.816 117.688 109.08 117.928 109.2C117.52 109.584 117.112 109.92 116.704 110.208C116.32 110.496 115.924 110.724 115.516 110.892C115.012 111.108 114.484 111.216 113.932 111.216C113.404 111.216 112.804 111.096 112.132 110.856C111.82 110.736 111.496 110.52 111.16 110.208C110.824 109.896 110.596 109.464 110.476 108.912C110.356 108.36 110.452 107.664 110.764 106.824C110.788 106.752 110.908 106.368 111.124 105.672C111.34 104.976 111.616 104.064 111.952 102.936C112.312 101.784 112.696 100.512 113.104 99.12C113.536 97.728 113.968 96.3 114.4 94.836C114.856 93.348 115.288 91.92 115.696 90.552C116.128 89.184 116.512 87.948 116.848 86.844C117.184 85.74 117.448 84.864 117.64 84.216C117.832 83.568 117.928 83.244 117.928 83.244C118.144 83.124 118.54 82.98 119.116 82.812C119.716 82.62 120.352 82.512 121.024 82.488C121.768 82.44 122.488 82.536 123.184 82.776C123.904 83.016 124.456 83.496 124.84 84.216C125.008 84.504 125.26 85.056 125.596 85.872C125.932 86.688 126.328 87.672 126.784 88.824C127.24 89.976 127.72 91.212 128.224 92.532C128.728 93.828 129.22 95.124 129.7 96.42C130.204 97.692 130.66 98.88 131.068 99.984C131.476 101.088 131.824 102.024 132.112 102.792C132.4 103.536 132.592 104.016 132.688 104.232ZM121.348 99.588C121.972 99.54 122.332 99.36 122.428 99.048C122.548 98.736 122.62 98.376 122.644 97.968C122.644 97.704 122.596 97.38 122.5 96.996C122.428 96.612 122.308 96.276 122.14 95.988C121.996 95.676 121.804 95.52 121.564 95.52C121.228 95.52 120.856 95.76 120.448 96.24C120.064 96.696 119.848 97.164 119.8 97.644C119.728 98.1 119.764 98.544 119.908 98.976C120.076 99.408 120.556 99.612 121.348 99.588ZM159.419 99.588C159.323 99.612 159.179 99.744 158.987 99.984C158.819 100.224 158.699 100.476 158.627 100.74C158.507 101.124 158.543 101.436 158.735 101.676C159.239 102.276 159.887 102.984 160.679 103.8C161.471 104.592 162.263 105.348 163.055 106.068C163.871 106.788 164.567 107.34 165.143 107.724C164.711 108.876 164.027 109.8 163.091 110.496C162.179 111.168 161.159 111.492 160.031 111.468C158.903 111.444 157.799 110.94 156.719 109.956C156.575 109.812 156.299 109.5 155.891 109.02C155.483 108.516 155.015 107.928 154.487 107.256C153.959 106.584 153.431 105.912 152.903 105.24C152.375 104.568 151.919 103.98 151.535 103.476C151.151 102.972 150.911 102.66 150.815 102.54C150.359 101.94 149.927 101.808 149.519 102.144C149.111 102.48 148.859 103.176 148.763 104.232C148.715 104.856 148.715 105.576 148.763 106.392C148.835 107.184 148.931 107.892 149.051 108.516C149.195 109.14 149.339 109.512 149.483 109.632C148.979 110.016 148.355 110.376 147.611 110.712C146.867 111.048 146.015 111.252 145.055 111.324C144.695 111.348 144.275 111.252 143.795 111.036C143.315 110.82 142.895 110.472 142.535 109.992C142.199 109.488 142.019 108.864 141.995 108.12C141.995 107.928 141.983 107.424 141.959 106.608C141.959 105.792 141.947 104.796 141.923 103.62C141.923 102.42 141.923 101.184 141.923 99.912C141.923 98.64 141.911 97.44 141.887 96.312C141.887 95.184 141.887 94.272 141.887 93.576C141.887 92.88 141.887 92.532 141.887 92.532C141.887 91.116 141.851 89.94 141.779 89.004C141.707 88.044 141.419 87.312 140.915 86.808C140.459 86.352 140.111 85.692 139.871 84.828C139.655 83.964 139.559 83.148 139.583 82.38C139.679 82.404 139.967 82.44 140.447 82.488C140.927 82.512 141.395 82.548 141.851 82.596C142.163 82.596 142.607 82.596 143.183 82.596C143.783 82.572 144.419 82.548 145.091 82.524C145.763 82.5 146.387 82.488 146.963 82.488C147.539 82.464 147.971 82.44 148.259 82.416C148.475 82.416 148.871 82.416 149.447 82.416C150.047 82.392 150.743 82.38 151.535 82.38C152.327 82.38 153.131 82.392 153.947 82.416C154.763 82.416 155.519 82.44 156.215 82.488C156.911 82.536 157.451 82.596 157.835 82.668C159.419 82.956 160.643 83.484 161.507 84.252C162.371 85.02 162.983 85.944 163.343 87.024C163.727 88.104 163.955 89.28 164.027 90.552C164.075 91.632 163.955 92.76 163.667 93.936C163.379 95.112 162.887 96.204 162.191 97.212C161.495 98.22 160.571 99.012 159.419 99.588ZM148.835 91.848C148.835 92.616 149.015 93.192 149.375 93.576C149.735 93.936 150.071 94.152 150.383 94.224C150.815 94.32 151.367 94.332 152.039 94.26C152.711 94.164 153.383 93.996 154.055 93.756C154.727 93.492 155.291 93.156 155.747 92.748C156.227 92.34 156.467 91.872 156.467 91.344C156.467 90.648 156.179 90.12 155.603 89.76C155.027 89.376 154.295 89.136 153.407 89.04C152.543 88.944 151.679 88.968 150.815 89.112C150.143 89.208 149.639 89.508 149.303 90.012C148.967 90.516 148.811 91.128 148.835 91.848ZM190.129 104.916C191.185 105.9 192.097 106.536 192.865 106.824C192.793 107.112 192.637 107.496 192.397 107.976C192.181 108.456 191.893 108.936 191.533 109.416C191.197 109.896 190.801 110.304 190.345 110.64C189.889 110.976 189.385 111.156 188.833 111.18C188.161 111.204 187.549 111.132 186.997 110.964C186.469 110.772 185.905 110.46 185.305 110.028C184.849 109.668 184.309 109.212 183.685 108.66C183.085 108.084 182.497 107.496 181.921 106.896C181.345 106.296 180.889 105.792 180.553 105.384C180.073 104.76 179.557 104.232 179.005 103.8C178.453 103.368 177.841 103.2 177.169 103.296C176.785 103.32 176.545 103.428 176.449 103.62C176.377 103.788 176.305 104.136 176.233 104.664C176.185 105.024 176.173 105.456 176.197 105.96C176.221 106.44 176.257 106.896 176.305 107.328C176.377 107.76 176.413 108.072 176.413 108.264C176.413 108.696 176.497 109.032 176.665 109.272C176.833 109.488 177.001 109.692 177.169 109.884C176.761 110.196 176.125 110.532 175.261 110.892C174.397 111.252 173.437 111.432 172.381 111.432C171.685 111.432 171.133 111.156 170.725 110.604C170.341 110.052 170.065 109.38 169.897 108.588C169.729 107.796 169.633 107.028 169.609 106.284C169.609 106.068 169.597 105.48 169.573 104.52C169.573 103.56 169.561 102.372 169.537 100.956C169.537 99.516 169.537 97.98 169.537 96.348C169.537 94.692 169.525 93.06 169.501 91.452C169.501 89.82 169.489 88.344 169.465 87.024C169.465 85.68 169.465 84.612 169.465 83.82C169.465 83.004 169.465 82.596 169.465 82.596C169.729 82.548 170.185 82.536 170.833 82.56C171.505 82.584 172.201 82.692 172.921 82.884C173.737 83.076 174.481 83.4 175.153 83.856C175.849 84.312 176.245 84.972 176.341 85.836C176.389 86.388 176.413 86.844 176.413 87.204C176.437 87.564 176.449 87.936 176.449 88.32C176.449 89.592 176.761 90.396 177.385 90.732C178.081 91.092 179.029 90.852 180.229 90.012C180.421 89.868 180.757 89.592 181.237 89.184C181.717 88.752 182.269 88.248 182.893 87.672C183.517 87.096 184.165 86.496 184.837 85.872C185.509 85.248 186.121 84.672 186.673 84.144C187.249 83.592 187.717 83.148 188.077 82.812C188.437 82.476 188.617 82.308 188.617 82.308C188.833 82.476 189.133 82.872 189.517 83.496C189.925 84.12 190.285 84.816 190.597 85.584C190.909 86.352 191.101 87.144 191.173 87.96C191.269 88.752 191.113 89.412 190.705 89.94C190.537 90.156 190.261 90.444 189.877 90.804C189.517 91.164 189.109 91.548 188.653 91.956C188.221 92.34 187.801 92.712 187.393 93.072C186.985 93.408 186.673 93.672 186.457 93.864C186.001 94.248 185.617 94.728 185.305 95.304C185.017 95.856 184.837 96.432 184.765 97.032C184.693 97.632 184.717 98.232 184.837 98.832C184.957 99.432 185.221 99.984 185.629 100.488C185.917 100.824 186.349 101.28 186.925 101.856C187.501 102.408 188.089 102.972 188.689 103.548C189.289 104.1 189.769 104.556 190.129 104.916ZM212.177 104.448C212.513 104.4 212.933 104.34 213.437 104.268C213.965 104.196 214.457 104.112 214.913 104.016C215.393 103.896 215.717 103.764 215.885 103.62C216.197 103.884 216.401 104.424 216.497 105.24C216.617 106.032 216.581 106.86 216.389 107.724C216.245 108.468 215.993 109.164 215.633 109.812C215.273 110.46 214.757 110.856 214.085 111C213.509 111.12 212.849 111.192 212.105 111.216C211.361 111.24 210.605 111.24 209.837 111.216C209.069 111.192 208.361 111.168 207.713 111.144C207.089 111.12 206.609 111.108 206.273 111.108C205.937 111.108 205.409 111.108 204.689 111.108C203.993 111.132 203.381 111.156 202.853 111.18C202.229 111.252 201.545 111.3 200.801 111.324C200.057 111.348 199.373 111.324 198.749 111.252C198.125 111.18 197.669 111.06 197.381 110.892C197.549 110.556 197.693 110.052 197.813 109.38C197.933 108.684 198.029 107.928 198.101 107.112C198.173 106.296 198.197 105.516 198.173 104.772L198.101 98.184V95.124C198.101 94.26 198.089 93.54 198.065 92.964C198.065 92.388 198.065 92.076 198.065 92.028C198.065 91.236 198.029 90.384 197.957 89.472C197.885 88.56 197.801 87.696 197.705 86.88C197.609 86.04 197.525 85.356 197.453 84.828C197.357 84.42 197.285 84.024 197.237 83.64C197.189 83.232 197.177 82.872 197.201 82.56C197.369 82.632 197.825 82.704 198.569 82.776C199.337 82.824 200.225 82.872 201.233 82.92C201.305 82.92 201.653 82.932 202.277 82.956C202.901 82.956 203.669 82.968 204.581 82.992C205.517 83.016 206.477 83.04 207.461 83.064C208.469 83.064 209.381 83.064 210.197 83.064C211.013 83.064 211.613 83.052 211.997 83.028C212.981 82.98 213.809 82.908 214.481 82.812C215.177 82.692 215.645 82.536 215.885 82.344C216.173 82.584 216.437 83.04 216.677 83.712C216.941 84.36 217.085 85.044 217.109 85.764C217.109 86.46 216.941 87.12 216.605 87.744C216.293 88.344 215.717 88.752 214.877 88.968C214.565 89.04 214.073 89.1 213.401 89.148C212.753 89.196 212.117 89.232 211.493 89.256C210.893 89.256 210.461 89.244 210.197 89.22C209.453 89.148 208.685 89.232 207.893 89.472C207.101 89.688 206.429 89.988 205.877 90.372C205.325 90.732 205.037 91.128 205.013 91.56C204.989 91.968 205.157 92.304 205.517 92.568C205.877 92.832 206.345 93.048 206.921 93.216C207.521 93.36 208.157 93.456 208.829 93.504C209.501 93.552 210.137 93.564 210.737 93.54C211.217 93.492 211.769 93.408 212.393 93.288C213.017 93.168 213.401 93.048 213.545 92.928C213.857 93.192 214.073 93.684 214.193 94.404C214.337 95.124 214.337 95.868 214.193 96.636C214.073 97.26 213.833 97.836 213.473 98.364C213.113 98.892 212.609 99.252 211.961 99.444C211.457 99.588 211.025 99.684 210.665 99.732C210.305 99.756 210.125 99.768 210.125 99.768C208.709 99.768 207.509 100.02 206.525 100.524C205.565 101.004 205.037 101.58 204.941 102.252C204.845 102.828 204.965 103.356 205.301 103.836C205.661 104.316 206.177 104.58 206.849 104.628C207.305 104.652 207.881 104.664 208.577 104.664C209.297 104.64 209.993 104.616 210.665 104.592C211.361 104.544 211.865 104.496 212.177 104.448ZM244.499 82.02C244.787 82.26 244.991 82.728 245.111 83.424C245.255 84.12 245.315 84.876 245.291 85.692C245.267 86.484 245.147 87.204 244.931 87.852C244.715 88.476 244.403 88.848 243.995 88.968C243.827 89.016 243.479 89.088 242.951 89.184C242.447 89.256 241.979 89.352 241.547 89.472C241.139 89.592 240.599 89.796 239.927 90.084C239.255 90.372 238.679 90.792 238.199 91.344C237.815 91.8 237.503 92.28 237.263 92.784C237.023 93.264 236.891 93.888 236.867 94.656C236.843 94.968 236.831 95.556 236.831 96.42C236.831 97.26 236.831 98.244 236.831 99.372C236.831 100.476 236.831 101.568 236.831 102.648C236.855 103.728 236.867 104.652 236.867 105.42C236.867 106.188 236.867 106.644 236.867 106.788C236.843 107.508 236.915 108.12 237.083 108.624C237.251 109.128 237.431 109.428 237.623 109.524C237.023 109.98 236.423 110.364 235.823 110.676C235.247 110.988 234.419 111.216 233.339 111.36C232.931 111.408 232.475 111.288 231.971 111C231.467 110.736 231.023 110.316 230.639 109.74C230.279 109.14 230.087 108.408 230.063 107.544C230.063 106.68 230.051 105.576 230.027 104.232C230.027 102.864 230.027 101.388 230.027 99.804C230.051 98.196 230.051 96.588 230.027 94.98C230.003 94.284 229.895 93.624 229.703 93C229.535 92.376 229.247 91.836 228.839 91.38C228.431 90.9 227.891 90.504 227.219 90.192C226.547 89.88 225.707 89.676 224.699 89.58C224.435 89.556 224.075 89.484 223.619 89.364C223.163 89.244 222.851 89.124 222.683 89.004C222.419 88.812 222.203 88.452 222.035 87.924C221.867 87.372 221.735 86.772 221.639 86.124C221.543 85.452 221.471 84.792 221.423 84.144C221.399 83.496 221.399 82.968 221.423 82.56C221.519 82.584 221.783 82.62 222.215 82.668C222.671 82.716 223.211 82.764 223.835 82.812C224.459 82.836 225.071 82.86 225.671 82.884C226.103 82.908 226.679 82.932 227.399 82.956C228.143 82.98 228.935 83.004 229.775 83.028C230.615 83.052 231.407 83.076 232.151 83.1C232.895 83.1 233.507 83.1 233.987 83.1C234.635 83.076 235.391 83.052 236.255 83.028C237.119 83.004 237.947 82.98 238.739 82.956C239.555 82.908 240.203 82.86 240.683 82.812C241.163 82.764 241.667 82.704 242.195 82.632C242.747 82.536 243.227 82.44 243.635 82.344C244.067 82.224 244.355 82.116 244.499 82.02ZM266.645 82.38C268.421 82.644 269.825 83.124 270.857 83.82C271.913 84.492 272.693 85.272 273.197 86.16C273.701 87.048 274.025 87.924 274.169 88.788C274.313 89.628 274.385 90.348 274.385 90.948C274.385 91.716 274.253 92.604 273.989 93.612C273.725 94.596 273.281 95.568 272.657 96.528C272.057 97.464 271.253 98.28 270.245 98.976C269.237 99.648 267.977 100.056 266.465 100.2C266.201 100.224 265.865 100.248 265.457 100.272C265.049 100.296 264.677 100.32 264.341 100.344C264.029 100.344 263.837 100.344 263.765 100.344C262.853 100.392 262.013 100.656 261.245 101.136C260.501 101.616 259.901 102.24 259.445 103.008C259.013 103.752 258.785 104.592 258.761 105.528V106.86C258.761 107.484 258.845 108.06 259.013 108.588C259.181 109.092 259.313 109.44 259.409 109.632C258.833 110.16 258.329 110.532 257.897 110.748C257.465 110.964 256.925 111.12 256.277 111.216C255.749 111.288 255.161 111.24 254.513 111.072C253.889 110.904 253.325 110.592 252.821 110.136C252.317 109.656 251.993 108.996 251.849 108.156C251.825 108.012 251.813 107.556 251.813 106.788C251.813 105.996 251.813 105.024 251.813 103.872C251.837 102.696 251.849 101.412 251.849 100.02C251.873 98.628 251.885 97.236 251.885 95.844C251.885 94.452 251.885 93.156 251.885 91.956C251.861 90.66 251.801 89.568 251.705 88.68C251.633 87.792 251.453 87.228 251.165 86.988C250.661 86.556 250.265 85.884 249.977 84.972C249.713 84.06 249.593 83.196 249.617 82.38C249.713 82.404 249.977 82.44 250.409 82.488C250.841 82.512 251.297 82.548 251.777 82.596C252.017 82.596 252.413 82.596 252.965 82.596C253.517 82.572 254.117 82.536 254.765 82.488C255.437 82.44 256.085 82.404 256.709 82.38C257.333 82.332 257.837 82.296 258.221 82.272C258.749 82.224 259.445 82.176 260.309 82.128C261.197 82.08 262.193 82.068 263.297 82.092C264.401 82.116 265.517 82.212 266.645 82.38ZM262.361 93.612C262.697 93.636 263.117 93.612 263.621 93.54C264.149 93.444 264.677 93.3 265.205 93.108C265.757 92.916 266.213 92.652 266.573 92.316C266.933 91.956 267.113 91.524 267.113 91.02C267.113 90.324 266.849 89.784 266.321 89.4C265.817 89.016 265.193 88.752 264.449 88.608C263.729 88.464 263.033 88.404 262.361 88.428C261.377 88.452 260.537 88.728 259.841 89.256C259.145 89.76 258.797 90.36 258.797 91.056C258.821 91.512 259.001 91.932 259.337 92.316C259.697 92.676 260.141 92.976 260.669 93.216C261.221 93.456 261.785 93.588 262.361 93.612ZM298.993 103.872C299.305 104.136 299.509 104.664 299.605 105.456C299.725 106.224 299.689 107.028 299.497 107.868C299.353 108.564 299.089 109.236 298.705 109.884C298.321 110.508 297.817 110.88 297.193 111C296.953 111.048 296.401 111.072 295.537 111.072C294.673 111.096 293.653 111.096 292.477 111.072C291.325 111.072 290.149 111.06 288.949 111.036C287.773 111.036 286.717 111.036 285.781 111.036C284.869 111.06 284.221 111.096 283.837 111.144C282.853 111.312 281.845 111.372 280.813 111.324C279.805 111.276 279.097 111.132 278.689 110.892C278.857 110.556 279.001 110.052 279.121 109.38C279.241 108.684 279.337 107.928 279.409 107.112C279.481 106.296 279.505 105.516 279.481 104.772L279.337 82.596C279.601 82.548 280.057 82.536 280.705 82.56C281.377 82.584 282.085 82.692 282.829 82.884C283.645 83.076 284.377 83.436 285.025 83.964C285.673 84.492 286.069 85.164 286.213 85.98C286.261 86.244 286.297 86.772 286.321 87.564C286.345 88.332 286.357 89.244 286.357 90.3C286.381 91.356 286.381 92.436 286.357 93.54C286.357 94.644 286.357 95.676 286.357 96.636C286.357 97.596 286.345 98.376 286.321 98.976C286.321 99.576 286.321 99.876 286.321 99.876C286.297 100.788 286.393 101.616 286.609 102.36C286.825 103.08 287.137 103.644 287.545 104.052C287.857 104.364 288.241 104.58 288.697 104.7C289.153 104.82 289.717 104.904 290.389 104.952C290.677 104.976 291.121 104.976 291.721 104.952C292.345 104.928 293.029 104.892 293.773 104.844C294.517 104.772 295.249 104.688 295.969 104.592C296.713 104.496 297.361 104.388 297.913 104.268C298.465 104.148 298.825 104.016 298.993 103.872ZM326.248 104.232C326.536 104.928 326.944 105.6 327.472 106.248C328 106.872 328.456 107.34 328.84 107.652C328.264 108.852 327.556 109.728 326.716 110.28C326.02 110.736 325.276 111 324.484 111.072C324.052 111.12 323.56 111.084 323.008 110.964C322.456 110.844 321.88 110.508 321.28 109.956C320.704 109.38 320.128 108.468 319.552 107.22C319.384 106.812 319.012 106.524 318.436 106.356C317.86 106.188 317.248 106.092 316.6 106.068C315.952 106.02 315.424 105.996 315.016 105.996C314.608 105.996 314.104 106.008 313.504 106.032C312.928 106.056 312.4 106.152 311.92 106.32C311.44 106.488 311.152 106.788 311.056 107.22C310.96 107.604 310.948 108 311.02 108.408C311.092 108.816 311.248 109.08 311.488 109.2C311.08 109.584 310.672 109.92 310.264 110.208C309.88 110.496 309.484 110.724 309.076 110.892C308.572 111.108 308.044 111.216 307.492 111.216C306.964 111.216 306.364 111.096 305.692 110.856C305.38 110.736 305.056 110.52 304.72 110.208C304.384 109.896 304.156 109.464 304.036 108.912C303.916 108.36 304.012 107.664 304.324 106.824C304.348 106.752 304.468 106.368 304.684 105.672C304.9 104.976 305.176 104.064 305.512 102.936C305.872 101.784 306.256 100.512 306.664 99.12C307.096 97.728 307.528 96.3 307.96 94.836C308.416 93.348 308.848 91.92 309.256 90.552C309.688 89.184 310.072 87.948 310.408 86.844C310.744 85.74 311.008 84.864 311.2 84.216C311.392 83.568 311.488 83.244 311.488 83.244C311.704 83.124 312.1 82.98 312.676 82.812C313.276 82.62 313.912 82.512 314.584 82.488C315.328 82.44 316.048 82.536 316.744 82.776C317.464 83.016 318.016 83.496 318.4 84.216C318.568 84.504 318.82 85.056 319.156 85.872C319.492 86.688 319.888 87.672 320.344 88.824C320.8 89.976 321.28 91.212 321.784 92.532C322.288 93.828 322.78 95.124 323.26 96.42C323.764 97.692 324.22 98.88 324.628 99.984C325.036 101.088 325.384 102.024 325.672 102.792C325.96 103.536 326.152 104.016 326.248 104.232ZM314.908 99.588C315.532 99.54 315.892 99.36 315.988 99.048C316.108 98.736 316.18 98.376 316.204 97.968C316.204 97.704 316.156 97.38 316.06 96.996C315.988 96.612 315.868 96.276 315.7 95.988C315.556 95.676 315.364 95.52 315.124 95.52C314.788 95.52 314.416 95.76 314.008 96.24C313.624 96.696 313.408 97.164 313.36 97.644C313.288 98.1 313.324 98.544 313.468 98.976C313.636 99.408 314.116 99.612 314.908 99.588ZM354.852 89.4C354.564 90.288 354.12 90.936 353.52 91.344C352.92 91.752 352.296 91.92 351.648 91.848C351 91.752 350.448 91.428 349.992 90.876C350.4 90.564 350.52 90.228 350.352 89.868C350.208 89.484 349.836 89.172 349.236 88.932C348.636 88.668 347.868 88.572 346.932 88.644C345.972 88.692 345 89.004 344.016 89.58C343.056 90.156 342.252 90.984 341.604 92.064C340.956 93.144 340.596 94.488 340.524 96.096C340.452 97.752 340.62 99.096 341.028 100.128C341.436 101.16 341.94 101.952 342.54 102.504C343.164 103.032 343.788 103.416 344.412 103.656C345.036 103.872 345.54 104.016 345.924 104.088C346.428 104.184 347.004 104.256 347.652 104.304C348.324 104.328 348.996 104.28 349.668 104.16C350.34 104.04 350.916 103.836 351.396 103.548C351.828 103.284 352.368 102.936 353.016 102.504C353.664 102.048 354.288 101.544 354.888 100.992C355.488 100.44 355.932 99.876 356.22 99.3C357.036 99.852 357.54 100.632 357.732 101.64C357.948 102.648 357.864 103.728 357.48 104.88C357.096 106.032 356.424 107.124 355.464 108.156C354.528 109.164 353.304 109.992 351.792 110.64C350.28 111.264 348.492 111.552 346.428 111.504C345.468 111.48 344.364 111.3 343.116 110.964C341.892 110.628 340.656 110.1 339.408 109.38C338.16 108.636 337.02 107.664 335.988 106.464C334.98 105.24 334.212 103.728 333.684 101.928C333.156 100.128 333.012 98.004 333.252 95.556C333.468 93.228 334.044 91.224 334.98 89.544C335.94 87.864 337.104 86.496 338.472 85.44C339.864 84.36 341.328 83.556 342.864 83.028C344.424 82.476 345.912 82.188 347.328 82.164C348.744 82.116 349.968 82.332 351 82.812C352.056 83.292 352.908 83.916 353.556 84.684C354.204 85.428 354.636 86.232 354.852 87.096C355.092 87.936 355.092 88.704 354.852 89.4ZM377.122 104.448C377.458 104.4 377.878 104.34 378.382 104.268C378.91 104.196 379.402 104.112 379.858 104.016C380.338 103.896 380.662 103.764 380.83 103.62C381.142 103.884 381.346 104.424 381.442 105.24C381.562 106.032 381.526 106.86 381.334 107.724C381.19 108.468 380.938 109.164 380.578 109.812C380.218 110.46 379.702 110.856 379.03 111C378.454 111.12 377.794 111.192 377.05 111.216C376.306 111.24 375.55 111.24 374.782 111.216C374.014 111.192 373.306 111.168 372.658 111.144C372.034 111.12 371.554 111.108 371.218 111.108C370.882 111.108 370.354 111.108 369.634 111.108C368.938 111.132 368.326 111.156 367.798 111.18C367.174 111.252 366.49 111.3 365.746 111.324C365.002 111.348 364.318 111.324 363.694 111.252C363.07 111.18 362.614 111.06 362.326 110.892C362.494 110.556 362.638 110.052 362.758 109.38C362.878 108.684 362.974 107.928 363.046 107.112C363.118 106.296 363.142 105.516 363.118 104.772L363.046 98.184V95.124C363.046 94.26 363.034 93.54 363.01 92.964C363.01 92.388 363.01 92.076 363.01 92.028C363.01 91.236 362.974 90.384 362.902 89.472C362.83 88.56 362.746 87.696 362.65 86.88C362.554 86.04 362.47 85.356 362.398 84.828C362.302 84.42 362.23 84.024 362.182 83.64C362.134 83.232 362.122 82.872 362.146 82.56C362.314 82.632 362.77 82.704 363.514 82.776C364.282 82.824 365.17 82.872 366.178 82.92C366.25 82.92 366.598 82.932 367.222 82.956C367.846 82.956 368.614 82.968 369.526 82.992C370.462 83.016 371.422 83.04 372.406 83.064C373.414 83.064 374.326 83.064 375.142 83.064C375.958 83.064 376.558 83.052 376.942 83.028C377.926 82.98 378.754 82.908 379.426 82.812C380.122 82.692 380.59 82.536 380.83 82.344C381.118 82.584 381.382 83.04 381.622 83.712C381.886 84.36 382.03 85.044 382.054 85.764C382.054 86.46 381.886 87.12 381.55 87.744C381.238 88.344 380.662 88.752 379.822 88.968C379.51 89.04 379.018 89.1 378.346 89.148C377.698 89.196 377.062 89.232 376.438 89.256C375.838 89.256 375.406 89.244 375.142 89.22C374.398 89.148 373.63 89.232 372.838 89.472C372.046 89.688 371.374 89.988 370.822 90.372C370.27 90.732 369.982 91.128 369.958 91.56C369.934 91.968 370.102 92.304 370.462 92.568C370.822 92.832 371.29 93.048 371.866 93.216C372.466 93.36 373.102 93.456 373.774 93.504C374.446 93.552 375.082 93.564 375.682 93.54C376.162 93.492 376.714 93.408 377.338 93.288C377.962 93.168 378.346 93.048 378.49 92.928C378.802 93.192 379.018 93.684 379.138 94.404C379.282 95.124 379.282 95.868 379.138 96.636C379.018 97.26 378.778 97.836 378.418 98.364C378.058 98.892 377.554 99.252 376.906 99.444C376.402 99.588 375.97 99.684 375.61 99.732C375.25 99.756 375.07 99.768 375.07 99.768C373.654 99.768 372.454 100.02 371.47 100.524C370.51 101.004 369.982 101.58 369.886 102.252C369.79 102.828 369.91 103.356 370.246 103.836C370.606 104.316 371.122 104.58 371.794 104.628C372.25 104.652 372.826 104.664 373.522 104.664C374.242 104.64 374.938 104.616 375.61 104.592C376.306 104.544 376.81 104.496 377.122 104.448Z" fill="#0E0000"/>
<rect x="1" y="1" width="400" height="150" stroke="black" stroke-width="2"/>
</svg>
