<svg width="400" height="150" viewBox="0 0 400 150" fill="none" xmlns="http://www.w3.org/2000/svg">
<rect width="400" height="150" fill="#F5F5F5"/>
<rect width="400" height="150" fill="white"/>
<path d="M102.44 100.92C102.504 102.2 102.664 103.448 102.92 104.664C103.24 105.88 103.624 106.776 104.072 107.352C103.496 107.928 102.6 108.6 101.384 109.368C100.232 110.136 98.888 110.744 97.352 111.192C95.88 111.704 94.312 111.928 92.648 111.864C90.152 111.736 88.136 110.68 86.6 108.696C85.128 106.712 84.36 104.248 84.296 101.304C84.296 100.728 84.296 99.672 84.296 98.136C84.296 96.536 84.296 94.84 84.296 93.048C84.296 91.256 84.296 89.784 84.296 88.632C84.296 87.544 84.008 86.488 83.432 85.464C82.92 84.44 82.312 83.832 81.608 83.64C80.648 83.32 79.848 83.896 79.208 85.368C79.08 85.688 78.664 86.488 77.96 87.768C77.256 88.984 76.456 90.424 75.56 92.088C74.728 93.752 73.928 95.416 73.16 97.08C72.456 98.744 71.976 100.184 71.72 101.4C71.464 102.552 71.624 103.256 72.2 103.512C71.944 104.152 71.464 105.08 70.76 106.296C70.12 107.512 69.032 108.568 67.496 109.464C66.024 110.296 63.912 110.616 61.16 110.424C59.688 110.296 57.8 109.4 55.496 107.736C53.192 106.072 50.984 103.032 48.872 98.616C46.888 94.392 45.256 91.544 43.976 90.072C42.76 88.536 41.864 87.832 41.288 87.96C40.776 88.024 40.36 88.376 40.04 89.016C39.784 89.656 39.528 90.552 39.272 91.704C39.144 92.28 39.08 93.24 39.08 94.584C39.08 95.928 39.144 97.432 39.272 99.096C39.4 100.76 39.624 102.328 39.944 103.8C40.328 105.272 40.808 106.392 41.384 107.16C40.872 107.48 39.944 108.024 38.6 108.792C37.32 109.56 35.848 110.264 34.184 110.904C32.584 111.48 31.016 111.768 29.48 111.768C27.176 111.704 25.256 111.096 23.72 109.944C22.184 108.728 21.256 106.36 20.936 102.84C20.872 102.264 20.84 100.632 20.84 97.944C20.84 95.256 20.84 91.864 20.84 87.768C20.84 83.672 20.84 79.288 20.84 74.616C20.84 69.88 20.84 65.208 20.84 60.6C20.84 55.992 20.84 51.768 20.84 47.928C20.904 44.088 20.936 41.016 20.936 38.712C20.936 36.408 20.936 35.256 20.936 35.256C21.64 35.128 22.824 35.096 24.488 35.16C26.152 35.224 27.976 35.48 29.96 35.928C31.944 36.376 33.768 37.112 35.432 38.136C37.096 39.096 38.248 40.472 38.888 42.264C38.888 42.264 39.176 42.872 39.752 44.088C40.392 45.24 41.224 46.776 42.248 48.696C43.272 50.552 44.36 52.568 45.512 54.744C46.728 56.92 47.88 59.064 48.968 61.176C50.12 63.288 51.112 65.144 51.944 66.744C52.84 68.344 53.448 69.464 53.768 70.104C54.856 71.96 55.88 73.24 56.84 73.944C57.864 74.648 58.952 75.032 60.104 75.096C62.472 75.096 64.744 73.272 66.92 69.624C67.24 69.048 67.88 67.832 68.84 65.976C69.8 64.056 70.92 61.784 72.2 59.16C73.48 56.536 74.792 53.848 76.136 51.096C77.544 48.344 78.824 45.784 79.976 43.416C81.128 40.984 82.056 39.032 82.76 37.56C83.528 36.024 83.912 35.256 83.912 35.256C84.36 35.192 85 35.16 85.832 35.16C86.728 35.096 87.688 35.128 88.712 35.256C90.504 35.384 92.392 35.736 94.376 36.312C96.424 36.888 98.184 37.784 99.656 39C101.192 40.216 102.056 41.848 102.248 43.896C102.376 44.984 102.472 46.776 102.536 49.272C102.6 51.704 102.632 54.616 102.632 58.008C102.632 61.336 102.632 64.888 102.632 68.664C102.632 72.44 102.6 76.152 102.536 79.8C102.536 83.448 102.504 86.808 102.44 89.88C102.44 92.952 102.44 95.48 102.44 97.464C102.44 99.384 102.44 100.536 102.44 100.92Z" fill="#EF1313"/>
<path d="M134.32 63.48C134.64 64.2533 135.093 65 135.68 65.72C136.267 66.4133 136.773 66.9333 137.2 67.28C136.56 68.6133 135.773 69.5867 134.84 70.2C134.067 70.7067 133.24 71 132.36 71.08C131.88 71.1333 131.333 71.0933 130.72 70.96C130.107 70.8267 129.467 70.4533 128.8 69.84C128.16 69.2 127.52 68.1867 126.88 66.8C126.693 66.3467 126.28 66.0267 125.64 65.84C125 65.6533 124.32 65.5467 123.6 65.52C122.88 65.4667 122.293 65.44 121.84 65.44C121.387 65.44 120.827 65.4533 120.16 65.48C119.52 65.5067 118.933 65.6133 118.4 65.8C117.867 65.9867 117.547 66.32 117.44 66.8C117.333 67.2267 117.32 67.6667 117.4 68.12C117.48 68.5733 117.653 68.8667 117.92 69C117.467 69.4267 117.013 69.8 116.56 70.12C116.133 70.44 115.693 70.6933 115.24 70.88C114.68 71.12 114.093 71.24 113.48 71.24C112.893 71.24 112.227 71.1067 111.48 70.84C111.133 70.7067 110.773 70.4667 110.4 70.12C110.027 69.7733 109.773 69.2933 109.64 68.68C109.507 68.0667 109.613 67.2933 109.96 66.36C109.987 66.28 110.12 65.8533 110.36 65.08C110.6 64.3067 110.907 63.2933 111.28 62.04C111.68 60.76 112.107 59.3467 112.56 57.8C113.04 56.2533 113.52 54.6667 114 53.04C114.507 51.3867 114.987 49.8 115.44 48.28C115.92 46.76 116.347 45.3867 116.72 44.16C117.093 42.9333 117.387 41.96 117.6 41.24C117.813 40.52 117.92 40.16 117.92 40.16C118.16 40.0267 118.6 39.8667 119.24 39.68C119.907 39.4667 120.613 39.3467 121.36 39.32C122.187 39.2667 122.987 39.3733 123.76 39.64C124.56 39.9067 125.173 40.44 125.6 41.24C125.787 41.56 126.067 42.1733 126.44 43.08C126.813 43.9867 127.253 45.08 127.76 46.36C128.267 47.64 128.8 49.0133 129.36 50.48C129.92 51.92 130.467 53.36 131 54.8C131.56 56.2133 132.067 57.5333 132.52 58.76C132.973 59.9867 133.36 61.0267 133.68 61.88C134 62.7067 134.213 63.24 134.32 63.48ZM121.72 58.32C122.413 58.2667 122.813 58.0667 122.92 57.72C123.053 57.3733 123.133 56.9733 123.16 56.52C123.16 56.2267 123.107 55.8667 123 55.44C122.92 55.0133 122.787 54.64 122.6 54.32C122.44 53.9733 122.227 53.8 121.96 53.8C121.587 53.8 121.173 54.0667 120.72 54.6C120.293 55.1067 120.053 55.6267 120 56.16C119.92 56.6667 119.96 57.16 120.12 57.64C120.307 58.12 120.84 58.3467 121.72 58.32ZM145.501 71.36C144.355 71.1467 143.541 70.3733 143.061 69.04C142.608 67.7067 142.381 66.0533 142.381 64.08C142.381 63.84 142.368 63.24 142.341 62.28C142.341 61.32 142.328 60.1333 142.301 58.72C142.301 57.28 142.288 55.7333 142.261 54.08C142.261 52.4267 142.248 50.7733 142.221 49.12C142.195 47.4667 142.168 45.9467 142.141 44.56C142.115 43.1467 142.088 41.9867 142.061 41.08C142.035 40.1733 142.008 39.6267 141.981 39.44C142.381 39.36 142.995 39.3467 143.821 39.4C144.675 39.4267 145.555 39.56 146.461 39.8C147.395 40.0133 148.208 40.3867 148.901 40.92C149.595 41.4267 149.995 42.1333 150.101 43.04C150.155 43.4667 150.195 44.2 150.221 45.24C150.248 46.2533 150.261 47.4667 150.261 48.88C150.288 50.2667 150.301 51.7467 150.301 53.32C150.301 54.8933 150.301 56.4533 150.301 58C150.301 59.52 150.301 60.9333 150.301 62.24C150.301 63.52 150.301 64.6 150.301 65.48C150.328 66.3333 150.355 66.8533 150.381 67.04C150.435 67.6 150.541 68.0133 150.701 68.28C150.861 68.52 151.035 68.8267 151.221 69.2C150.555 69.92 149.728 70.5067 148.741 70.96C147.755 71.4133 146.675 71.5467 145.501 71.36ZM182.323 43.04C182.376 43.4933 182.403 44.2667 182.403 45.36C182.43 46.4267 182.443 47.7067 182.443 49.2C182.443 50.6933 182.443 52.2667 182.443 53.92C182.443 55.5733 182.43 57.2133 182.403 58.84C182.403 60.4667 182.39 61.9467 182.363 63.28C182.363 64.6133 182.363 65.7067 182.363 66.56C182.363 67.3867 182.376 67.8533 182.403 67.96C182.456 68.1733 182.416 68.52 182.283 69C182.15 69.4533 181.936 69.8933 181.643 70.32C181.35 70.72 180.976 70.96 180.523 71.04C180.096 71.1467 179.496 71.1467 178.723 71.04C177.976 70.96 177.216 70.76 176.443 70.44C175.696 70.0933 175.096 69.6 174.643 68.96C174.376 68.5867 173.963 68.0533 173.403 67.36C172.87 66.64 172.27 65.8667 171.603 65.04C170.963 64.1867 170.323 63.3733 169.683 62.6C169.07 61.8 168.55 61.12 168.123 60.56C167.696 59.9733 167.43 59.6133 167.323 59.48C167.083 59.1067 166.683 58.7333 166.123 58.36C165.59 57.96 165.163 57.8133 164.843 57.92C164.523 58.0267 164.283 58.36 164.123 58.92C163.963 59.4533 163.856 60.0267 163.803 60.64C163.75 61.04 163.723 61.6533 163.723 62.48C163.723 63.28 163.723 64.1067 163.723 64.96C163.75 65.8133 163.75 66.5067 163.723 67.04C163.696 67.9733 163.99 68.8667 164.603 69.72C164.39 69.8533 163.963 70.0667 163.323 70.36C162.683 70.6267 162.003 70.8667 161.283 71.08C160.563 71.2933 159.95 71.3867 159.443 71.36C158.59 71.3067 157.83 70.8667 157.163 70.04C156.523 69.2133 156.19 68.1867 156.163 66.96C156.163 66.72 156.15 66.0533 156.123 64.96C156.123 63.84 156.11 62.4533 156.083 60.8C156.083 59.1467 156.083 57.36 156.083 55.44C156.083 53.52 156.07 51.6267 156.043 49.76C156.043 47.8667 156.03 46.1467 156.003 44.6C156.003 43.0267 156.003 41.7733 156.003 40.84C156.003 39.9067 156.003 39.44 156.003 39.44C157.63 39.3867 159.003 39.5067 160.123 39.8C161.243 40.0933 162.176 40.6267 162.923 41.4C163.243 41.6933 163.71 42.2133 164.323 42.96C164.936 43.7067 165.603 44.56 166.323 45.52C167.07 46.4533 167.79 47.3867 168.483 48.32C169.203 49.2533 169.83 50.08 170.363 50.8C170.896 51.4933 171.243 51.9467 171.403 52.16C171.83 52.6933 172.256 53.12 172.683 53.44C173.136 53.7333 173.51 53.8267 173.803 53.72C174.443 53.5067 174.763 52.6133 174.763 51.04L174.683 39.44C174.976 39.3867 175.483 39.3733 176.203 39.4C176.95 39.4267 177.736 39.5467 178.563 39.76C179.47 39.9733 180.296 40.3333 181.043 40.84C181.79 41.3467 182.216 42.08 182.323 43.04Z" fill="#EF1313"/>
<path d="M131.688 103.232C131.976 103.928 132.384 104.6 132.912 105.248C133.44 105.872 133.896 106.34 134.28 106.652C133.704 107.852 132.996 108.728 132.156 109.28C131.46 109.736 130.716 110 129.924 110.072C129.492 110.12 129 110.084 128.448 109.964C127.896 109.844 127.32 109.508 126.72 108.956C126.144 108.38 125.568 107.468 124.992 106.22C124.824 105.812 124.452 105.524 123.876 105.356C123.3 105.188 122.688 105.092 122.04 105.068C121.392 105.02 120.864 104.996 120.456 104.996C120.048 104.996 119.544 105.008 118.944 105.032C118.368 105.056 117.84 105.152 117.36 105.32C116.88 105.488 116.592 105.788 116.496 106.22C116.4 106.604 116.388 107 116.46 107.408C116.532 107.816 116.688 108.08 116.928 108.2C116.52 108.584 116.112 108.92 115.704 109.208C115.32 109.496 114.924 109.724 114.516 109.892C114.012 110.108 113.484 110.216 112.932 110.216C112.404 110.216 111.804 110.096 111.132 109.856C110.82 109.736 110.496 109.52 110.16 109.208C109.824 108.896 109.596 108.464 109.476 107.912C109.356 107.36 109.452 106.664 109.764 105.824C109.788 105.752 109.908 105.368 110.124 104.672C110.34 103.976 110.616 103.064 110.952 101.936C111.312 100.784 111.696 99.512 112.104 98.12C112.536 96.728 112.968 95.3 113.4 93.836C113.856 92.348 114.288 90.92 114.696 89.552C115.128 88.184 115.512 86.948 115.848 85.844C116.184 84.74 116.448 83.864 116.64 83.216C116.832 82.568 116.928 82.244 116.928 82.244C117.144 82.124 117.54 81.98 118.116 81.812C118.716 81.62 119.352 81.512 120.024 81.488C120.768 81.44 121.488 81.536 122.184 81.776C122.904 82.016 123.456 82.496 123.84 83.216C124.008 83.504 124.26 84.056 124.596 84.872C124.932 85.688 125.328 86.672 125.784 87.824C126.24 88.976 126.72 90.212 127.224 91.532C127.728 92.828 128.22 94.124 128.7 95.42C129.204 96.692 129.66 97.88 130.068 98.984C130.476 100.088 130.824 101.024 131.112 101.792C131.4 102.536 131.592 103.016 131.688 103.232ZM120.348 98.588C120.972 98.54 121.332 98.36 121.428 98.048C121.548 97.736 121.62 97.376 121.644 96.968C121.644 96.704 121.596 96.38 121.5 95.996C121.428 95.612 121.308 95.276 121.14 94.988C120.996 94.676 120.804 94.52 120.564 94.52C120.228 94.52 119.856 94.76 119.448 95.24C119.064 95.696 118.848 96.164 118.8 96.644C118.728 97.1 118.764 97.544 118.908 97.976C119.076 98.408 119.556 98.612 120.348 98.588ZM158.419 98.588C158.323 98.612 158.179 98.744 157.987 98.984C157.819 99.224 157.699 99.476 157.627 99.74C157.507 100.124 157.543 100.436 157.735 100.676C158.239 101.276 158.887 101.984 159.679 102.8C160.471 103.592 161.263 104.348 162.055 105.068C162.871 105.788 163.567 106.34 164.143 106.724C163.711 107.876 163.027 108.8 162.091 109.496C161.179 110.168 160.159 110.492 159.031 110.468C157.903 110.444 156.799 109.94 155.719 108.956C155.575 108.812 155.299 108.5 154.891 108.02C154.483 107.516 154.015 106.928 153.487 106.256C152.959 105.584 152.431 104.912 151.903 104.24C151.375 103.568 150.919 102.98 150.535 102.476C150.151 101.972 149.911 101.66 149.815 101.54C149.359 100.94 148.927 100.808 148.519 101.144C148.111 101.48 147.859 102.176 147.763 103.232C147.715 103.856 147.715 104.576 147.763 105.392C147.835 106.184 147.931 106.892 148.051 107.516C148.195 108.14 148.339 108.512 148.483 108.632C147.979 109.016 147.355 109.376 146.611 109.712C145.867 110.048 145.015 110.252 144.055 110.324C143.695 110.348 143.275 110.252 142.795 110.036C142.315 109.82 141.895 109.472 141.535 108.992C141.199 108.488 141.019 107.864 140.995 107.12C140.995 106.928 140.983 106.424 140.959 105.608C140.959 104.792 140.947 103.796 140.923 102.62C140.923 101.42 140.923 100.184 140.923 98.912C140.923 97.64 140.911 96.44 140.887 95.312C140.887 94.184 140.887 93.272 140.887 92.576C140.887 91.88 140.887 91.532 140.887 91.532C140.887 90.116 140.851 88.94 140.779 88.004C140.707 87.044 140.419 86.312 139.915 85.808C139.459 85.352 139.111 84.692 138.871 83.828C138.655 82.964 138.559 82.148 138.583 81.38C138.679 81.404 138.967 81.44 139.447 81.488C139.927 81.512 140.395 81.548 140.851 81.596C141.163 81.596 141.607 81.596 142.183 81.596C142.783 81.572 143.419 81.548 144.091 81.524C144.763 81.5 145.387 81.488 145.963 81.488C146.539 81.464 146.971 81.44 147.259 81.416C147.475 81.416 147.871 81.416 148.447 81.416C149.047 81.392 149.743 81.38 150.535 81.38C151.327 81.38 152.131 81.392 152.947 81.416C153.763 81.416 154.519 81.44 155.215 81.488C155.911 81.536 156.451 81.596 156.835 81.668C158.419 81.956 159.643 82.484 160.507 83.252C161.371 84.02 161.983 84.944 162.343 86.024C162.727 87.104 162.955 88.28 163.027 89.552C163.075 90.632 162.955 91.76 162.667 92.936C162.379 94.112 161.887 95.204 161.191 96.212C160.495 97.22 159.571 98.012 158.419 98.588ZM147.835 90.848C147.835 91.616 148.015 92.192 148.375 92.576C148.735 92.936 149.071 93.152 149.383 93.224C149.815 93.32 150.367 93.332 151.039 93.26C151.711 93.164 152.383 92.996 153.055 92.756C153.727 92.492 154.291 92.156 154.747 91.748C155.227 91.34 155.467 90.872 155.467 90.344C155.467 89.648 155.179 89.12 154.603 88.76C154.027 88.376 153.295 88.136 152.407 88.04C151.543 87.944 150.679 87.968 149.815 88.112C149.143 88.208 148.639 88.508 148.303 89.012C147.967 89.516 147.811 90.128 147.835 90.848ZM189.129 103.916C190.185 104.9 191.097 105.536 191.865 105.824C191.793 106.112 191.637 106.496 191.397 106.976C191.181 107.456 190.893 107.936 190.533 108.416C190.197 108.896 189.801 109.304 189.345 109.64C188.889 109.976 188.385 110.156 187.833 110.18C187.161 110.204 186.549 110.132 185.997 109.964C185.469 109.772 184.905 109.46 184.305 109.028C183.849 108.668 183.309 108.212 182.685 107.66C182.085 107.084 181.497 106.496 180.921 105.896C180.345 105.296 179.889 104.792 179.553 104.384C179.073 103.76 178.557 103.232 178.005 102.8C177.453 102.368 176.841 102.2 176.169 102.296C175.785 102.32 175.545 102.428 175.449 102.62C175.377 102.788 175.305 103.136 175.233 103.664C175.185 104.024 175.173 104.456 175.197 104.96C175.221 105.44 175.257 105.896 175.305 106.328C175.377 106.76 175.413 107.072 175.413 107.264C175.413 107.696 175.497 108.032 175.665 108.272C175.833 108.488 176.001 108.692 176.169 108.884C175.761 109.196 175.125 109.532 174.261 109.892C173.397 110.252 172.437 110.432 171.381 110.432C170.685 110.432 170.133 110.156 169.725 109.604C169.341 109.052 169.065 108.38 168.897 107.588C168.729 106.796 168.633 106.028 168.609 105.284C168.609 105.068 168.597 104.48 168.573 103.52C168.573 102.56 168.561 101.372 168.537 99.956C168.537 98.516 168.537 96.98 168.537 95.348C168.537 93.692 168.525 92.06 168.501 90.452C168.501 88.82 168.489 87.344 168.465 86.024C168.465 84.68 168.465 83.612 168.465 82.82C168.465 82.004 168.465 81.596 168.465 81.596C168.729 81.548 169.185 81.536 169.833 81.56C170.505 81.584 171.201 81.692 171.921 81.884C172.737 82.076 173.481 82.4 174.153 82.856C174.849 83.312 175.245 83.972 175.341 84.836C175.389 85.388 175.413 85.844 175.413 86.204C175.437 86.564 175.449 86.936 175.449 87.32C175.449 88.592 175.761 89.396 176.385 89.732C177.081 90.092 178.029 89.852 179.229 89.012C179.421 88.868 179.757 88.592 180.237 88.184C180.717 87.752 181.269 87.248 181.893 86.672C182.517 86.096 183.165 85.496 183.837 84.872C184.509 84.248 185.121 83.672 185.673 83.144C186.249 82.592 186.717 82.148 187.077 81.812C187.437 81.476 187.617 81.308 187.617 81.308C187.833 81.476 188.133 81.872 188.517 82.496C188.925 83.12 189.285 83.816 189.597 84.584C189.909 85.352 190.101 86.144 190.173 86.96C190.269 87.752 190.113 88.412 189.705 88.94C189.537 89.156 189.261 89.444 188.877 89.804C188.517 90.164 188.109 90.548 187.653 90.956C187.221 91.34 186.801 91.712 186.393 92.072C185.985 92.408 185.673 92.672 185.457 92.864C185.001 93.248 184.617 93.728 184.305 94.304C184.017 94.856 183.837 95.432 183.765 96.032C183.693 96.632 183.717 97.232 183.837 97.832C183.957 98.432 184.221 98.984 184.629 99.488C184.917 99.824 185.349 100.28 185.925 100.856C186.501 101.408 187.089 101.972 187.689 102.548C188.289 103.1 188.769 103.556 189.129 103.916ZM211.177 103.448C211.513 103.4 211.933 103.34 212.437 103.268C212.965 103.196 213.457 103.112 213.913 103.016C214.393 102.896 214.717 102.764 214.885 102.62C215.197 102.884 215.401 103.424 215.497 104.24C215.617 105.032 215.581 105.86 215.389 106.724C215.245 107.468 214.993 108.164 214.633 108.812C214.273 109.46 213.757 109.856 213.085 110C212.509 110.12 211.849 110.192 211.105 110.216C210.361 110.24 209.605 110.24 208.837 110.216C208.069 110.192 207.361 110.168 206.713 110.144C206.089 110.12 205.609 110.108 205.273 110.108C204.937 110.108 204.409 110.108 203.689 110.108C202.993 110.132 202.381 110.156 201.853 110.18C201.229 110.252 200.545 110.3 199.801 110.324C199.057 110.348 198.373 110.324 197.749 110.252C197.125 110.18 196.669 110.06 196.381 109.892C196.549 109.556 196.693 109.052 196.813 108.38C196.933 107.684 197.029 106.928 197.101 106.112C197.173 105.296 197.197 104.516 197.173 103.772L197.101 97.184V94.124C197.101 93.26 197.089 92.54 197.065 91.964C197.065 91.388 197.065 91.076 197.065 91.028C197.065 90.236 197.029 89.384 196.957 88.472C196.885 87.56 196.801 86.696 196.705 85.88C196.609 85.04 196.525 84.356 196.453 83.828C196.357 83.42 196.285 83.024 196.237 82.64C196.189 82.232 196.177 81.872 196.201 81.56C196.369 81.632 196.825 81.704 197.569 81.776C198.337 81.824 199.225 81.872 200.233 81.92C200.305 81.92 200.653 81.932 201.277 81.956C201.901 81.956 202.669 81.968 203.581 81.992C204.517 82.016 205.477 82.04 206.461 82.064C207.469 82.064 208.381 82.064 209.197 82.064C210.013 82.064 210.613 82.052 210.997 82.028C211.981 81.98 212.809 81.908 213.481 81.812C214.177 81.692 214.645 81.536 214.885 81.344C215.173 81.584 215.437 82.04 215.677 82.712C215.941 83.36 216.085 84.044 216.109 84.764C216.109 85.46 215.941 86.12 215.605 86.744C215.293 87.344 214.717 87.752 213.877 87.968C213.565 88.04 213.073 88.1 212.401 88.148C211.753 88.196 211.117 88.232 210.493 88.256C209.893 88.256 209.461 88.244 209.197 88.22C208.453 88.148 207.685 88.232 206.893 88.472C206.101 88.688 205.429 88.988 204.877 89.372C204.325 89.732 204.037 90.128 204.013 90.56C203.989 90.968 204.157 91.304 204.517 91.568C204.877 91.832 205.345 92.048 205.921 92.216C206.521 92.36 207.157 92.456 207.829 92.504C208.501 92.552 209.137 92.564 209.737 92.54C210.217 92.492 210.769 92.408 211.393 92.288C212.017 92.168 212.401 92.048 212.545 91.928C212.857 92.192 213.073 92.684 213.193 93.404C213.337 94.124 213.337 94.868 213.193 95.636C213.073 96.26 212.833 96.836 212.473 97.364C212.113 97.892 211.609 98.252 210.961 98.444C210.457 98.588 210.025 98.684 209.665 98.732C209.305 98.756 209.125 98.768 209.125 98.768C207.709 98.768 206.509 99.02 205.525 99.524C204.565 100.004 204.037 100.58 203.941 101.252C203.845 101.828 203.965 102.356 204.301 102.836C204.661 103.316 205.177 103.58 205.849 103.628C206.305 103.652 206.881 103.664 207.577 103.664C208.297 103.64 208.993 103.616 209.665 103.592C210.361 103.544 210.865 103.496 211.177 103.448ZM243.499 81.02C243.787 81.26 243.991 81.728 244.111 82.424C244.255 83.12 244.315 83.876 244.291 84.692C244.267 85.484 244.147 86.204 243.931 86.852C243.715 87.476 243.403 87.848 242.995 87.968C242.827 88.016 242.479 88.088 241.951 88.184C241.447 88.256 240.979 88.352 240.547 88.472C240.139 88.592 239.599 88.796 238.927 89.084C238.255 89.372 237.679 89.792 237.199 90.344C236.815 90.8 236.503 91.28 236.263 91.784C236.023 92.264 235.891 92.888 235.867 93.656C235.843 93.968 235.831 94.556 235.831 95.42C235.831 96.26 235.831 97.244 235.831 98.372C235.831 99.476 235.831 100.568 235.831 101.648C235.855 102.728 235.867 103.652 235.867 104.42C235.867 105.188 235.867 105.644 235.867 105.788C235.843 106.508 235.915 107.12 236.083 107.624C236.251 108.128 236.431 108.428 236.623 108.524C236.023 108.98 235.423 109.364 234.823 109.676C234.247 109.988 233.419 110.216 232.339 110.36C231.931 110.408 231.475 110.288 230.971 110C230.467 109.736 230.023 109.316 229.639 108.74C229.279 108.14 229.087 107.408 229.063 106.544C229.063 105.68 229.051 104.576 229.027 103.232C229.027 101.864 229.027 100.388 229.027 98.804C229.051 97.196 229.051 95.588 229.027 93.98C229.003 93.284 228.895 92.624 228.703 92C228.535 91.376 228.247 90.836 227.839 90.38C227.431 89.9 226.891 89.504 226.219 89.192C225.547 88.88 224.707 88.676 223.699 88.58C223.435 88.556 223.075 88.484 222.619 88.364C222.163 88.244 221.851 88.124 221.683 88.004C221.419 87.812 221.203 87.452 221.035 86.924C220.867 86.372 220.735 85.772 220.639 85.124C220.543 84.452 220.471 83.792 220.423 83.144C220.399 82.496 220.399 81.968 220.423 81.56C220.519 81.584 220.783 81.62 221.215 81.668C221.671 81.716 222.211 81.764 222.835 81.812C223.459 81.836 224.071 81.86 224.671 81.884C225.103 81.908 225.679 81.932 226.399 81.956C227.143 81.98 227.935 82.004 228.775 82.028C229.615 82.052 230.407 82.076 231.151 82.1C231.895 82.1 232.507 82.1 232.987 82.1C233.635 82.076 234.391 82.052 235.255 82.028C236.119 82.004 236.947 81.98 237.739 81.956C238.555 81.908 239.203 81.86 239.683 81.812C240.163 81.764 240.667 81.704 241.195 81.632C241.747 81.536 242.227 81.44 242.635 81.344C243.067 81.224 243.355 81.116 243.499 81.02ZM265.645 81.38C267.421 81.644 268.825 82.124 269.857 82.82C270.913 83.492 271.693 84.272 272.197 85.16C272.701 86.048 273.025 86.924 273.169 87.788C273.313 88.628 273.385 89.348 273.385 89.948C273.385 90.716 273.253 91.604 272.989 92.612C272.725 93.596 272.281 94.568 271.657 95.528C271.057 96.464 270.253 97.28 269.245 97.976C268.237 98.648 266.977 99.056 265.465 99.2C265.201 99.224 264.865 99.248 264.457 99.272C264.049 99.296 263.677 99.32 263.341 99.344C263.029 99.344 262.837 99.344 262.765 99.344C261.853 99.392 261.013 99.656 260.245 100.136C259.501 100.616 258.901 101.24 258.445 102.008C258.013 102.752 257.785 103.592 257.761 104.528V105.86C257.761 106.484 257.845 107.06 258.013 107.588C258.181 108.092 258.313 108.44 258.409 108.632C257.833 109.16 257.329 109.532 256.897 109.748C256.465 109.964 255.925 110.12 255.277 110.216C254.749 110.288 254.161 110.24 253.513 110.072C252.889 109.904 252.325 109.592 251.821 109.136C251.317 108.656 250.993 107.996 250.849 107.156C250.825 107.012 250.813 106.556 250.813 105.788C250.813 104.996 250.813 104.024 250.813 102.872C250.837 101.696 250.849 100.412 250.849 99.02C250.873 97.628 250.885 96.236 250.885 94.844C250.885 93.452 250.885 92.156 250.885 90.956C250.861 89.66 250.801 88.568 250.705 87.68C250.633 86.792 250.453 86.228 250.165 85.988C249.661 85.556 249.265 84.884 248.977 83.972C248.713 83.06 248.593 82.196 248.617 81.38C248.713 81.404 248.977 81.44 249.409 81.488C249.841 81.512 250.297 81.548 250.777 81.596C251.017 81.596 251.413 81.596 251.965 81.596C252.517 81.572 253.117 81.536 253.765 81.488C254.437 81.44 255.085 81.404 255.709 81.38C256.333 81.332 256.837 81.296 257.221 81.272C257.749 81.224 258.445 81.176 259.309 81.128C260.197 81.08 261.193 81.068 262.297 81.092C263.401 81.116 264.517 81.212 265.645 81.38ZM261.361 92.612C261.697 92.636 262.117 92.612 262.621 92.54C263.149 92.444 263.677 92.3 264.205 92.108C264.757 91.916 265.213 91.652 265.573 91.316C265.933 90.956 266.113 90.524 266.113 90.02C266.113 89.324 265.849 88.784 265.321 88.4C264.817 88.016 264.193 87.752 263.449 87.608C262.729 87.464 262.033 87.404 261.361 87.428C260.377 87.452 259.537 87.728 258.841 88.256C258.145 88.76 257.797 89.36 257.797 90.056C257.821 90.512 258.001 90.932 258.337 91.316C258.697 91.676 259.141 91.976 259.669 92.216C260.221 92.456 260.785 92.588 261.361 92.612ZM297.993 102.872C298.305 103.136 298.509 103.664 298.605 104.456C298.725 105.224 298.689 106.028 298.497 106.868C298.353 107.564 298.089 108.236 297.705 108.884C297.321 109.508 296.817 109.88 296.193 110C295.953 110.048 295.401 110.072 294.537 110.072C293.673 110.096 292.653 110.096 291.477 110.072C290.325 110.072 289.149 110.06 287.949 110.036C286.773 110.036 285.717 110.036 284.781 110.036C283.869 110.06 283.221 110.096 282.837 110.144C281.853 110.312 280.845 110.372 279.813 110.324C278.805 110.276 278.097 110.132 277.689 109.892C277.857 109.556 278.001 109.052 278.121 108.38C278.241 107.684 278.337 106.928 278.409 106.112C278.481 105.296 278.505 104.516 278.481 103.772L278.337 81.596C278.601 81.548 279.057 81.536 279.705 81.56C280.377 81.584 281.085 81.692 281.829 81.884C282.645 82.076 283.377 82.436 284.025 82.964C284.673 83.492 285.069 84.164 285.213 84.98C285.261 85.244 285.297 85.772 285.321 86.564C285.345 87.332 285.357 88.244 285.357 89.3C285.381 90.356 285.381 91.436 285.357 92.54C285.357 93.644 285.357 94.676 285.357 95.636C285.357 96.596 285.345 97.376 285.321 97.976C285.321 98.576 285.321 98.876 285.321 98.876C285.297 99.788 285.393 100.616 285.609 101.36C285.825 102.08 286.137 102.644 286.545 103.052C286.857 103.364 287.241 103.58 287.697 103.7C288.153 103.82 288.717 103.904 289.389 103.952C289.677 103.976 290.121 103.976 290.721 103.952C291.345 103.928 292.029 103.892 292.773 103.844C293.517 103.772 294.249 103.688 294.969 103.592C295.713 103.496 296.361 103.388 296.913 103.268C297.465 103.148 297.825 103.016 297.993 102.872ZM325.248 103.232C325.536 103.928 325.944 104.6 326.472 105.248C327 105.872 327.456 106.34 327.84 106.652C327.264 107.852 326.556 108.728 325.716 109.28C325.02 109.736 324.276 110 323.484 110.072C323.052 110.12 322.56 110.084 322.008 109.964C321.456 109.844 320.88 109.508 320.28 108.956C319.704 108.38 319.128 107.468 318.552 106.22C318.384 105.812 318.012 105.524 317.436 105.356C316.86 105.188 316.248 105.092 315.6 105.068C314.952 105.02 314.424 104.996 314.016 104.996C313.608 104.996 313.104 105.008 312.504 105.032C311.928 105.056 311.4 105.152 310.92 105.32C310.44 105.488 310.152 105.788 310.056 106.22C309.96 106.604 309.948 107 310.02 107.408C310.092 107.816 310.248 108.08 310.488 108.2C310.08 108.584 309.672 108.92 309.264 109.208C308.88 109.496 308.484 109.724 308.076 109.892C307.572 110.108 307.044 110.216 306.492 110.216C305.964 110.216 305.364 110.096 304.692 109.856C304.38 109.736 304.056 109.52 303.72 109.208C303.384 108.896 303.156 108.464 303.036 107.912C302.916 107.36 303.012 106.664 303.324 105.824C303.348 105.752 303.468 105.368 303.684 104.672C303.9 103.976 304.176 103.064 304.512 101.936C304.872 100.784 305.256 99.512 305.664 98.12C306.096 96.728 306.528 95.3 306.96 93.836C307.416 92.348 307.848 90.92 308.256 89.552C308.688 88.184 309.072 86.948 309.408 85.844C309.744 84.74 310.008 83.864 310.2 83.216C310.392 82.568 310.488 82.244 310.488 82.244C310.704 82.124 311.1 81.98 311.676 81.812C312.276 81.62 312.912 81.512 313.584 81.488C314.328 81.44 315.048 81.536 315.744 81.776C316.464 82.016 317.016 82.496 317.4 83.216C317.568 83.504 317.82 84.056 318.156 84.872C318.492 85.688 318.888 86.672 319.344 87.824C319.8 88.976 320.28 90.212 320.784 91.532C321.288 92.828 321.78 94.124 322.26 95.42C322.764 96.692 323.22 97.88 323.628 98.984C324.036 100.088 324.384 101.024 324.672 101.792C324.96 102.536 325.152 103.016 325.248 103.232ZM313.908 98.588C314.532 98.54 314.892 98.36 314.988 98.048C315.108 97.736 315.18 97.376 315.204 96.968C315.204 96.704 315.156 96.38 315.06 95.996C314.988 95.612 314.868 95.276 314.7 94.988C314.556 94.676 314.364 94.52 314.124 94.52C313.788 94.52 313.416 94.76 313.008 95.24C312.624 95.696 312.408 96.164 312.36 96.644C312.288 97.1 312.324 97.544 312.468 97.976C312.636 98.408 313.116 98.612 313.908 98.588ZM353.852 88.4C353.564 89.288 353.12 89.936 352.52 90.344C351.92 90.752 351.296 90.92 350.648 90.848C350 90.752 349.448 90.428 348.992 89.876C349.4 89.564 349.52 89.228 349.352 88.868C349.208 88.484 348.836 88.172 348.236 87.932C347.636 87.668 346.868 87.572 345.932 87.644C344.972 87.692 344 88.004 343.016 88.58C342.056 89.156 341.252 89.984 340.604 91.064C339.956 92.144 339.596 93.488 339.524 95.096C339.452 96.752 339.62 98.096 340.028 99.128C340.436 100.16 340.94 100.952 341.54 101.504C342.164 102.032 342.788 102.416 343.412 102.656C344.036 102.872 344.54 103.016 344.924 103.088C345.428 103.184 346.004 103.256 346.652 103.304C347.324 103.328 347.996 103.28 348.668 103.16C349.34 103.04 349.916 102.836 350.396 102.548C350.828 102.284 351.368 101.936 352.016 101.504C352.664 101.048 353.288 100.544 353.888 99.992C354.488 99.44 354.932 98.876 355.22 98.3C356.036 98.852 356.54 99.632 356.732 100.64C356.948 101.648 356.864 102.728 356.48 103.88C356.096 105.032 355.424 106.124 354.464 107.156C353.528 108.164 352.304 108.992 350.792 109.64C349.28 110.264 347.492 110.552 345.428 110.504C344.468 110.48 343.364 110.3 342.116 109.964C340.892 109.628 339.656 109.1 338.408 108.38C337.16 107.636 336.02 106.664 334.988 105.464C333.98 104.24 333.212 102.728 332.684 100.928C332.156 99.128 332.012 97.004 332.252 94.556C332.468 92.228 333.044 90.224 333.98 88.544C334.94 86.864 336.104 85.496 337.472 84.44C338.864 83.36 340.328 82.556 341.864 82.028C343.424 81.476 344.912 81.188 346.328 81.164C347.744 81.116 348.968 81.332 350 81.812C351.056 82.292 351.908 82.916 352.556 83.684C353.204 84.428 353.636 85.232 353.852 86.096C354.092 86.936 354.092 87.704 353.852 88.4ZM376.122 103.448C376.458 103.4 376.878 103.34 377.382 103.268C377.91 103.196 378.402 103.112 378.858 103.016C379.338 102.896 379.662 102.764 379.83 102.62C380.142 102.884 380.346 103.424 380.442 104.24C380.562 105.032 380.526 105.86 380.334 106.724C380.19 107.468 379.938 108.164 379.578 108.812C379.218 109.46 378.702 109.856 378.03 110C377.454 110.12 376.794 110.192 376.05 110.216C375.306 110.24 374.55 110.24 373.782 110.216C373.014 110.192 372.306 110.168 371.658 110.144C371.034 110.12 370.554 110.108 370.218 110.108C369.882 110.108 369.354 110.108 368.634 110.108C367.938 110.132 367.326 110.156 366.798 110.18C366.174 110.252 365.49 110.3 364.746 110.324C364.002 110.348 363.318 110.324 362.694 110.252C362.07 110.18 361.614 110.06 361.326 109.892C361.494 109.556 361.638 109.052 361.758 108.38C361.878 107.684 361.974 106.928 362.046 106.112C362.118 105.296 362.142 104.516 362.118 103.772L362.046 97.184V94.124C362.046 93.26 362.034 92.54 362.01 91.964C362.01 91.388 362.01 91.076 362.01 91.028C362.01 90.236 361.974 89.384 361.902 88.472C361.83 87.56 361.746 86.696 361.65 85.88C361.554 85.04 361.47 84.356 361.398 83.828C361.302 83.42 361.23 83.024 361.182 82.64C361.134 82.232 361.122 81.872 361.146 81.56C361.314 81.632 361.77 81.704 362.514 81.776C363.282 81.824 364.17 81.872 365.178 81.92C365.25 81.92 365.598 81.932 366.222 81.956C366.846 81.956 367.614 81.968 368.526 81.992C369.462 82.016 370.422 82.04 371.406 82.064C372.414 82.064 373.326 82.064 374.142 82.064C374.958 82.064 375.558 82.052 375.942 82.028C376.926 81.98 377.754 81.908 378.426 81.812C379.122 81.692 379.59 81.536 379.83 81.344C380.118 81.584 380.382 82.04 380.622 82.712C380.886 83.36 381.03 84.044 381.054 84.764C381.054 85.46 380.886 86.12 380.55 86.744C380.238 87.344 379.662 87.752 378.822 87.968C378.51 88.04 378.018 88.1 377.346 88.148C376.698 88.196 376.062 88.232 375.438 88.256C374.838 88.256 374.406 88.244 374.142 88.22C373.398 88.148 372.63 88.232 371.838 88.472C371.046 88.688 370.374 88.988 369.822 89.372C369.27 89.732 368.982 90.128 368.958 90.56C368.934 90.968 369.102 91.304 369.462 91.568C369.822 91.832 370.29 92.048 370.866 92.216C371.466 92.36 372.102 92.456 372.774 92.504C373.446 92.552 374.082 92.564 374.682 92.54C375.162 92.492 375.714 92.408 376.338 92.288C376.962 92.168 377.346 92.048 377.49 91.928C377.802 92.192 378.018 92.684 378.138 93.404C378.282 94.124 378.282 94.868 378.138 95.636C378.018 96.26 377.778 96.836 377.418 97.364C377.058 97.892 376.554 98.252 375.906 98.444C375.402 98.588 374.97 98.684 374.61 98.732C374.25 98.756 374.07 98.768 374.07 98.768C372.654 98.768 371.454 99.02 370.47 99.524C369.51 100.004 368.982 100.58 368.886 101.252C368.79 101.828 368.91 102.356 369.246 102.836C369.606 103.316 370.122 103.58 370.794 103.628C371.25 103.652 371.826 103.664 372.522 103.664C373.242 103.64 373.938 103.616 374.61 103.592C375.306 103.544 375.81 103.496 376.122 103.448Z" fill="#100000"/>
</svg>
