<svg width="400" height="150" viewBox="0 0 400 150" fill="none" xmlns="http://www.w3.org/2000/svg">
<rect width="400" height="150" fill="#F5F5F5"/>
<rect width="400" height="150" fill="white"/>
<rect x="107.5" y="31.5" width="290" height="86" fill="#0C0C0C" stroke="black"/>
<path d="M100.2 98.6C100.253 99.6667 100.387 100.707 100.6 101.72C100.867 102.733 101.187 103.48 101.56 103.96C101.08 104.44 100.333 105 99.32 105.64C98.36 106.28 97.24 106.787 95.96 107.16C94.7333 107.587 93.4267 107.773 92.04 107.72C89.96 107.613 88.28 106.733 87 105.08C85.7733 103.427 85.1333 101.373 85.08 98.92C85.08 98.44 85.08 97.56 85.08 96.28C85.08 94.9467 85.08 93.5333 85.08 92.04C85.08 90.5467 85.08 89.32 85.08 88.36C85.08 87.4533 84.84 86.5733 84.36 85.72C83.9333 84.8667 83.4267 84.36 82.84 84.2C82.04 83.9333 81.3733 84.4133 80.84 85.64C80.7333 85.9067 80.3867 86.5733 79.8 87.64C79.2133 88.6533 78.5467 89.8533 77.8 91.24C77.1067 92.6267 76.44 94.0133 75.8 95.4C75.2133 96.7867 74.8133 97.9867 74.6 99C74.3867 99.96 74.52 100.547 75 100.76C74.7867 101.293 74.3867 102.067 73.8 103.08C73.2667 104.093 72.36 104.973 71.08 105.72C69.8533 106.413 68.0933 106.68 65.8 106.52C64.5733 106.413 63 105.667 61.08 104.28C59.16 102.893 57.32 100.36 55.56 96.68C53.9067 93.16 52.5467 90.7867 51.48 89.56C50.4667 88.28 49.72 87.6933 49.24 87.8C48.8133 87.8533 48.4667 88.1467 48.2 88.68C47.9867 89.2133 47.7733 89.96 47.56 90.92C47.4533 91.4 47.4 92.2 47.4 93.32C47.4 94.44 47.4533 95.6933 47.56 97.08C47.6667 98.4667 47.8533 99.7733 48.12 101C48.44 102.227 48.84 103.16 49.32 103.8C48.8933 104.067 48.12 104.52 47 105.16C45.9333 105.8 44.7067 106.387 43.32 106.92C41.9867 107.4 40.68 107.64 39.4 107.64C37.48 107.587 35.88 107.08 34.6 106.12C33.32 105.107 32.5467 103.133 32.28 100.2C32.2267 99.72 32.2 98.36 32.2 96.12C32.2 93.88 32.2 91.0533 32.2 87.64C32.2 84.2267 32.2 80.5733 32.2 76.68C32.2 72.7333 32.2 68.84 32.2 65C32.2 61.16 32.2 57.64 32.2 54.44C32.2533 51.24 32.28 48.68 32.28 46.76C32.28 44.84 32.28 43.88 32.28 43.88C32.8667 43.7733 33.8533 43.7467 35.24 43.8C36.6267 43.8533 38.1467 44.0667 39.8 44.44C41.4533 44.8133 42.9733 45.4267 44.36 46.28C45.7467 47.08 46.7067 48.2267 47.24 49.72C47.24 49.72 47.48 50.2267 47.96 51.24C48.4933 52.2 49.1867 53.48 50.04 55.08C50.8933 56.6267 51.8 58.3067 52.76 60.12C53.7733 61.9333 54.7333 63.72 55.64 65.48C56.6 67.24 57.4267 68.7867 58.12 70.12C58.8667 71.4533 59.3733 72.3867 59.64 72.92C60.5467 74.4667 61.4 75.5333 62.2 76.12C63.0533 76.7067 63.96 77.0267 64.92 77.08C66.8933 77.08 68.7867 75.56 70.6 72.52C70.8667 72.04 71.4 71.0267 72.2 69.48C73 67.88 73.9333 65.9867 75 63.8C76.0667 61.6133 77.16 59.3733 78.28 57.08C79.4533 54.7867 80.52 52.6533 81.48 50.68C82.44 48.6533 83.2133 47.0267 83.8 45.8C84.44 44.52 84.76 43.88 84.76 43.88C85.1333 43.8267 85.6667 43.8 86.36 43.8C87.1067 43.7467 87.9067 43.7733 88.76 43.88C90.2533 43.9867 91.8267 44.28 93.48 44.76C95.1867 45.24 96.6533 45.9867 97.88 47C99.16 48.0133 99.88 49.3733 100.04 51.08C100.147 51.9867 100.227 53.48 100.28 55.56C100.333 57.5867 100.36 60.0133 100.36 62.84C100.36 65.6133 100.36 68.5733 100.36 71.72C100.36 74.8667 100.333 77.96 100.28 81C100.28 84.04 100.253 86.84 100.2 89.4C100.2 91.96 100.2 94.0667 100.2 95.72C100.2 97.32 100.2 98.28 100.2 98.6Z" fill="#EF1313"/>
<path d="M143.48 66.64C143.501 67.0667 143.555 67.4827 143.64 67.888C143.747 68.2933 143.875 68.592 144.024 68.784C143.832 68.976 143.533 69.2 143.128 69.456C142.744 69.712 142.296 69.9147 141.784 70.064C141.293 70.2347 140.771 70.3093 140.216 70.288C139.384 70.2453 138.712 69.8933 138.2 69.232C137.709 68.5707 137.453 67.7493 137.432 66.768C137.432 66.576 137.432 66.224 137.432 65.712C137.432 65.1787 137.432 64.6133 137.432 64.016C137.432 63.4187 137.432 62.928 137.432 62.544C137.432 62.1813 137.336 61.8293 137.144 61.488C136.973 61.1467 136.771 60.944 136.536 60.88C136.216 60.7733 135.949 60.9653 135.736 61.456C135.693 61.5627 135.555 61.8293 135.32 62.256C135.085 62.6613 134.819 63.1413 134.52 63.696C134.243 64.2507 133.976 64.8053 133.72 65.36C133.485 65.9147 133.325 66.3947 133.24 66.8C133.155 67.184 133.208 67.4187 133.4 67.504C133.315 67.7173 133.155 68.0267 132.92 68.432C132.707 68.8373 132.344 69.1893 131.832 69.488C131.341 69.7653 130.637 69.872 129.72 69.808C129.229 69.7653 128.6 69.4667 127.832 68.912C127.064 68.3573 126.328 67.344 125.624 65.872C124.963 64.464 124.419 63.5147 123.992 63.024C123.587 62.512 123.288 62.2773 123.096 62.32C122.925 62.3413 122.787 62.4587 122.68 62.672C122.595 62.8853 122.509 63.184 122.424 63.568C122.381 63.76 122.36 64.08 122.36 64.528C122.36 64.976 122.381 65.4773 122.424 66.032C122.467 66.5867 122.541 67.1093 122.648 67.6C122.776 68.0907 122.936 68.464 123.128 68.72C122.957 68.8267 122.648 69.008 122.2 69.264C121.773 69.52 121.283 69.7547 120.728 69.968C120.195 70.16 119.672 70.256 119.16 70.256C118.392 70.2347 117.752 70.032 117.24 69.648C116.728 69.2427 116.419 68.4533 116.312 67.28C116.291 67.088 116.28 66.544 116.28 65.648C116.28 64.752 116.28 63.6213 116.28 62.256C116.28 60.8907 116.28 59.4293 116.28 57.872C116.28 56.2933 116.28 54.736 116.28 53.2C116.28 51.664 116.28 50.256 116.28 48.976C116.301 47.696 116.312 46.672 116.312 45.904C116.312 45.136 116.312 44.752 116.312 44.752C116.547 44.7093 116.941 44.6987 117.496 44.72C118.051 44.7413 118.659 44.8267 119.32 44.976C119.981 45.1253 120.589 45.3707 121.144 45.712C121.699 46.032 122.083 46.4907 122.296 47.088C122.296 47.088 122.392 47.2907 122.584 47.696C122.797 48.08 123.075 48.592 123.416 49.232C123.757 49.8507 124.12 50.5227 124.504 51.248C124.909 51.9733 125.293 52.688 125.656 53.392C126.04 54.096 126.371 54.7147 126.648 55.248C126.947 55.7813 127.149 56.1547 127.256 56.368C127.619 56.9867 127.96 57.4133 128.28 57.648C128.621 57.8827 128.984 58.0107 129.368 58.032C130.157 58.032 130.915 57.424 131.64 56.208C131.747 56.016 131.96 55.6107 132.28 54.992C132.6 54.352 132.973 53.5947 133.4 52.72C133.827 51.8453 134.264 50.9493 134.712 50.032C135.181 49.1147 135.608 48.2613 135.992 47.472C136.376 46.6613 136.685 46.0107 136.92 45.52C137.176 45.008 137.304 44.752 137.304 44.752C137.453 44.7307 137.667 44.72 137.944 44.72C138.243 44.6987 138.563 44.7093 138.904 44.752C139.501 44.7947 140.131 44.912 140.792 45.104C141.475 45.296 142.061 45.5947 142.552 46C143.064 46.4053 143.352 46.9493 143.416 47.632C143.459 47.9947 143.491 48.592 143.512 49.424C143.533 50.2347 143.544 51.2053 143.544 52.336C143.544 53.4453 143.544 54.6293 143.544 55.888C143.544 57.1467 143.533 58.384 143.512 59.6C143.512 60.816 143.501 61.936 143.48 62.96C143.48 63.984 143.48 64.8267 143.48 65.488C143.48 66.128 143.48 66.512 143.48 66.64ZM167.649 63.984C167.905 64.6027 168.267 65.2 168.737 65.776C169.206 66.3307 169.611 66.7467 169.953 67.024C169.441 68.0907 168.811 68.8693 168.065 69.36C167.446 69.7653 166.785 70 166.081 70.064C165.697 70.1067 165.259 70.0747 164.769 69.968C164.278 69.8613 163.766 69.5627 163.233 69.072C162.721 68.56 162.209 67.7493 161.697 66.64C161.547 66.2773 161.217 66.0213 160.705 65.872C160.193 65.7227 159.649 65.6373 159.073 65.616C158.497 65.5733 158.027 65.552 157.665 65.552C157.302 65.552 156.854 65.5627 156.321 65.584C155.809 65.6053 155.339 65.6907 154.913 65.84C154.486 65.9893 154.23 66.256 154.145 66.64C154.059 66.9813 154.049 67.3333 154.113 67.696C154.177 68.0587 154.315 68.2933 154.529 68.4C154.166 68.7413 153.803 69.04 153.441 69.296C153.099 69.552 152.747 69.7547 152.385 69.904C151.937 70.096 151.467 70.192 150.977 70.192C150.507 70.192 149.974 70.0853 149.377 69.872C149.099 69.7653 148.811 69.5733 148.513 69.296C148.214 69.0187 148.011 68.6347 147.905 68.144C147.798 67.6533 147.883 67.0347 148.161 66.288C148.182 66.224 148.289 65.8827 148.481 65.264C148.673 64.6453 148.918 63.8347 149.217 62.832C149.537 61.808 149.878 60.6773 150.241 59.44C150.625 58.2027 151.009 56.9333 151.393 55.632C151.798 54.3093 152.182 53.04 152.545 51.824C152.929 50.608 153.27 49.5093 153.569 48.528C153.867 47.5467 154.102 46.768 154.273 46.192C154.443 45.616 154.529 45.328 154.529 45.328C154.721 45.2213 155.073 45.0933 155.585 44.944C156.118 44.7733 156.683 44.6773 157.281 44.656C157.942 44.6133 158.582 44.6987 159.201 44.912C159.841 45.1253 160.331 45.552 160.673 46.192C160.822 46.448 161.046 46.9387 161.345 47.664C161.643 48.3893 161.995 49.264 162.401 50.288C162.806 51.312 163.233 52.4107 163.681 53.584C164.129 54.736 164.566 55.888 164.993 57.04C165.441 58.1707 165.846 59.2267 166.209 60.208C166.571 61.1893 166.881 62.0213 167.137 62.704C167.393 63.3653 167.563 63.792 167.649 63.984ZM157.569 59.856C158.123 59.8133 158.443 59.6533 158.529 59.376C158.635 59.0987 158.699 58.7787 158.721 58.416C158.721 58.1813 158.678 57.8933 158.593 57.552C158.529 57.2107 158.422 56.912 158.273 56.656C158.145 56.3787 157.974 56.24 157.761 56.24C157.462 56.24 157.131 56.4533 156.769 56.88C156.427 57.2853 156.235 57.7013 156.193 58.128C156.129 58.5333 156.161 58.928 156.289 59.312C156.438 59.696 156.865 59.8773 157.569 59.856ZM176.594 70.288C175.676 70.1173 175.026 69.4987 174.642 68.432C174.279 67.3653 174.098 66.0427 174.098 64.464C174.098 64.272 174.087 63.792 174.066 63.024C174.066 62.256 174.055 61.3067 174.034 60.176C174.034 59.024 174.023 57.7867 174.002 56.464C174.002 55.1413 173.991 53.8187 173.97 52.496C173.948 51.1733 173.927 49.9573 173.906 48.848C173.884 47.7173 173.863 46.7893 173.842 46.064C173.82 45.3387 173.799 44.9013 173.778 44.752C174.098 44.688 174.588 44.6773 175.25 44.72C175.932 44.7413 176.636 44.848 177.362 45.04C178.108 45.2107 178.759 45.5093 179.314 45.936C179.868 46.3413 180.188 46.9067 180.274 47.632C180.316 47.9733 180.348 48.56 180.37 49.392C180.391 50.2027 180.402 51.1733 180.402 52.304C180.423 53.4133 180.434 54.5973 180.434 55.856C180.434 57.1147 180.434 58.3627 180.434 59.6C180.434 60.816 180.434 61.9467 180.434 62.992C180.434 64.016 180.434 64.88 180.434 65.584C180.455 66.2667 180.476 66.6827 180.498 66.832C180.54 67.28 180.626 67.6107 180.754 67.824C180.882 68.016 181.02 68.2613 181.17 68.56C180.636 69.136 179.975 69.6053 179.186 69.968C178.396 70.3307 177.532 70.4373 176.594 70.288ZM206.051 47.632C206.094 47.9947 206.115 48.6133 206.115 49.488C206.136 50.3413 206.147 51.3653 206.147 52.56C206.147 53.7547 206.147 55.0133 206.147 56.336C206.147 57.6587 206.136 58.9707 206.115 60.272C206.115 61.5733 206.104 62.7573 206.083 63.824C206.083 64.8907 206.083 65.7653 206.083 66.448C206.083 67.1093 206.094 67.4827 206.115 67.568C206.158 67.7387 206.126 68.016 206.019 68.4C205.912 68.7627 205.742 69.1147 205.507 69.456C205.272 69.776 204.974 69.968 204.611 70.032C204.27 70.1173 203.79 70.1173 203.171 70.032C202.574 69.968 201.966 69.808 201.347 69.552C200.75 69.2747 200.27 68.88 199.907 68.368C199.694 68.0693 199.363 67.6427 198.915 67.088C198.488 66.512 198.008 65.8933 197.475 65.232C196.963 64.5493 196.451 63.8987 195.939 63.28C195.448 62.64 195.032 62.096 194.691 61.648C194.35 61.1787 194.136 60.8907 194.051 60.784C193.859 60.4853 193.539 60.1867 193.091 59.888C192.664 59.568 192.323 59.4507 192.067 59.536C191.811 59.6213 191.619 59.888 191.491 60.336C191.363 60.7627 191.278 61.2213 191.235 61.712C191.192 62.032 191.171 62.5227 191.171 63.184C191.171 63.824 191.171 64.4853 191.171 65.168C191.192 65.8507 191.192 66.4053 191.171 66.832C191.15 67.5787 191.384 68.2933 191.875 68.976C191.704 69.0827 191.363 69.2533 190.851 69.488C190.339 69.7013 189.795 69.8933 189.219 70.064C188.643 70.2347 188.152 70.3093 187.747 70.288C187.064 70.2453 186.456 69.8933 185.923 69.232C185.411 68.5707 185.144 67.7493 185.123 66.768C185.123 66.576 185.112 66.0427 185.091 65.168C185.091 64.272 185.08 63.1627 185.059 61.84C185.059 60.5173 185.059 59.088 185.059 57.552C185.059 56.016 185.048 54.5013 185.027 53.008C185.027 51.4933 185.016 50.1173 184.995 48.88C184.995 47.6213 184.995 46.6187 184.995 45.872C184.995 45.1253 184.995 44.752 184.995 44.752C186.296 44.7093 187.395 44.8053 188.291 45.04C189.187 45.2747 189.934 45.7013 190.531 46.32C190.787 46.5547 191.16 46.9707 191.651 47.568C192.142 48.1653 192.675 48.848 193.251 49.616C193.848 50.3627 194.424 51.1093 194.979 51.856C195.555 52.6027 196.056 53.264 196.483 53.84C196.91 54.3947 197.187 54.7573 197.315 54.928C197.656 55.3547 197.998 55.696 198.339 55.952C198.702 56.1867 199 56.2613 199.235 56.176C199.747 56.0053 200.003 55.2907 200.003 54.032L199.939 44.752C200.174 44.7093 200.579 44.6987 201.155 44.72C201.752 44.7413 202.382 44.8373 203.043 45.008C203.768 45.1787 204.43 45.4667 205.027 45.872C205.624 46.2773 205.966 46.864 206.051 47.632Z" fill="#EF1313"/>
<path d="M143.48 100.64C143.501 101.067 143.555 101.483 143.64 101.888C143.747 102.293 143.875 102.592 144.024 102.784C143.832 102.976 143.533 103.2 143.128 103.456C142.744 103.712 142.296 103.915 141.784 104.064C141.293 104.235 140.771 104.309 140.216 104.288C139.384 104.245 138.712 103.893 138.2 103.232C137.709 102.571 137.453 101.749 137.432 100.768C137.432 100.576 137.432 100.224 137.432 99.712C137.432 99.1787 137.432 98.6133 137.432 98.016C137.432 97.4187 137.432 96.928 137.432 96.544C137.432 96.1813 137.336 95.8293 137.144 95.488C136.973 95.1467 136.771 94.944 136.536 94.88C136.216 94.7733 135.949 94.9653 135.736 95.456C135.693 95.5627 135.555 95.8293 135.32 96.256C135.085 96.6613 134.819 97.1413 134.52 97.696C134.243 98.2507 133.976 98.8053 133.72 99.36C133.485 99.9147 133.325 100.395 133.24 100.8C133.155 101.184 133.208 101.419 133.4 101.504C133.315 101.717 133.155 102.027 132.92 102.432C132.707 102.837 132.344 103.189 131.832 103.488C131.341 103.765 130.637 103.872 129.72 103.808C129.229 103.765 128.6 103.467 127.832 102.912C127.064 102.357 126.328 101.344 125.624 99.872C124.963 98.464 124.419 97.5147 123.992 97.024C123.587 96.512 123.288 96.2773 123.096 96.32C122.925 96.3413 122.787 96.4587 122.68 96.672C122.595 96.8853 122.509 97.184 122.424 97.568C122.381 97.76 122.36 98.08 122.36 98.528C122.36 98.976 122.381 99.4773 122.424 100.032C122.467 100.587 122.541 101.109 122.648 101.6C122.776 102.091 122.936 102.464 123.128 102.72C122.957 102.827 122.648 103.008 122.2 103.264C121.773 103.52 121.283 103.755 120.728 103.968C120.195 104.16 119.672 104.256 119.16 104.256C118.392 104.235 117.752 104.032 117.24 103.648C116.728 103.243 116.419 102.453 116.312 101.28C116.291 101.088 116.28 100.544 116.28 99.648C116.28 98.752 116.28 97.6213 116.28 96.256C116.28 94.8907 116.28 93.4293 116.28 91.872C116.28 90.2933 116.28 88.736 116.28 87.2C116.28 85.664 116.28 84.256 116.28 82.976C116.301 81.696 116.312 80.672 116.312 79.904C116.312 79.136 116.312 78.752 116.312 78.752C116.547 78.7093 116.941 78.6987 117.496 78.72C118.051 78.7413 118.659 78.8267 119.32 78.976C119.981 79.1253 120.589 79.3707 121.144 79.712C121.699 80.032 122.083 80.4907 122.296 81.088C122.296 81.088 122.392 81.2907 122.584 81.696C122.797 82.08 123.075 82.592 123.416 83.232C123.757 83.8507 124.12 84.5227 124.504 85.248C124.909 85.9733 125.293 86.688 125.656 87.392C126.04 88.096 126.371 88.7147 126.648 89.248C126.947 89.7813 127.149 90.1547 127.256 90.368C127.619 90.9867 127.96 91.4133 128.28 91.648C128.621 91.8827 128.984 92.0107 129.368 92.032C130.157 92.032 130.915 91.424 131.64 90.208C131.747 90.016 131.96 89.6107 132.28 88.992C132.6 88.352 132.973 87.5947 133.4 86.72C133.827 85.8453 134.264 84.9493 134.712 84.032C135.181 83.1147 135.608 82.2613 135.992 81.472C136.376 80.6613 136.685 80.0107 136.92 79.52C137.176 79.008 137.304 78.752 137.304 78.752C137.453 78.7307 137.667 78.72 137.944 78.72C138.243 78.6987 138.563 78.7093 138.904 78.752C139.501 78.7947 140.131 78.912 140.792 79.104C141.475 79.296 142.061 79.5947 142.552 80C143.064 80.4053 143.352 80.9493 143.416 81.632C143.459 81.9947 143.491 82.592 143.512 83.424C143.533 84.2347 143.544 85.2053 143.544 86.336C143.544 87.4453 143.544 88.6293 143.544 89.888C143.544 91.1467 143.533 92.384 143.512 93.6C143.512 94.816 143.501 95.936 143.48 96.96C143.48 97.984 143.48 98.8267 143.48 99.488C143.48 100.128 143.48 100.512 143.48 100.64ZM167.649 97.984C167.905 98.6027 168.267 99.2 168.737 99.776C169.206 100.331 169.611 100.747 169.953 101.024C169.441 102.091 168.811 102.869 168.065 103.36C167.446 103.765 166.785 104 166.081 104.064C165.697 104.107 165.259 104.075 164.769 103.968C164.278 103.861 163.766 103.563 163.233 103.072C162.721 102.56 162.209 101.749 161.697 100.64C161.547 100.277 161.217 100.021 160.705 99.872C160.193 99.7227 159.649 99.6373 159.073 99.616C158.497 99.5733 158.027 99.552 157.665 99.552C157.302 99.552 156.854 99.5627 156.321 99.584C155.809 99.6053 155.339 99.6907 154.913 99.84C154.486 99.9893 154.23 100.256 154.145 100.64C154.059 100.981 154.049 101.333 154.113 101.696C154.177 102.059 154.315 102.293 154.529 102.4C154.166 102.741 153.803 103.04 153.441 103.296C153.099 103.552 152.747 103.755 152.385 103.904C151.937 104.096 151.467 104.192 150.977 104.192C150.507 104.192 149.974 104.085 149.377 103.872C149.099 103.765 148.811 103.573 148.513 103.296C148.214 103.019 148.011 102.635 147.905 102.144C147.798 101.653 147.883 101.035 148.161 100.288C148.182 100.224 148.289 99.8827 148.481 99.264C148.673 98.6453 148.918 97.8347 149.217 96.832C149.537 95.808 149.878 94.6773 150.241 93.44C150.625 92.2027 151.009 90.9333 151.393 89.632C151.798 88.3093 152.182 87.04 152.545 85.824C152.929 84.608 153.27 83.5093 153.569 82.528C153.867 81.5467 154.102 80.768 154.273 80.192C154.443 79.616 154.529 79.328 154.529 79.328C154.721 79.2213 155.073 79.0933 155.585 78.944C156.118 78.7733 156.683 78.6773 157.281 78.656C157.942 78.6133 158.582 78.6987 159.201 78.912C159.841 79.1253 160.331 79.552 160.673 80.192C160.822 80.448 161.046 80.9387 161.345 81.664C161.643 82.3893 161.995 83.264 162.401 84.288C162.806 85.312 163.233 86.4107 163.681 87.584C164.129 88.736 164.566 89.888 164.993 91.04C165.441 92.1707 165.846 93.2267 166.209 94.208C166.571 95.1893 166.881 96.0213 167.137 96.704C167.393 97.3653 167.563 97.792 167.649 97.984ZM157.569 93.856C158.123 93.8133 158.443 93.6533 158.529 93.376C158.635 93.0987 158.699 92.7787 158.721 92.416C158.721 92.1813 158.678 91.8933 158.593 91.552C158.529 91.2107 158.422 90.912 158.273 90.656C158.145 90.3787 157.974 90.24 157.761 90.24C157.462 90.24 157.131 90.4533 156.769 90.88C156.427 91.2853 156.235 91.7013 156.193 92.128C156.129 92.5333 156.161 92.928 156.289 93.312C156.438 93.696 156.865 93.8773 157.569 93.856ZM191.41 93.856C191.324 93.8773 191.196 93.9947 191.026 94.208C190.876 94.4213 190.77 94.6453 190.706 94.88C190.599 95.2213 190.631 95.4987 190.802 95.712C191.25 96.2453 191.826 96.8747 192.53 97.6C193.234 98.304 193.938 98.976 194.642 99.616C195.367 100.256 195.986 100.747 196.498 101.088C196.114 102.112 195.506 102.933 194.674 103.552C193.863 104.149 192.956 104.437 191.954 104.416C190.951 104.395 189.97 103.947 189.01 103.072C188.882 102.944 188.636 102.667 188.274 102.24C187.911 101.792 187.495 101.269 187.026 100.672C186.556 100.075 186.087 99.4773 185.618 98.88C185.148 98.2827 184.743 97.76 184.402 97.312C184.06 96.864 183.847 96.5867 183.762 96.48C183.356 95.9467 182.972 95.8293 182.61 96.128C182.247 96.4267 182.023 97.0453 181.938 97.984C181.895 98.5387 181.895 99.1787 181.938 99.904C182.002 100.608 182.087 101.237 182.194 101.792C182.322 102.347 182.45 102.677 182.578 102.784C182.13 103.125 181.575 103.445 180.914 103.744C180.252 104.043 179.495 104.224 178.642 104.288C178.322 104.309 177.948 104.224 177.522 104.032C177.095 103.84 176.722 103.531 176.402 103.104C176.103 102.656 175.943 102.101 175.922 101.44C175.922 101.269 175.911 100.821 175.89 100.096C175.89 99.3707 175.879 98.4853 175.858 97.44C175.858 96.3733 175.858 95.2747 175.858 94.144C175.858 93.0133 175.847 91.9467 175.826 90.944C175.826 89.9413 175.826 89.1307 175.826 88.512C175.826 87.8933 175.826 87.584 175.826 87.584C175.826 86.3253 175.794 85.28 175.73 84.448C175.666 83.5947 175.41 82.944 174.962 82.496C174.556 82.0907 174.247 81.504 174.034 80.736C173.842 79.968 173.756 79.2427 173.778 78.56C173.863 78.5813 174.119 78.6133 174.546 78.656C174.972 78.6773 175.388 78.7093 175.794 78.752C176.071 78.752 176.466 78.752 176.978 78.752C177.511 78.7307 178.076 78.7093 178.674 78.688C179.271 78.6667 179.826 78.656 180.338 78.656C180.85 78.6347 181.234 78.6133 181.49 78.592C181.682 78.592 182.034 78.592 182.546 78.592C183.079 78.5707 183.698 78.56 184.402 78.56C185.106 78.56 185.82 78.5707 186.546 78.592C187.271 78.592 187.943 78.6133 188.562 78.656C189.18 78.6987 189.66 78.752 190.002 78.816C191.41 79.072 192.498 79.5413 193.266 80.224C194.034 80.9067 194.578 81.728 194.898 82.688C195.239 83.648 195.442 84.6933 195.506 85.824C195.548 86.784 195.442 87.7867 195.186 88.832C194.93 89.8773 194.492 90.848 193.874 91.744C193.255 92.64 192.434 93.344 191.41 93.856ZM182.002 86.976C182.002 87.6587 182.162 88.1707 182.482 88.512C182.802 88.832 183.1 89.024 183.378 89.088C183.762 89.1733 184.252 89.184 184.85 89.12C185.447 89.0347 186.044 88.8853 186.642 88.672C187.239 88.4373 187.74 88.1387 188.146 87.776C188.572 87.4133 188.786 86.9973 188.786 86.528C188.786 85.9093 188.53 85.44 188.018 85.12C187.506 84.7787 186.855 84.5653 186.066 84.48C185.298 84.3947 184.53 84.416 183.762 84.544C183.164 84.6293 182.716 84.896 182.418 85.344C182.119 85.792 181.98 86.336 182.002 86.976ZM218.707 98.592C219.645 99.4667 220.456 100.032 221.139 100.288C221.075 100.544 220.936 100.885 220.723 101.312C220.531 101.739 220.275 102.165 219.955 102.592C219.656 103.019 219.304 103.381 218.899 103.68C218.493 103.979 218.045 104.139 217.555 104.16C216.957 104.181 216.413 104.117 215.923 103.968C215.453 103.797 214.952 103.52 214.419 103.136C214.013 102.816 213.533 102.411 212.979 101.92C212.445 101.408 211.923 100.885 211.411 100.352C210.899 99.8187 210.493 99.3707 210.195 99.008C209.768 98.4533 209.309 97.984 208.819 97.6C208.328 97.216 207.784 97.0667 207.187 97.152C206.845 97.1733 206.632 97.2693 206.547 97.44C206.483 97.5893 206.419 97.8987 206.355 98.368C206.312 98.688 206.301 99.072 206.323 99.52C206.344 99.9467 206.376 100.352 206.419 100.736C206.483 101.12 206.515 101.397 206.515 101.568C206.515 101.952 206.589 102.251 206.739 102.464C206.888 102.656 207.037 102.837 207.187 103.008C206.824 103.285 206.259 103.584 205.491 103.904C204.723 104.224 203.869 104.384 202.931 104.384C202.312 104.384 201.821 104.139 201.459 103.648C201.117 103.157 200.872 102.56 200.723 101.856C200.573 101.152 200.488 100.469 200.467 99.808C200.467 99.616 200.456 99.0933 200.435 98.24C200.435 97.3867 200.424 96.3307 200.403 95.072C200.403 93.792 200.403 92.4267 200.403 90.976C200.403 89.504 200.392 88.0533 200.371 86.624C200.371 85.1733 200.36 83.8613 200.339 82.688C200.339 81.4933 200.339 80.544 200.339 79.84C200.339 79.1147 200.339 78.752 200.339 78.752C200.573 78.7093 200.979 78.6987 201.555 78.72C202.152 78.7413 202.771 78.8373 203.411 79.008C204.136 79.1787 204.797 79.4667 205.395 79.872C206.013 80.2773 206.365 80.864 206.451 81.632C206.493 82.1227 206.515 82.528 206.515 82.848C206.536 83.168 206.547 83.4987 206.547 83.84C206.547 84.9707 206.824 85.6853 207.379 85.984C207.997 86.304 208.84 86.0907 209.907 85.344C210.077 85.216 210.376 84.9707 210.803 84.608C211.229 84.224 211.72 83.776 212.275 83.264C212.829 82.752 213.405 82.2187 214.003 81.664C214.6 81.1093 215.144 80.5973 215.635 80.128C216.147 79.6373 216.563 79.2427 216.883 78.944C217.203 78.6453 217.363 78.496 217.363 78.496C217.555 78.6453 217.821 78.9973 218.163 79.552C218.525 80.1067 218.845 80.7253 219.123 81.408C219.4 82.0907 219.571 82.7947 219.635 83.52C219.72 84.224 219.581 84.8107 219.219 85.28C219.069 85.472 218.824 85.728 218.483 86.048C218.163 86.368 217.8 86.7093 217.395 87.072C217.011 87.4133 216.637 87.744 216.275 88.064C215.912 88.3627 215.635 88.5973 215.443 88.768C215.037 89.1093 214.696 89.536 214.419 90.048C214.163 90.5387 214.003 91.0507 213.939 91.584C213.875 92.1173 213.896 92.6507 214.003 93.184C214.109 93.7173 214.344 94.208 214.707 94.656C214.963 94.9547 215.347 95.36 215.859 95.872C216.371 96.3627 216.893 96.864 217.427 97.376C217.96 97.8667 218.387 98.272 218.707 98.592ZM238.306 98.176C238.604 98.1333 238.978 98.08 239.426 98.016C239.895 97.952 240.332 97.8773 240.738 97.792C241.164 97.6853 241.452 97.568 241.602 97.44C241.879 97.6747 242.06 98.1547 242.146 98.88C242.252 99.584 242.22 100.32 242.05 101.088C241.922 101.749 241.698 102.368 241.378 102.944C241.058 103.52 240.599 103.872 240.002 104C239.49 104.107 238.903 104.171 238.242 104.192C237.58 104.213 236.908 104.213 236.226 104.192C235.543 104.171 234.914 104.149 234.338 104.128C233.783 104.107 233.356 104.096 233.058 104.096C232.759 104.096 232.29 104.096 231.65 104.096C231.031 104.117 230.487 104.139 230.018 104.16C229.463 104.224 228.855 104.267 228.194 104.288C227.532 104.309 226.924 104.288 226.37 104.224C225.815 104.16 225.41 104.053 225.154 103.904C225.303 103.605 225.431 103.157 225.538 102.56C225.644 101.941 225.73 101.269 225.794 100.544C225.858 99.8187 225.879 99.1253 225.858 98.464L225.794 92.608V89.888C225.794 89.12 225.783 88.48 225.762 87.968C225.762 87.456 225.762 87.1787 225.762 87.136C225.762 86.432 225.73 85.6747 225.666 84.864C225.602 84.0533 225.527 83.2853 225.442 82.56C225.356 81.8133 225.282 81.2053 225.218 80.736C225.132 80.3733 225.068 80.0213 225.026 79.68C224.983 79.3173 224.972 78.9973 224.994 78.72C225.143 78.784 225.548 78.848 226.21 78.912C226.892 78.9547 227.682 78.9973 228.578 79.04C228.642 79.04 228.951 79.0507 229.506 79.072C230.06 79.072 230.743 79.0827 231.554 79.104C232.386 79.1253 233.239 79.1467 234.114 79.168C235.01 79.168 235.82 79.168 236.546 79.168C237.271 79.168 237.804 79.1573 238.146 79.136C239.02 79.0933 239.756 79.0293 240.354 78.944C240.972 78.8373 241.388 78.6987 241.602 78.528C241.858 78.7413 242.092 79.1467 242.306 79.744C242.54 80.32 242.668 80.928 242.69 81.568C242.69 82.1867 242.54 82.7733 242.242 83.328C241.964 83.8613 241.452 84.224 240.706 84.416C240.428 84.48 239.991 84.5333 239.394 84.576C238.818 84.6187 238.252 84.6507 237.698 84.672C237.164 84.672 236.78 84.6613 236.546 84.64C235.884 84.576 235.202 84.6507 234.498 84.864C233.794 85.056 233.196 85.3227 232.706 85.664C232.215 85.984 231.959 86.336 231.938 86.72C231.916 87.0827 232.066 87.3813 232.386 87.616C232.706 87.8507 233.122 88.0427 233.634 88.192C234.167 88.32 234.732 88.4053 235.33 88.448C235.927 88.4907 236.492 88.5013 237.026 88.48C237.452 88.4373 237.943 88.3627 238.498 88.256C239.052 88.1493 239.394 88.0427 239.522 87.936C239.799 88.1707 239.991 88.608 240.098 89.248C240.226 89.888 240.226 90.5493 240.098 91.232C239.991 91.7867 239.778 92.2987 239.458 92.768C239.138 93.2373 238.69 93.5573 238.114 93.728C237.666 93.856 237.282 93.9413 236.962 93.984C236.642 94.0053 236.482 94.016 236.482 94.016C235.223 94.016 234.156 94.24 233.282 94.688C232.428 95.1147 231.959 95.6267 231.874 96.224C231.788 96.736 231.895 97.2053 232.194 97.632C232.514 98.0587 232.972 98.2933 233.57 98.336C233.975 98.3573 234.487 98.368 235.106 98.368C235.746 98.3467 236.364 98.3253 236.962 98.304C237.58 98.2613 238.028 98.2187 238.306 98.176ZM267.036 78.24C267.292 78.4533 267.473 78.8693 267.58 79.488C267.708 80.1067 267.761 80.7787 267.74 81.504C267.718 82.208 267.612 82.848 267.42 83.424C267.228 83.9787 266.95 84.3093 266.588 84.416C266.438 84.4587 266.129 84.5227 265.66 84.608C265.212 84.672 264.796 84.7573 264.412 84.864C264.049 84.9707 263.569 85.152 262.972 85.408C262.374 85.664 261.862 86.0373 261.436 86.528C261.094 86.9333 260.817 87.36 260.604 87.808C260.39 88.2347 260.273 88.7893 260.252 89.472C260.23 89.7493 260.22 90.272 260.22 91.04C260.22 91.7867 260.22 92.6613 260.22 93.664C260.22 94.6453 260.22 95.616 260.22 96.576C260.241 97.536 260.252 98.3573 260.252 99.04C260.252 99.7227 260.252 100.128 260.252 100.256C260.23 100.896 260.294 101.44 260.444 101.888C260.593 102.336 260.753 102.603 260.924 102.688C260.39 103.093 259.857 103.435 259.324 103.712C258.812 103.989 258.076 104.192 257.116 104.32C256.753 104.363 256.348 104.256 255.9 104C255.452 103.765 255.057 103.392 254.716 102.88C254.396 102.347 254.225 101.696 254.204 100.928C254.204 100.16 254.193 99.1787 254.172 97.984C254.172 96.768 254.172 95.456 254.172 94.048C254.193 92.6187 254.193 91.1893 254.172 89.76C254.15 89.1413 254.054 88.5547 253.884 88C253.734 87.4453 253.478 86.9653 253.116 86.56C252.753 86.1333 252.273 85.7813 251.676 85.504C251.078 85.2267 250.332 85.0453 249.436 84.96C249.201 84.9387 248.881 84.8747 248.476 84.768C248.07 84.6613 247.793 84.5547 247.644 84.448C247.409 84.2773 247.217 83.9573 247.068 83.488C246.918 82.9973 246.801 82.464 246.716 81.888C246.63 81.2907 246.566 80.704 246.524 80.128C246.502 79.552 246.502 79.0827 246.524 78.72C246.609 78.7413 246.844 78.7733 247.228 78.816C247.633 78.8587 248.113 78.9013 248.668 78.944C249.222 78.9653 249.766 78.9867 250.3 79.008C250.684 79.0293 251.196 79.0507 251.836 79.072C252.497 79.0933 253.201 79.1147 253.948 79.136C254.694 79.1573 255.398 79.1787 256.06 79.2C256.721 79.2 257.265 79.2 257.692 79.2C258.268 79.1787 258.94 79.1573 259.708 79.136C260.476 79.1147 261.212 79.0933 261.916 79.072C262.641 79.0293 263.217 78.9867 263.644 78.944C264.07 78.9013 264.518 78.848 264.988 78.784C265.478 78.6987 265.905 78.6133 266.268 78.528C266.652 78.4213 266.908 78.3253 267.036 78.24ZM286.721 78.56C288.3 78.7947 289.548 79.2213 290.465 79.84C291.404 80.4373 292.097 81.1307 292.545 81.92C292.993 82.7093 293.281 83.488 293.409 84.256C293.537 85.0027 293.601 85.6427 293.601 86.176C293.601 86.8587 293.484 87.648 293.249 88.544C293.014 89.4187 292.62 90.2827 292.065 91.136C291.532 91.968 290.817 92.6933 289.921 93.312C289.025 93.9093 287.905 94.272 286.561 94.4C286.326 94.4213 286.028 94.4427 285.665 94.464C285.302 94.4853 284.972 94.5067 284.673 94.528C284.396 94.528 284.225 94.528 284.161 94.528C283.35 94.5707 282.604 94.8053 281.921 95.232C281.26 95.6587 280.726 96.2133 280.321 96.896C279.937 97.5573 279.734 98.304 279.713 99.136V100.32C279.713 100.875 279.788 101.387 279.937 101.856C280.086 102.304 280.204 102.613 280.289 102.784C279.777 103.253 279.329 103.584 278.945 103.776C278.561 103.968 278.081 104.107 277.505 104.192C277.036 104.256 276.513 104.213 275.937 104.064C275.382 103.915 274.881 103.637 274.433 103.232C273.985 102.805 273.697 102.219 273.569 101.472C273.548 101.344 273.537 100.939 273.537 100.256C273.537 99.552 273.537 98.688 273.537 97.664C273.558 96.6187 273.569 95.4773 273.569 94.24C273.59 93.0027 273.601 91.7653 273.601 90.528C273.601 89.2907 273.601 88.1387 273.601 87.072C273.58 85.92 273.526 84.9493 273.441 84.16C273.377 83.3707 273.217 82.8693 272.961 82.656C272.513 82.272 272.161 81.6747 271.905 80.864C271.67 80.0533 271.564 79.2853 271.585 78.56C271.67 78.5813 271.905 78.6133 272.289 78.656C272.673 78.6773 273.078 78.7093 273.505 78.752C273.718 78.752 274.07 78.752 274.561 78.752C275.052 78.7307 275.585 78.6987 276.161 78.656C276.758 78.6133 277.334 78.5813 277.889 78.56C278.444 78.5173 278.892 78.4853 279.233 78.464C279.702 78.4213 280.321 78.3787 281.089 78.336C281.878 78.2933 282.764 78.2827 283.745 78.304C284.726 78.3253 285.718 78.4107 286.721 78.56ZM282.913 88.544C283.212 88.5653 283.585 88.544 284.033 88.48C284.502 88.3947 284.972 88.2667 285.441 88.096C285.932 87.9253 286.337 87.6907 286.657 87.392C286.977 87.072 287.137 86.688 287.137 86.24C287.137 85.6213 286.902 85.1413 286.433 84.8C285.985 84.4587 285.43 84.224 284.769 84.096C284.129 83.968 283.51 83.9147 282.913 83.936C282.038 83.9573 281.292 84.2027 280.673 84.672C280.054 85.12 279.745 85.6533 279.745 86.272C279.766 86.6773 279.926 87.0507 280.225 87.392C280.545 87.712 280.94 87.9787 281.409 88.192C281.9 88.4053 282.401 88.5227 282.913 88.544ZM315.476 97.664C315.753 97.8987 315.934 98.368 316.02 99.072C316.126 99.7547 316.094 100.469 315.924 101.216C315.796 101.835 315.561 102.432 315.22 103.008C314.878 103.563 314.43 103.893 313.876 104C313.662 104.043 313.172 104.064 312.404 104.064C311.636 104.085 310.729 104.085 309.684 104.064C308.66 104.064 307.614 104.053 306.548 104.032C305.502 104.032 304.564 104.032 303.732 104.032C302.921 104.053 302.345 104.085 302.004 104.128C301.129 104.277 300.233 104.331 299.316 104.288C298.42 104.245 297.79 104.117 297.428 103.904C297.577 103.605 297.705 103.157 297.812 102.56C297.918 101.941 298.004 101.269 298.068 100.544C298.132 99.8187 298.153 99.1253 298.132 98.464L298.004 78.752C298.238 78.7093 298.644 78.6987 299.22 78.72C299.817 78.7413 300.446 78.8373 301.108 79.008C301.833 79.1787 302.484 79.4987 303.06 79.968C303.636 80.4373 303.988 81.0347 304.116 81.76C304.158 81.9947 304.19 82.464 304.212 83.168C304.233 83.8507 304.244 84.6613 304.244 85.6C304.265 86.5387 304.265 87.4987 304.244 88.48C304.244 89.4613 304.244 90.3787 304.244 91.232C304.244 92.0853 304.233 92.7787 304.212 93.312C304.212 93.8453 304.212 94.112 304.212 94.112C304.19 94.9227 304.276 95.6587 304.468 96.32C304.66 96.96 304.937 97.4613 305.3 97.824C305.577 98.1013 305.918 98.2933 306.324 98.4C306.729 98.5067 307.23 98.5813 307.828 98.624C308.084 98.6453 308.478 98.6453 309.012 98.624C309.566 98.6027 310.174 98.5707 310.836 98.528C311.497 98.464 312.148 98.3893 312.788 98.304C313.449 98.2187 314.025 98.1227 314.516 98.016C315.006 97.9093 315.326 97.792 315.476 97.664ZM339.702 97.984C339.958 98.6027 340.321 99.2 340.79 99.776C341.26 100.331 341.665 100.747 342.006 101.024C341.494 102.091 340.865 102.869 340.118 103.36C339.5 103.765 338.838 104 338.134 104.064C337.75 104.107 337.313 104.075 336.822 103.968C336.332 103.861 335.82 103.563 335.286 103.072C334.774 102.56 334.262 101.749 333.75 100.64C333.601 100.277 333.27 100.021 332.758 99.872C332.246 99.7227 331.702 99.6373 331.126 99.616C330.55 99.5733 330.081 99.552 329.718 99.552C329.356 99.552 328.908 99.5627 328.374 99.584C327.862 99.6053 327.393 99.6907 326.966 99.84C326.54 99.9893 326.284 100.256 326.198 100.64C326.113 100.981 326.102 101.333 326.166 101.696C326.23 102.059 326.369 102.293 326.582 102.4C326.22 102.741 325.857 103.04 325.494 103.296C325.153 103.552 324.801 103.755 324.438 103.904C323.99 104.096 323.521 104.192 323.03 104.192C322.561 104.192 322.028 104.085 321.43 103.872C321.153 103.765 320.865 103.573 320.566 103.296C320.268 103.019 320.065 102.635 319.958 102.144C319.852 101.653 319.937 101.035 320.214 100.288C320.236 100.224 320.342 99.8827 320.534 99.264C320.726 98.6453 320.972 97.8347 321.27 96.832C321.59 95.808 321.932 94.6773 322.294 93.44C322.678 92.2027 323.062 90.9333 323.446 89.632C323.852 88.3093 324.236 87.04 324.598 85.824C324.982 84.608 325.324 83.5093 325.622 82.528C325.921 81.5467 326.156 80.768 326.326 80.192C326.497 79.616 326.582 79.328 326.582 79.328C326.774 79.2213 327.126 79.0933 327.638 78.944C328.172 78.7733 328.737 78.6773 329.334 78.656C329.996 78.6133 330.636 78.6987 331.254 78.912C331.894 79.1253 332.385 79.552 332.726 80.192C332.876 80.448 333.1 80.9387 333.398 81.664C333.697 82.3893 334.049 83.264 334.454 84.288C334.86 85.312 335.286 86.4107 335.734 87.584C336.182 88.736 336.62 89.888 337.046 91.04C337.494 92.1707 337.9 93.2267 338.262 94.208C338.625 95.1893 338.934 96.0213 339.19 96.704C339.446 97.3653 339.617 97.792 339.702 97.984ZM329.622 93.856C330.177 93.8133 330.497 93.6533 330.582 93.376C330.689 93.0987 330.753 92.7787 330.774 92.416C330.774 92.1813 330.732 91.8933 330.646 91.552C330.582 91.2107 330.476 90.912 330.326 90.656C330.198 90.3787 330.028 90.24 329.814 90.24C329.516 90.24 329.185 90.4533 328.822 90.88C328.481 91.2853 328.289 91.7013 328.246 92.128C328.182 92.5333 328.214 92.928 328.342 93.312C328.492 93.696 328.918 93.8773 329.622 93.856ZM365.127 84.8C364.871 85.5893 364.477 86.1653 363.943 86.528C363.41 86.8907 362.855 87.04 362.279 86.976C361.703 86.8907 361.213 86.6027 360.807 86.112C361.17 85.8347 361.277 85.536 361.127 85.216C360.999 84.8747 360.669 84.5973 360.135 84.384C359.602 84.1493 358.919 84.064 358.087 84.128C357.234 84.1707 356.37 84.448 355.495 84.96C354.642 85.472 353.927 86.208 353.351 87.168C352.775 88.128 352.455 89.3227 352.391 90.752C352.327 92.224 352.477 93.4187 352.839 94.336C353.202 95.2533 353.65 95.9573 354.183 96.448C354.738 96.9173 355.293 97.2587 355.847 97.472C356.402 97.664 356.85 97.792 357.191 97.856C357.639 97.9413 358.151 98.0053 358.727 98.048C359.325 98.0693 359.922 98.0267 360.519 97.92C361.117 97.8133 361.629 97.632 362.055 97.376C362.439 97.1413 362.919 96.832 363.495 96.448C364.071 96.0427 364.626 95.5947 365.159 95.104C365.693 94.6133 366.087 94.112 366.343 93.6C367.069 94.0907 367.517 94.784 367.687 95.68C367.879 96.576 367.805 97.536 367.463 98.56C367.122 99.584 366.525 100.555 365.671 101.472C364.839 102.368 363.751 103.104 362.407 103.68C361.063 104.235 359.474 104.491 357.639 104.448C356.786 104.427 355.805 104.267 354.695 103.968C353.607 103.669 352.509 103.2 351.399 102.56C350.29 101.899 349.277 101.035 348.359 99.968C347.463 98.88 346.781 97.536 346.311 95.936C345.842 94.336 345.714 92.448 345.927 90.272C346.119 88.2027 346.631 86.4213 347.463 84.928C348.317 83.4347 349.351 82.2187 350.567 81.28C351.805 80.32 353.106 79.6053 354.471 79.136C355.858 78.6453 357.181 78.3893 358.439 78.368C359.698 78.3253 360.786 78.5173 361.703 78.944C362.642 79.3707 363.399 79.9253 363.975 80.608C364.551 81.2693 364.935 81.984 365.127 82.752C365.341 83.4987 365.341 84.1813 365.127 84.8ZM384.923 98.176C385.222 98.1333 385.595 98.08 386.043 98.016C386.513 97.952 386.95 97.8773 387.355 97.792C387.782 97.6853 388.07 97.568 388.219 97.44C388.497 97.6747 388.678 98.1547 388.763 98.88C388.87 99.584 388.838 100.32 388.667 101.088C388.539 101.749 388.315 102.368 387.995 102.944C387.675 103.52 387.217 103.872 386.619 104C386.107 104.107 385.521 104.171 384.859 104.192C384.198 104.213 383.526 104.213 382.843 104.192C382.161 104.171 381.531 104.149 380.955 104.128C380.401 104.107 379.974 104.096 379.675 104.096C379.377 104.096 378.907 104.096 378.267 104.096C377.649 104.117 377.105 104.139 376.635 104.16C376.081 104.224 375.473 104.267 374.811 104.288C374.15 104.309 373.542 104.288 372.987 104.224C372.433 104.16 372.027 104.053 371.771 103.904C371.921 103.605 372.049 103.157 372.155 102.56C372.262 101.941 372.347 101.269 372.411 100.544C372.475 99.8187 372.497 99.1253 372.475 98.464L372.411 92.608V89.888C372.411 89.12 372.401 88.48 372.379 87.968C372.379 87.456 372.379 87.1787 372.379 87.136C372.379 86.432 372.347 85.6747 372.283 84.864C372.219 84.0533 372.145 83.2853 372.059 82.56C371.974 81.8133 371.899 81.2053 371.835 80.736C371.75 80.3733 371.686 80.0213 371.643 79.68C371.601 79.3173 371.59 78.9973 371.611 78.72C371.761 78.784 372.166 78.848 372.827 78.912C373.51 78.9547 374.299 78.9973 375.195 79.04C375.259 79.04 375.569 79.0507 376.123 79.072C376.678 79.072 377.361 79.0827 378.171 79.104C379.003 79.1253 379.857 79.1467 380.731 79.168C381.627 79.168 382.438 79.168 383.163 79.168C383.889 79.168 384.422 79.1573 384.763 79.136C385.638 79.0933 386.374 79.0293 386.971 78.944C387.59 78.8373 388.006 78.6987 388.219 78.528C388.475 78.7413 388.71 79.1467 388.923 79.744C389.158 80.32 389.286 80.928 389.307 81.568C389.307 82.1867 389.158 82.7733 388.859 83.328C388.582 83.8613 388.07 84.224 387.323 84.416C387.046 84.48 386.609 84.5333 386.011 84.576C385.435 84.6187 384.87 84.6507 384.315 84.672C383.782 84.672 383.398 84.6613 383.163 84.64C382.502 84.576 381.819 84.6507 381.115 84.864C380.411 85.056 379.814 85.3227 379.323 85.664C378.833 85.984 378.577 86.336 378.555 86.72C378.534 87.0827 378.683 87.3813 379.003 87.616C379.323 87.8507 379.739 88.0427 380.251 88.192C380.785 88.32 381.35 88.4053 381.947 88.448C382.545 88.4907 383.11 88.5013 383.643 88.48C384.07 88.4373 384.561 88.3627 385.115 88.256C385.67 88.1493 386.011 88.0427 386.139 87.936C386.417 88.1707 386.609 88.608 386.715 89.248C386.843 89.888 386.843 90.5493 386.715 91.232C386.609 91.7867 386.395 92.2987 386.075 92.768C385.755 93.2373 385.307 93.5573 384.731 93.728C384.283 93.856 383.899 93.9413 383.579 93.984C383.259 94.0053 383.099 94.016 383.099 94.016C381.841 94.016 380.774 94.24 379.899 94.688C379.046 95.1147 378.577 95.6267 378.491 96.224C378.406 96.736 378.513 97.2053 378.811 97.632C379.131 98.0587 379.59 98.2933 380.187 98.336C380.593 98.3573 381.105 98.368 381.723 98.368C382.363 98.3467 382.982 98.3253 383.579 98.304C384.198 98.2613 384.646 98.2187 384.923 98.176Z" fill="#EF1313"/>
</svg>
