<svg width="402" height="152" viewBox="0 0 402 152" fill="none" xmlns="http://www.w3.org/2000/svg">
<rect width="402" height="152" fill="#F5F5F5"/>
<rect x="1" y="1" width="400" height="150" fill="white"/>
<rect x="19" y="32" width="90" height="87" fill="black"/>
<path d="M97.2 99.6C97.2533 100.667 97.3867 101.707 97.6 102.72C97.8667 103.733 98.1867 104.48 98.56 104.96C98.08 105.44 97.3333 106 96.32 106.64C95.36 107.28 94.24 107.787 92.96 108.16C91.7333 108.587 90.4267 108.773 89.04 108.72C86.96 108.613 85.28 107.733 84 106.08C82.7733 104.427 82.1333 102.373 82.08 99.92C82.08 99.44 82.08 98.56 82.08 97.28C82.08 95.9467 82.08 94.5333 82.08 93.04C82.08 91.5467 82.08 90.32 82.08 89.36C82.08 88.4533 81.84 87.5733 81.36 86.72C80.9333 85.8667 80.4267 85.36 79.84 85.2C79.04 84.9333 78.3733 85.4133 77.84 86.64C77.7333 86.9067 77.3867 87.5733 76.8 88.64C76.2133 89.6533 75.5467 90.8533 74.8 92.24C74.1067 93.6267 73.44 95.0133 72.8 96.4C72.2133 97.7867 71.8133 98.9867 71.6 100C71.3867 100.96 71.52 101.547 72 101.76C71.7867 102.293 71.3867 103.067 70.8 104.08C70.2667 105.093 69.36 105.973 68.08 106.72C66.8533 107.413 65.0933 107.68 62.8 107.52C61.5733 107.413 60 106.667 58.08 105.28C56.16 103.893 54.32 101.36 52.56 97.68C50.9067 94.16 49.5467 91.7867 48.48 90.56C47.4667 89.28 46.72 88.6933 46.24 88.8C45.8133 88.8533 45.4667 89.1467 45.2 89.68C44.9867 90.2133 44.7733 90.96 44.56 91.92C44.4533 92.4 44.4 93.2 44.4 94.32C44.4 95.44 44.4533 96.6933 44.56 98.08C44.6667 99.4667 44.8533 100.773 45.12 102C45.44 103.227 45.84 104.16 46.32 104.8C45.8933 105.067 45.12 105.52 44 106.16C42.9333 106.8 41.7067 107.387 40.32 107.92C38.9867 108.4 37.68 108.64 36.4 108.64C34.48 108.587 32.88 108.08 31.6 107.12C30.32 106.107 29.5467 104.133 29.28 101.2C29.2267 100.72 29.2 99.36 29.2 97.12C29.2 94.88 29.2 92.0533 29.2 88.64C29.2 85.2267 29.2 81.5733 29.2 77.68C29.2 73.7333 29.2 69.84 29.2 66C29.2 62.16 29.2 58.64 29.2 55.44C29.2533 52.24 29.28 49.68 29.28 47.76C29.28 45.84 29.28 44.88 29.28 44.88C29.8667 44.7733 30.8533 44.7467 32.24 44.8C33.6267 44.8533 35.1467 45.0667 36.8 45.44C38.4533 45.8133 39.9733 46.4267 41.36 47.28C42.7467 48.08 43.7067 49.2267 44.24 50.72C44.24 50.72 44.48 51.2267 44.96 52.24C45.4933 53.2 46.1867 54.48 47.04 56.08C47.8933 57.6267 48.8 59.3067 49.76 61.12C50.7733 62.9333 51.7333 64.72 52.64 66.48C53.6 68.24 54.4267 69.7867 55.12 71.12C55.8667 72.4533 56.3733 73.3867 56.64 73.92C57.5467 75.4667 58.4 76.5333 59.2 77.12C60.0533 77.7067 60.96 78.0267 61.92 78.08C63.8933 78.08 65.7867 76.56 67.6 73.52C67.8667 73.04 68.4 72.0267 69.2 70.48C70 68.88 70.9333 66.9867 72 64.8C73.0667 62.6133 74.16 60.3733 75.28 58.08C76.4533 55.7867 77.52 53.6533 78.48 51.68C79.44 49.6533 80.2133 48.0267 80.8 46.8C81.44 45.52 81.76 44.88 81.76 44.88C82.1333 44.8267 82.6667 44.8 83.36 44.8C84.1067 44.7467 84.9067 44.7733 85.76 44.88C87.2533 44.9867 88.8267 45.28 90.48 45.76C92.1867 46.24 93.6533 46.9867 94.88 48C96.16 49.0133 96.88 50.3733 97.04 52.08C97.1467 52.9867 97.2267 54.48 97.28 56.56C97.3333 58.5867 97.36 61.0133 97.36 63.84C97.36 66.6133 97.36 69.5733 97.36 72.72C97.36 75.8667 97.3333 78.96 97.28 82C97.28 85.04 97.2533 87.84 97.2 90.4C97.2 92.96 97.2 95.0667 97.2 96.72C97.2 98.32 97.2 99.28 97.2 99.6Z" fill="#EF1313"/>
<path d="M140.32 64.48C140.64 65.2533 141.093 66 141.68 66.72C142.267 67.4133 142.773 67.9333 143.2 68.28C142.56 69.6133 141.773 70.5867 140.84 71.2C140.067 71.7067 139.24 72 138.36 72.08C137.88 72.1333 137.333 72.0933 136.72 71.96C136.107 71.8267 135.467 71.4533 134.8 70.84C134.16 70.2 133.52 69.1867 132.88 67.8C132.693 67.3467 132.28 67.0267 131.64 66.84C131 66.6533 130.32 66.5467 129.6 66.52C128.88 66.4667 128.293 66.44 127.84 66.44C127.387 66.44 126.827 66.4533 126.16 66.48C125.52 66.5067 124.933 66.6133 124.4 66.8C123.867 66.9867 123.547 67.32 123.44 67.8C123.333 68.2267 123.32 68.6667 123.4 69.12C123.48 69.5733 123.653 69.8667 123.92 70C123.467 70.4267 123.013 70.8 122.56 71.12C122.133 71.44 121.693 71.6933 121.24 71.88C120.68 72.12 120.093 72.24 119.48 72.24C118.893 72.24 118.227 72.1067 117.48 71.84C117.133 71.7067 116.773 71.4667 116.4 71.12C116.027 70.7733 115.773 70.2933 115.64 69.68C115.507 69.0667 115.613 68.2933 115.96 67.36C115.987 67.28 116.12 66.8533 116.36 66.08C116.6 65.3067 116.907 64.2933 117.28 63.04C117.68 61.76 118.107 60.3467 118.56 58.8C119.04 57.2533 119.52 55.6667 120 54.04C120.507 52.3867 120.987 50.8 121.44 49.28C121.92 47.76 122.347 46.3867 122.72 45.16C123.093 43.9333 123.387 42.96 123.6 42.24C123.813 41.52 123.92 41.16 123.92 41.16C124.16 41.0267 124.6 40.8667 125.24 40.68C125.907 40.4667 126.613 40.3467 127.36 40.32C128.187 40.2667 128.987 40.3733 129.76 40.64C130.56 40.9067 131.173 41.44 131.6 42.24C131.787 42.56 132.067 43.1733 132.44 44.08C132.813 44.9867 133.253 46.08 133.76 47.36C134.267 48.64 134.8 50.0133 135.36 51.48C135.92 52.92 136.467 54.36 137 55.8C137.56 57.2133 138.067 58.5333 138.52 59.76C138.973 60.9867 139.36 62.0267 139.68 62.88C140 63.7067 140.213 64.24 140.32 64.48ZM127.72 59.32C128.413 59.2667 128.813 59.0667 128.92 58.72C129.053 58.3733 129.133 57.9733 129.16 57.52C129.16 57.2267 129.107 56.8667 129 56.44C128.92 56.0133 128.787 55.64 128.6 55.32C128.44 54.9733 128.227 54.8 127.96 54.8C127.587 54.8 127.173 55.0667 126.72 55.6C126.293 56.1067 126.053 56.6267 126 57.16C125.92 57.6667 125.96 58.16 126.12 58.64C126.307 59.12 126.84 59.3467 127.72 59.32ZM151.501 72.36C150.355 72.1467 149.541 71.3733 149.061 70.04C148.608 68.7067 148.381 67.0533 148.381 65.08C148.381 64.84 148.368 64.24 148.341 63.28C148.341 62.32 148.328 61.1333 148.301 59.72C148.301 58.28 148.288 56.7333 148.261 55.08C148.261 53.4267 148.248 51.7733 148.221 50.12C148.195 48.4667 148.168 46.9467 148.141 45.56C148.115 44.1467 148.088 42.9867 148.061 42.08C148.035 41.1733 148.008 40.6267 147.981 40.44C148.381 40.36 148.995 40.3467 149.821 40.4C150.675 40.4267 151.555 40.56 152.461 40.8C153.395 41.0133 154.208 41.3867 154.901 41.92C155.595 42.4267 155.995 43.1333 156.101 44.04C156.155 44.4667 156.195 45.2 156.221 46.24C156.248 47.2533 156.261 48.4667 156.261 49.88C156.288 51.2667 156.301 52.7467 156.301 54.32C156.301 55.8933 156.301 57.4533 156.301 59C156.301 60.52 156.301 61.9333 156.301 63.24C156.301 64.52 156.301 65.6 156.301 66.48C156.328 67.3333 156.355 67.8533 156.381 68.04C156.435 68.6 156.541 69.0133 156.701 69.28C156.861 69.52 157.035 69.8267 157.221 70.2C156.555 70.92 155.728 71.5067 154.741 71.96C153.755 72.4133 152.675 72.5467 151.501 72.36ZM188.323 44.04C188.376 44.4933 188.403 45.2667 188.403 46.36C188.43 47.4267 188.443 48.7067 188.443 50.2C188.443 51.6933 188.443 53.2667 188.443 54.92C188.443 56.5733 188.43 58.2133 188.403 59.84C188.403 61.4667 188.39 62.9467 188.363 64.28C188.363 65.6133 188.363 66.7067 188.363 67.56C188.363 68.3867 188.376 68.8533 188.403 68.96C188.456 69.1733 188.416 69.52 188.283 70C188.15 70.4533 187.936 70.8933 187.643 71.32C187.35 71.72 186.976 71.96 186.523 72.04C186.096 72.1467 185.496 72.1467 184.723 72.04C183.976 71.96 183.216 71.76 182.443 71.44C181.696 71.0933 181.096 70.6 180.643 69.96C180.376 69.5867 179.963 69.0533 179.403 68.36C178.87 67.64 178.27 66.8667 177.603 66.04C176.963 65.1867 176.323 64.3733 175.683 63.6C175.07 62.8 174.55 62.12 174.123 61.56C173.696 60.9733 173.43 60.6133 173.323 60.48C173.083 60.1067 172.683 59.7333 172.123 59.36C171.59 58.96 171.163 58.8133 170.843 58.92C170.523 59.0267 170.283 59.36 170.123 59.92C169.963 60.4533 169.856 61.0267 169.803 61.64C169.75 62.04 169.723 62.6533 169.723 63.48C169.723 64.28 169.723 65.1067 169.723 65.96C169.75 66.8133 169.75 67.5067 169.723 68.04C169.696 68.9733 169.99 69.8667 170.603 70.72C170.39 70.8533 169.963 71.0667 169.323 71.36C168.683 71.6267 168.003 71.8667 167.283 72.08C166.563 72.2933 165.95 72.3867 165.443 72.36C164.59 72.3067 163.83 71.8667 163.163 71.04C162.523 70.2133 162.19 69.1867 162.163 67.96C162.163 67.72 162.15 67.0533 162.123 65.96C162.123 64.84 162.11 63.4533 162.083 61.8C162.083 60.1467 162.083 58.36 162.083 56.44C162.083 54.52 162.07 52.6267 162.043 50.76C162.043 48.8667 162.03 47.1467 162.003 45.6C162.003 44.0267 162.003 42.7733 162.003 41.84C162.003 40.9067 162.003 40.44 162.003 40.44C163.63 40.3867 165.003 40.5067 166.123 40.8C167.243 41.0933 168.176 41.6267 168.923 42.4C169.243 42.6933 169.71 43.2133 170.323 43.96C170.936 44.7067 171.603 45.56 172.323 46.52C173.07 47.4533 173.79 48.3867 174.483 49.32C175.203 50.2533 175.83 51.08 176.363 51.8C176.896 52.4933 177.243 52.9467 177.403 53.16C177.83 53.6933 178.256 54.12 178.683 54.44C179.136 54.7333 179.51 54.8267 179.803 54.72C180.443 54.5067 180.763 53.6133 180.763 52.04L180.683 40.44C180.976 40.3867 181.483 40.3733 182.203 40.4C182.95 40.4267 183.736 40.5467 184.563 40.76C185.47 40.9733 186.296 41.3333 187.043 41.84C187.79 42.3467 188.216 43.08 188.323 44.04Z" fill="#EF1313"/>
<path d="M137.688 104.232C137.976 104.928 138.384 105.6 138.912 106.248C139.44 106.872 139.896 107.34 140.28 107.652C139.704 108.852 138.996 109.728 138.156 110.28C137.46 110.736 136.716 111 135.924 111.072C135.492 111.12 135 111.084 134.448 110.964C133.896 110.844 133.32 110.508 132.72 109.956C132.144 109.38 131.568 108.468 130.992 107.22C130.824 106.812 130.452 106.524 129.876 106.356C129.3 106.188 128.688 106.092 128.04 106.068C127.392 106.02 126.864 105.996 126.456 105.996C126.048 105.996 125.544 106.008 124.944 106.032C124.368 106.056 123.84 106.152 123.36 106.32C122.88 106.488 122.592 106.788 122.496 107.22C122.4 107.604 122.388 108 122.46 108.408C122.532 108.816 122.688 109.08 122.928 109.2C122.52 109.584 122.112 109.92 121.704 110.208C121.32 110.496 120.924 110.724 120.516 110.892C120.012 111.108 119.484 111.216 118.932 111.216C118.404 111.216 117.804 111.096 117.132 110.856C116.82 110.736 116.496 110.52 116.16 110.208C115.824 109.896 115.596 109.464 115.476 108.912C115.356 108.36 115.452 107.664 115.764 106.824C115.788 106.752 115.908 106.368 116.124 105.672C116.34 104.976 116.616 104.064 116.952 102.936C117.312 101.784 117.696 100.512 118.104 99.12C118.536 97.728 118.968 96.3 119.4 94.836C119.856 93.348 120.288 91.92 120.696 90.552C121.128 89.184 121.512 87.948 121.848 86.844C122.184 85.74 122.448 84.864 122.64 84.216C122.832 83.568 122.928 83.244 122.928 83.244C123.144 83.124 123.54 82.98 124.116 82.812C124.716 82.62 125.352 82.512 126.024 82.488C126.768 82.44 127.488 82.536 128.184 82.776C128.904 83.016 129.456 83.496 129.84 84.216C130.008 84.504 130.26 85.056 130.596 85.872C130.932 86.688 131.328 87.672 131.784 88.824C132.24 89.976 132.72 91.212 133.224 92.532C133.728 93.828 134.22 95.124 134.7 96.42C135.204 97.692 135.66 98.88 136.068 99.984C136.476 101.088 136.824 102.024 137.112 102.792C137.4 103.536 137.592 104.016 137.688 104.232ZM126.348 99.588C126.972 99.54 127.332 99.36 127.428 99.048C127.548 98.736 127.62 98.376 127.644 97.968C127.644 97.704 127.596 97.38 127.5 96.996C127.428 96.612 127.308 96.276 127.14 95.988C126.996 95.676 126.804 95.52 126.564 95.52C126.228 95.52 125.856 95.76 125.448 96.24C125.064 96.696 124.848 97.164 124.8 97.644C124.728 98.1 124.764 98.544 124.908 98.976C125.076 99.408 125.556 99.612 126.348 99.588ZM164.419 99.588C164.323 99.612 164.179 99.744 163.987 99.984C163.819 100.224 163.699 100.476 163.627 100.74C163.507 101.124 163.543 101.436 163.735 101.676C164.239 102.276 164.887 102.984 165.679 103.8C166.471 104.592 167.263 105.348 168.055 106.068C168.871 106.788 169.567 107.34 170.143 107.724C169.711 108.876 169.027 109.8 168.091 110.496C167.179 111.168 166.159 111.492 165.031 111.468C163.903 111.444 162.799 110.94 161.719 109.956C161.575 109.812 161.299 109.5 160.891 109.02C160.483 108.516 160.015 107.928 159.487 107.256C158.959 106.584 158.431 105.912 157.903 105.24C157.375 104.568 156.919 103.98 156.535 103.476C156.151 102.972 155.911 102.66 155.815 102.54C155.359 101.94 154.927 101.808 154.519 102.144C154.111 102.48 153.859 103.176 153.763 104.232C153.715 104.856 153.715 105.576 153.763 106.392C153.835 107.184 153.931 107.892 154.051 108.516C154.195 109.14 154.339 109.512 154.483 109.632C153.979 110.016 153.355 110.376 152.611 110.712C151.867 111.048 151.015 111.252 150.055 111.324C149.695 111.348 149.275 111.252 148.795 111.036C148.315 110.82 147.895 110.472 147.535 109.992C147.199 109.488 147.019 108.864 146.995 108.12C146.995 107.928 146.983 107.424 146.959 106.608C146.959 105.792 146.947 104.796 146.923 103.62C146.923 102.42 146.923 101.184 146.923 99.912C146.923 98.64 146.911 97.44 146.887 96.312C146.887 95.184 146.887 94.272 146.887 93.576C146.887 92.88 146.887 92.532 146.887 92.532C146.887 91.116 146.851 89.94 146.779 89.004C146.707 88.044 146.419 87.312 145.915 86.808C145.459 86.352 145.111 85.692 144.871 84.828C144.655 83.964 144.559 83.148 144.583 82.38C144.679 82.404 144.967 82.44 145.447 82.488C145.927 82.512 146.395 82.548 146.851 82.596C147.163 82.596 147.607 82.596 148.183 82.596C148.783 82.572 149.419 82.548 150.091 82.524C150.763 82.5 151.387 82.488 151.963 82.488C152.539 82.464 152.971 82.44 153.259 82.416C153.475 82.416 153.871 82.416 154.447 82.416C155.047 82.392 155.743 82.38 156.535 82.38C157.327 82.38 158.131 82.392 158.947 82.416C159.763 82.416 160.519 82.44 161.215 82.488C161.911 82.536 162.451 82.596 162.835 82.668C164.419 82.956 165.643 83.484 166.507 84.252C167.371 85.02 167.983 85.944 168.343 87.024C168.727 88.104 168.955 89.28 169.027 90.552C169.075 91.632 168.955 92.76 168.667 93.936C168.379 95.112 167.887 96.204 167.191 97.212C166.495 98.22 165.571 99.012 164.419 99.588ZM153.835 91.848C153.835 92.616 154.015 93.192 154.375 93.576C154.735 93.936 155.071 94.152 155.383 94.224C155.815 94.32 156.367 94.332 157.039 94.26C157.711 94.164 158.383 93.996 159.055 93.756C159.727 93.492 160.291 93.156 160.747 92.748C161.227 92.34 161.467 91.872 161.467 91.344C161.467 90.648 161.179 90.12 160.603 89.76C160.027 89.376 159.295 89.136 158.407 89.04C157.543 88.944 156.679 88.968 155.815 89.112C155.143 89.208 154.639 89.508 154.303 90.012C153.967 90.516 153.811 91.128 153.835 91.848ZM195.129 104.916C196.185 105.9 197.097 106.536 197.865 106.824C197.793 107.112 197.637 107.496 197.397 107.976C197.181 108.456 196.893 108.936 196.533 109.416C196.197 109.896 195.801 110.304 195.345 110.64C194.889 110.976 194.385 111.156 193.833 111.18C193.161 111.204 192.549 111.132 191.997 110.964C191.469 110.772 190.905 110.46 190.305 110.028C189.849 109.668 189.309 109.212 188.685 108.66C188.085 108.084 187.497 107.496 186.921 106.896C186.345 106.296 185.889 105.792 185.553 105.384C185.073 104.76 184.557 104.232 184.005 103.8C183.453 103.368 182.841 103.2 182.169 103.296C181.785 103.32 181.545 103.428 181.449 103.62C181.377 103.788 181.305 104.136 181.233 104.664C181.185 105.024 181.173 105.456 181.197 105.96C181.221 106.44 181.257 106.896 181.305 107.328C181.377 107.76 181.413 108.072 181.413 108.264C181.413 108.696 181.497 109.032 181.665 109.272C181.833 109.488 182.001 109.692 182.169 109.884C181.761 110.196 181.125 110.532 180.261 110.892C179.397 111.252 178.437 111.432 177.381 111.432C176.685 111.432 176.133 111.156 175.725 110.604C175.341 110.052 175.065 109.38 174.897 108.588C174.729 107.796 174.633 107.028 174.609 106.284C174.609 106.068 174.597 105.48 174.573 104.52C174.573 103.56 174.561 102.372 174.537 100.956C174.537 99.516 174.537 97.98 174.537 96.348C174.537 94.692 174.525 93.06 174.501 91.452C174.501 89.82 174.489 88.344 174.465 87.024C174.465 85.68 174.465 84.612 174.465 83.82C174.465 83.004 174.465 82.596 174.465 82.596C174.729 82.548 175.185 82.536 175.833 82.56C176.505 82.584 177.201 82.692 177.921 82.884C178.737 83.076 179.481 83.4 180.153 83.856C180.849 84.312 181.245 84.972 181.341 85.836C181.389 86.388 181.413 86.844 181.413 87.204C181.437 87.564 181.449 87.936 181.449 88.32C181.449 89.592 181.761 90.396 182.385 90.732C183.081 91.092 184.029 90.852 185.229 90.012C185.421 89.868 185.757 89.592 186.237 89.184C186.717 88.752 187.269 88.248 187.893 87.672C188.517 87.096 189.165 86.496 189.837 85.872C190.509 85.248 191.121 84.672 191.673 84.144C192.249 83.592 192.717 83.148 193.077 82.812C193.437 82.476 193.617 82.308 193.617 82.308C193.833 82.476 194.133 82.872 194.517 83.496C194.925 84.12 195.285 84.816 195.597 85.584C195.909 86.352 196.101 87.144 196.173 87.96C196.269 88.752 196.113 89.412 195.705 89.94C195.537 90.156 195.261 90.444 194.877 90.804C194.517 91.164 194.109 91.548 193.653 91.956C193.221 92.34 192.801 92.712 192.393 93.072C191.985 93.408 191.673 93.672 191.457 93.864C191.001 94.248 190.617 94.728 190.305 95.304C190.017 95.856 189.837 96.432 189.765 97.032C189.693 97.632 189.717 98.232 189.837 98.832C189.957 99.432 190.221 99.984 190.629 100.488C190.917 100.824 191.349 101.28 191.925 101.856C192.501 102.408 193.089 102.972 193.689 103.548C194.289 104.1 194.769 104.556 195.129 104.916ZM217.177 104.448C217.513 104.4 217.933 104.34 218.437 104.268C218.965 104.196 219.457 104.112 219.913 104.016C220.393 103.896 220.717 103.764 220.885 103.62C221.197 103.884 221.401 104.424 221.497 105.24C221.617 106.032 221.581 106.86 221.389 107.724C221.245 108.468 220.993 109.164 220.633 109.812C220.273 110.46 219.757 110.856 219.085 111C218.509 111.12 217.849 111.192 217.105 111.216C216.361 111.24 215.605 111.24 214.837 111.216C214.069 111.192 213.361 111.168 212.713 111.144C212.089 111.12 211.609 111.108 211.273 111.108C210.937 111.108 210.409 111.108 209.689 111.108C208.993 111.132 208.381 111.156 207.853 111.18C207.229 111.252 206.545 111.3 205.801 111.324C205.057 111.348 204.373 111.324 203.749 111.252C203.125 111.18 202.669 111.06 202.381 110.892C202.549 110.556 202.693 110.052 202.813 109.38C202.933 108.684 203.029 107.928 203.101 107.112C203.173 106.296 203.197 105.516 203.173 104.772L203.101 98.184V95.124C203.101 94.26 203.089 93.54 203.065 92.964C203.065 92.388 203.065 92.076 203.065 92.028C203.065 91.236 203.029 90.384 202.957 89.472C202.885 88.56 202.801 87.696 202.705 86.88C202.609 86.04 202.525 85.356 202.453 84.828C202.357 84.42 202.285 84.024 202.237 83.64C202.189 83.232 202.177 82.872 202.201 82.56C202.369 82.632 202.825 82.704 203.569 82.776C204.337 82.824 205.225 82.872 206.233 82.92C206.305 82.92 206.653 82.932 207.277 82.956C207.901 82.956 208.669 82.968 209.581 82.992C210.517 83.016 211.477 83.04 212.461 83.064C213.469 83.064 214.381 83.064 215.197 83.064C216.013 83.064 216.613 83.052 216.997 83.028C217.981 82.98 218.809 82.908 219.481 82.812C220.177 82.692 220.645 82.536 220.885 82.344C221.173 82.584 221.437 83.04 221.677 83.712C221.941 84.36 222.085 85.044 222.109 85.764C222.109 86.46 221.941 87.12 221.605 87.744C221.293 88.344 220.717 88.752 219.877 88.968C219.565 89.04 219.073 89.1 218.401 89.148C217.753 89.196 217.117 89.232 216.493 89.256C215.893 89.256 215.461 89.244 215.197 89.22C214.453 89.148 213.685 89.232 212.893 89.472C212.101 89.688 211.429 89.988 210.877 90.372C210.325 90.732 210.037 91.128 210.013 91.56C209.989 91.968 210.157 92.304 210.517 92.568C210.877 92.832 211.345 93.048 211.921 93.216C212.521 93.36 213.157 93.456 213.829 93.504C214.501 93.552 215.137 93.564 215.737 93.54C216.217 93.492 216.769 93.408 217.393 93.288C218.017 93.168 218.401 93.048 218.545 92.928C218.857 93.192 219.073 93.684 219.193 94.404C219.337 95.124 219.337 95.868 219.193 96.636C219.073 97.26 218.833 97.836 218.473 98.364C218.113 98.892 217.609 99.252 216.961 99.444C216.457 99.588 216.025 99.684 215.665 99.732C215.305 99.756 215.125 99.768 215.125 99.768C213.709 99.768 212.509 100.02 211.525 100.524C210.565 101.004 210.037 101.58 209.941 102.252C209.845 102.828 209.965 103.356 210.301 103.836C210.661 104.316 211.177 104.58 211.849 104.628C212.305 104.652 212.881 104.664 213.577 104.664C214.297 104.64 214.993 104.616 215.665 104.592C216.361 104.544 216.865 104.496 217.177 104.448ZM249.499 82.02C249.787 82.26 249.991 82.728 250.111 83.424C250.255 84.12 250.315 84.876 250.291 85.692C250.267 86.484 250.147 87.204 249.931 87.852C249.715 88.476 249.403 88.848 248.995 88.968C248.827 89.016 248.479 89.088 247.951 89.184C247.447 89.256 246.979 89.352 246.547 89.472C246.139 89.592 245.599 89.796 244.927 90.084C244.255 90.372 243.679 90.792 243.199 91.344C242.815 91.8 242.503 92.28 242.263 92.784C242.023 93.264 241.891 93.888 241.867 94.656C241.843 94.968 241.831 95.556 241.831 96.42C241.831 97.26 241.831 98.244 241.831 99.372C241.831 100.476 241.831 101.568 241.831 102.648C241.855 103.728 241.867 104.652 241.867 105.42C241.867 106.188 241.867 106.644 241.867 106.788C241.843 107.508 241.915 108.12 242.083 108.624C242.251 109.128 242.431 109.428 242.623 109.524C242.023 109.98 241.423 110.364 240.823 110.676C240.247 110.988 239.419 111.216 238.339 111.36C237.931 111.408 237.475 111.288 236.971 111C236.467 110.736 236.023 110.316 235.639 109.74C235.279 109.14 235.087 108.408 235.063 107.544C235.063 106.68 235.051 105.576 235.027 104.232C235.027 102.864 235.027 101.388 235.027 99.804C235.051 98.196 235.051 96.588 235.027 94.98C235.003 94.284 234.895 93.624 234.703 93C234.535 92.376 234.247 91.836 233.839 91.38C233.431 90.9 232.891 90.504 232.219 90.192C231.547 89.88 230.707 89.676 229.699 89.58C229.435 89.556 229.075 89.484 228.619 89.364C228.163 89.244 227.851 89.124 227.683 89.004C227.419 88.812 227.203 88.452 227.035 87.924C226.867 87.372 226.735 86.772 226.639 86.124C226.543 85.452 226.471 84.792 226.423 84.144C226.399 83.496 226.399 82.968 226.423 82.56C226.519 82.584 226.783 82.62 227.215 82.668C227.671 82.716 228.211 82.764 228.835 82.812C229.459 82.836 230.071 82.86 230.671 82.884C231.103 82.908 231.679 82.932 232.399 82.956C233.143 82.98 233.935 83.004 234.775 83.028C235.615 83.052 236.407 83.076 237.151 83.1C237.895 83.1 238.507 83.1 238.987 83.1C239.635 83.076 240.391 83.052 241.255 83.028C242.119 83.004 242.947 82.98 243.739 82.956C244.555 82.908 245.203 82.86 245.683 82.812C246.163 82.764 246.667 82.704 247.195 82.632C247.747 82.536 248.227 82.44 248.635 82.344C249.067 82.224 249.355 82.116 249.499 82.02ZM271.645 82.38C273.421 82.644 274.825 83.124 275.857 83.82C276.913 84.492 277.693 85.272 278.197 86.16C278.701 87.048 279.025 87.924 279.169 88.788C279.313 89.628 279.385 90.348 279.385 90.948C279.385 91.716 279.253 92.604 278.989 93.612C278.725 94.596 278.281 95.568 277.657 96.528C277.057 97.464 276.253 98.28 275.245 98.976C274.237 99.648 272.977 100.056 271.465 100.2C271.201 100.224 270.865 100.248 270.457 100.272C270.049 100.296 269.677 100.32 269.341 100.344C269.029 100.344 268.837 100.344 268.765 100.344C267.853 100.392 267.013 100.656 266.245 101.136C265.501 101.616 264.901 102.24 264.445 103.008C264.013 103.752 263.785 104.592 263.761 105.528V106.86C263.761 107.484 263.845 108.06 264.013 108.588C264.181 109.092 264.313 109.44 264.409 109.632C263.833 110.16 263.329 110.532 262.897 110.748C262.465 110.964 261.925 111.12 261.277 111.216C260.749 111.288 260.161 111.24 259.513 111.072C258.889 110.904 258.325 110.592 257.821 110.136C257.317 109.656 256.993 108.996 256.849 108.156C256.825 108.012 256.813 107.556 256.813 106.788C256.813 105.996 256.813 105.024 256.813 103.872C256.837 102.696 256.849 101.412 256.849 100.02C256.873 98.628 256.885 97.236 256.885 95.844C256.885 94.452 256.885 93.156 256.885 91.956C256.861 90.66 256.801 89.568 256.705 88.68C256.633 87.792 256.453 87.228 256.165 86.988C255.661 86.556 255.265 85.884 254.977 84.972C254.713 84.06 254.593 83.196 254.617 82.38C254.713 82.404 254.977 82.44 255.409 82.488C255.841 82.512 256.297 82.548 256.777 82.596C257.017 82.596 257.413 82.596 257.965 82.596C258.517 82.572 259.117 82.536 259.765 82.488C260.437 82.44 261.085 82.404 261.709 82.38C262.333 82.332 262.837 82.296 263.221 82.272C263.749 82.224 264.445 82.176 265.309 82.128C266.197 82.08 267.193 82.068 268.297 82.092C269.401 82.116 270.517 82.212 271.645 82.38ZM267.361 93.612C267.697 93.636 268.117 93.612 268.621 93.54C269.149 93.444 269.677 93.3 270.205 93.108C270.757 92.916 271.213 92.652 271.573 92.316C271.933 91.956 272.113 91.524 272.113 91.02C272.113 90.324 271.849 89.784 271.321 89.4C270.817 89.016 270.193 88.752 269.449 88.608C268.729 88.464 268.033 88.404 267.361 88.428C266.377 88.452 265.537 88.728 264.841 89.256C264.145 89.76 263.797 90.36 263.797 91.056C263.821 91.512 264.001 91.932 264.337 92.316C264.697 92.676 265.141 92.976 265.669 93.216C266.221 93.456 266.785 93.588 267.361 93.612ZM303.993 103.872C304.305 104.136 304.509 104.664 304.605 105.456C304.725 106.224 304.689 107.028 304.497 107.868C304.353 108.564 304.089 109.236 303.705 109.884C303.321 110.508 302.817 110.88 302.193 111C301.953 111.048 301.401 111.072 300.537 111.072C299.673 111.096 298.653 111.096 297.477 111.072C296.325 111.072 295.149 111.06 293.949 111.036C292.773 111.036 291.717 111.036 290.781 111.036C289.869 111.06 289.221 111.096 288.837 111.144C287.853 111.312 286.845 111.372 285.813 111.324C284.805 111.276 284.097 111.132 283.689 110.892C283.857 110.556 284.001 110.052 284.121 109.38C284.241 108.684 284.337 107.928 284.409 107.112C284.481 106.296 284.505 105.516 284.481 104.772L284.337 82.596C284.601 82.548 285.057 82.536 285.705 82.56C286.377 82.584 287.085 82.692 287.829 82.884C288.645 83.076 289.377 83.436 290.025 83.964C290.673 84.492 291.069 85.164 291.213 85.98C291.261 86.244 291.297 86.772 291.321 87.564C291.345 88.332 291.357 89.244 291.357 90.3C291.381 91.356 291.381 92.436 291.357 93.54C291.357 94.644 291.357 95.676 291.357 96.636C291.357 97.596 291.345 98.376 291.321 98.976C291.321 99.576 291.321 99.876 291.321 99.876C291.297 100.788 291.393 101.616 291.609 102.36C291.825 103.08 292.137 103.644 292.545 104.052C292.857 104.364 293.241 104.58 293.697 104.7C294.153 104.82 294.717 104.904 295.389 104.952C295.677 104.976 296.121 104.976 296.721 104.952C297.345 104.928 298.029 104.892 298.773 104.844C299.517 104.772 300.249 104.688 300.969 104.592C301.713 104.496 302.361 104.388 302.913 104.268C303.465 104.148 303.825 104.016 303.993 103.872ZM331.248 104.232C331.536 104.928 331.944 105.6 332.472 106.248C333 106.872 333.456 107.34 333.84 107.652C333.264 108.852 332.556 109.728 331.716 110.28C331.02 110.736 330.276 111 329.484 111.072C329.052 111.12 328.56 111.084 328.008 110.964C327.456 110.844 326.88 110.508 326.28 109.956C325.704 109.38 325.128 108.468 324.552 107.22C324.384 106.812 324.012 106.524 323.436 106.356C322.86 106.188 322.248 106.092 321.6 106.068C320.952 106.02 320.424 105.996 320.016 105.996C319.608 105.996 319.104 106.008 318.504 106.032C317.928 106.056 317.4 106.152 316.92 106.32C316.44 106.488 316.152 106.788 316.056 107.22C315.96 107.604 315.948 108 316.02 108.408C316.092 108.816 316.248 109.08 316.488 109.2C316.08 109.584 315.672 109.92 315.264 110.208C314.88 110.496 314.484 110.724 314.076 110.892C313.572 111.108 313.044 111.216 312.492 111.216C311.964 111.216 311.364 111.096 310.692 110.856C310.38 110.736 310.056 110.52 309.72 110.208C309.384 109.896 309.156 109.464 309.036 108.912C308.916 108.36 309.012 107.664 309.324 106.824C309.348 106.752 309.468 106.368 309.684 105.672C309.9 104.976 310.176 104.064 310.512 102.936C310.872 101.784 311.256 100.512 311.664 99.12C312.096 97.728 312.528 96.3 312.96 94.836C313.416 93.348 313.848 91.92 314.256 90.552C314.688 89.184 315.072 87.948 315.408 86.844C315.744 85.74 316.008 84.864 316.2 84.216C316.392 83.568 316.488 83.244 316.488 83.244C316.704 83.124 317.1 82.98 317.676 82.812C318.276 82.62 318.912 82.512 319.584 82.488C320.328 82.44 321.048 82.536 321.744 82.776C322.464 83.016 323.016 83.496 323.4 84.216C323.568 84.504 323.82 85.056 324.156 85.872C324.492 86.688 324.888 87.672 325.344 88.824C325.8 89.976 326.28 91.212 326.784 92.532C327.288 93.828 327.78 95.124 328.26 96.42C328.764 97.692 329.22 98.88 329.628 99.984C330.036 101.088 330.384 102.024 330.672 102.792C330.96 103.536 331.152 104.016 331.248 104.232ZM319.908 99.588C320.532 99.54 320.892 99.36 320.988 99.048C321.108 98.736 321.18 98.376 321.204 97.968C321.204 97.704 321.156 97.38 321.06 96.996C320.988 96.612 320.868 96.276 320.7 95.988C320.556 95.676 320.364 95.52 320.124 95.52C319.788 95.52 319.416 95.76 319.008 96.24C318.624 96.696 318.408 97.164 318.36 97.644C318.288 98.1 318.324 98.544 318.468 98.976C318.636 99.408 319.116 99.612 319.908 99.588ZM359.852 89.4C359.564 90.288 359.12 90.936 358.52 91.344C357.92 91.752 357.296 91.92 356.648 91.848C356 91.752 355.448 91.428 354.992 90.876C355.4 90.564 355.52 90.228 355.352 89.868C355.208 89.484 354.836 89.172 354.236 88.932C353.636 88.668 352.868 88.572 351.932 88.644C350.972 88.692 350 89.004 349.016 89.58C348.056 90.156 347.252 90.984 346.604 92.064C345.956 93.144 345.596 94.488 345.524 96.096C345.452 97.752 345.62 99.096 346.028 100.128C346.436 101.16 346.94 101.952 347.54 102.504C348.164 103.032 348.788 103.416 349.412 103.656C350.036 103.872 350.54 104.016 350.924 104.088C351.428 104.184 352.004 104.256 352.652 104.304C353.324 104.328 353.996 104.28 354.668 104.16C355.34 104.04 355.916 103.836 356.396 103.548C356.828 103.284 357.368 102.936 358.016 102.504C358.664 102.048 359.288 101.544 359.888 100.992C360.488 100.44 360.932 99.876 361.22 99.3C362.036 99.852 362.54 100.632 362.732 101.64C362.948 102.648 362.864 103.728 362.48 104.88C362.096 106.032 361.424 107.124 360.464 108.156C359.528 109.164 358.304 109.992 356.792 110.64C355.28 111.264 353.492 111.552 351.428 111.504C350.468 111.48 349.364 111.3 348.116 110.964C346.892 110.628 345.656 110.1 344.408 109.38C343.16 108.636 342.02 107.664 340.988 106.464C339.98 105.24 339.212 103.728 338.684 101.928C338.156 100.128 338.012 98.004 338.252 95.556C338.468 93.228 339.044 91.224 339.98 89.544C340.94 87.864 342.104 86.496 343.472 85.44C344.864 84.36 346.328 83.556 347.864 83.028C349.424 82.476 350.912 82.188 352.328 82.164C353.744 82.116 354.968 82.332 356 82.812C357.056 83.292 357.908 83.916 358.556 84.684C359.204 85.428 359.636 86.232 359.852 87.096C360.092 87.936 360.092 88.704 359.852 89.4ZM382.122 104.448C382.458 104.4 382.878 104.34 383.382 104.268C383.91 104.196 384.402 104.112 384.858 104.016C385.338 103.896 385.662 103.764 385.83 103.62C386.142 103.884 386.346 104.424 386.442 105.24C386.562 106.032 386.526 106.86 386.334 107.724C386.19 108.468 385.938 109.164 385.578 109.812C385.218 110.46 384.702 110.856 384.03 111C383.454 111.12 382.794 111.192 382.05 111.216C381.306 111.24 380.55 111.24 379.782 111.216C379.014 111.192 378.306 111.168 377.658 111.144C377.034 111.12 376.554 111.108 376.218 111.108C375.882 111.108 375.354 111.108 374.634 111.108C373.938 111.132 373.326 111.156 372.798 111.18C372.174 111.252 371.49 111.3 370.746 111.324C370.002 111.348 369.318 111.324 368.694 111.252C368.07 111.18 367.614 111.06 367.326 110.892C367.494 110.556 367.638 110.052 367.758 109.38C367.878 108.684 367.974 107.928 368.046 107.112C368.118 106.296 368.142 105.516 368.118 104.772L368.046 98.184V95.124C368.046 94.26 368.034 93.54 368.01 92.964C368.01 92.388 368.01 92.076 368.01 92.028C368.01 91.236 367.974 90.384 367.902 89.472C367.83 88.56 367.746 87.696 367.65 86.88C367.554 86.04 367.47 85.356 367.398 84.828C367.302 84.42 367.23 84.024 367.182 83.64C367.134 83.232 367.122 82.872 367.146 82.56C367.314 82.632 367.77 82.704 368.514 82.776C369.282 82.824 370.17 82.872 371.178 82.92C371.25 82.92 371.598 82.932 372.222 82.956C372.846 82.956 373.614 82.968 374.526 82.992C375.462 83.016 376.422 83.04 377.406 83.064C378.414 83.064 379.326 83.064 380.142 83.064C380.958 83.064 381.558 83.052 381.942 83.028C382.926 82.98 383.754 82.908 384.426 82.812C385.122 82.692 385.59 82.536 385.83 82.344C386.118 82.584 386.382 83.04 386.622 83.712C386.886 84.36 387.03 85.044 387.054 85.764C387.054 86.46 386.886 87.12 386.55 87.744C386.238 88.344 385.662 88.752 384.822 88.968C384.51 89.04 384.018 89.1 383.346 89.148C382.698 89.196 382.062 89.232 381.438 89.256C380.838 89.256 380.406 89.244 380.142 89.22C379.398 89.148 378.63 89.232 377.838 89.472C377.046 89.688 376.374 89.988 375.822 90.372C375.27 90.732 374.982 91.128 374.958 91.56C374.934 91.968 375.102 92.304 375.462 92.568C375.822 92.832 376.29 93.048 376.866 93.216C377.466 93.36 378.102 93.456 378.774 93.504C379.446 93.552 380.082 93.564 380.682 93.54C381.162 93.492 381.714 93.408 382.338 93.288C382.962 93.168 383.346 93.048 383.49 92.928C383.802 93.192 384.018 93.684 384.138 94.404C384.282 95.124 384.282 95.868 384.138 96.636C384.018 97.26 383.778 97.836 383.418 98.364C383.058 98.892 382.554 99.252 381.906 99.444C381.402 99.588 380.97 99.684 380.61 99.732C380.25 99.756 380.07 99.768 380.07 99.768C378.654 99.768 377.454 100.02 376.47 100.524C375.51 101.004 374.982 101.58 374.886 102.252C374.79 102.828 374.91 103.356 375.246 103.836C375.606 104.316 376.122 104.58 376.794 104.628C377.25 104.652 377.826 104.664 378.522 104.664C379.242 104.64 379.938 104.616 380.61 104.592C381.306 104.544 381.81 104.496 382.122 104.448Z" fill="#EF1313"/>
<rect x="1" y="1" width="400" height="150" stroke="black"/>
</svg>
