<svg width="400" height="150" viewBox="0 0 400 150" fill="none" xmlns="http://www.w3.org/2000/svg">
<rect width="400" height="150" fill="#F5F5F5"/>
<rect x="18" y="31" width="90" height="87" fill="black"/>
<path d="M96.2 98.6C96.2533 99.6667 96.3867 100.707 96.6 101.72C96.8667 102.733 97.1867 103.48 97.56 103.96C97.08 104.44 96.3333 105 95.32 105.64C94.36 106.28 93.24 106.787 91.96 107.16C90.7333 107.587 89.4267 107.773 88.04 107.72C85.96 107.613 84.28 106.733 83 105.08C81.7733 103.427 81.1333 101.373 81.08 98.92C81.08 98.44 81.08 97.56 81.08 96.28C81.08 94.9467 81.08 93.5333 81.08 92.04C81.08 90.5467 81.08 89.32 81.08 88.36C81.08 87.4533 80.84 86.5733 80.36 85.72C79.9333 84.8667 79.4267 84.36 78.84 84.2C78.04 83.9333 77.3733 84.4133 76.84 85.64C76.7333 85.9067 76.3867 86.5733 75.8 87.64C75.2133 88.6533 74.5467 89.8533 73.8 91.24C73.1067 92.6267 72.44 94.0133 71.8 95.4C71.2133 96.7867 70.8133 97.9867 70.6 99C70.3867 99.96 70.52 100.547 71 100.76C70.7867 101.293 70.3867 102.067 69.8 103.08C69.2667 104.093 68.36 104.973 67.08 105.72C65.8533 106.413 64.0933 106.68 61.8 106.52C60.5733 106.413 59 105.667 57.08 104.28C55.16 102.893 53.32 100.36 51.56 96.68C49.9067 93.16 48.5467 90.7867 47.48 89.56C46.4667 88.28 45.72 87.6933 45.24 87.8C44.8133 87.8533 44.4667 88.1467 44.2 88.68C43.9867 89.2133 43.7733 89.96 43.56 90.92C43.4533 91.4 43.4 92.2 43.4 93.32C43.4 94.44 43.4533 95.6933 43.56 97.08C43.6667 98.4667 43.8533 99.7733 44.12 101C44.44 102.227 44.84 103.16 45.32 103.8C44.8933 104.067 44.12 104.52 43 105.16C41.9333 105.8 40.7067 106.387 39.32 106.92C37.9867 107.4 36.68 107.64 35.4 107.64C33.48 107.587 31.88 107.08 30.6 106.12C29.32 105.107 28.5467 103.133 28.28 100.2C28.2267 99.72 28.2 98.36 28.2 96.12C28.2 93.88 28.2 91.0533 28.2 87.64C28.2 84.2267 28.2 80.5733 28.2 76.68C28.2 72.7333 28.2 68.84 28.2 65C28.2 61.16 28.2 57.64 28.2 54.44C28.2533 51.24 28.28 48.68 28.28 46.76C28.28 44.84 28.28 43.88 28.28 43.88C28.8667 43.7733 29.8533 43.7467 31.24 43.8C32.6267 43.8533 34.1467 44.0667 35.8 44.44C37.4533 44.8133 38.9733 45.4267 40.36 46.28C41.7467 47.08 42.7067 48.2267 43.24 49.72C43.24 49.72 43.48 50.2267 43.96 51.24C44.4933 52.2 45.1867 53.48 46.04 55.08C46.8933 56.6267 47.8 58.3067 48.76 60.12C49.7733 61.9333 50.7333 63.72 51.64 65.48C52.6 67.24 53.4267 68.7867 54.12 70.12C54.8667 71.4533 55.3733 72.3867 55.64 72.92C56.5467 74.4667 57.4 75.5333 58.2 76.12C59.0533 76.7067 59.96 77.0267 60.92 77.08C62.8933 77.08 64.7867 75.56 66.6 72.52C66.8667 72.04 67.4 71.0267 68.2 69.48C69 67.88 69.9333 65.9867 71 63.8C72.0667 61.6133 73.16 59.3733 74.28 57.08C75.4533 54.7867 76.52 52.6533 77.48 50.68C78.44 48.6533 79.2133 47.0267 79.8 45.8C80.44 44.52 80.76 43.88 80.76 43.88C81.1333 43.8267 81.6667 43.8 82.36 43.8C83.1067 43.7467 83.9067 43.7733 84.76 43.88C86.2533 43.9867 87.8267 44.28 89.48 44.76C91.1867 45.24 92.6533 45.9867 93.88 47C95.16 48.0133 95.88 49.3733 96.04 51.08C96.1467 51.9867 96.2267 53.48 96.28 55.56C96.3333 57.5867 96.36 60.0133 96.36 62.84C96.36 65.6133 96.36 68.5733 96.36 71.72C96.36 74.8667 96.3333 77.96 96.28 81C96.28 84.04 96.2533 86.84 96.2 89.4C96.2 91.96 96.2 94.0667 96.2 95.72C96.2 97.32 96.2 98.28 96.2 98.6Z" fill="#EF1313"/>
<path d="M139.32 63.48C139.64 64.2533 140.093 65 140.68 65.72C141.267 66.4133 141.773 66.9333 142.2 67.28C141.56 68.6133 140.773 69.5867 139.84 70.2C139.067 70.7067 138.24 71 137.36 71.08C136.88 71.1333 136.333 71.0933 135.72 70.96C135.107 70.8267 134.467 70.4533 133.8 69.84C133.16 69.2 132.52 68.1867 131.88 66.8C131.693 66.3467 131.28 66.0267 130.64 65.84C130 65.6533 129.32 65.5467 128.6 65.52C127.88 65.4667 127.293 65.44 126.84 65.44C126.387 65.44 125.827 65.4533 125.16 65.48C124.52 65.5067 123.933 65.6133 123.4 65.8C122.867 65.9867 122.547 66.32 122.44 66.8C122.333 67.2267 122.32 67.6667 122.4 68.12C122.48 68.5733 122.653 68.8667 122.92 69C122.467 69.4267 122.013 69.8 121.56 70.12C121.133 70.44 120.693 70.6933 120.24 70.88C119.68 71.12 119.093 71.24 118.48 71.24C117.893 71.24 117.227 71.1067 116.48 70.84C116.133 70.7067 115.773 70.4667 115.4 70.12C115.027 69.7733 114.773 69.2933 114.64 68.68C114.507 68.0667 114.613 67.2933 114.96 66.36C114.987 66.28 115.12 65.8533 115.36 65.08C115.6 64.3067 115.907 63.2933 116.28 62.04C116.68 60.76 117.107 59.3467 117.56 57.8C118.04 56.2533 118.52 54.6667 119 53.04C119.507 51.3867 119.987 49.8 120.44 48.28C120.92 46.76 121.347 45.3867 121.72 44.16C122.093 42.9333 122.387 41.96 122.6 41.24C122.813 40.52 122.92 40.16 122.92 40.16C123.16 40.0267 123.6 39.8667 124.24 39.68C124.907 39.4667 125.613 39.3467 126.36 39.32C127.187 39.2667 127.987 39.3733 128.76 39.64C129.56 39.9067 130.173 40.44 130.6 41.24C130.787 41.56 131.067 42.1733 131.44 43.08C131.813 43.9867 132.253 45.08 132.76 46.36C133.267 47.64 133.8 49.0133 134.36 50.48C134.92 51.92 135.467 53.36 136 54.8C136.56 56.2133 137.067 57.5333 137.52 58.76C137.973 59.9867 138.36 61.0267 138.68 61.88C139 62.7067 139.213 63.24 139.32 63.48ZM126.72 58.32C127.413 58.2667 127.813 58.0667 127.92 57.72C128.053 57.3733 128.133 56.9733 128.16 56.52C128.16 56.2267 128.107 55.8667 128 55.44C127.92 55.0133 127.787 54.64 127.6 54.32C127.44 53.9733 127.227 53.8 126.96 53.8C126.587 53.8 126.173 54.0667 125.72 54.6C125.293 55.1067 125.053 55.6267 125 56.16C124.92 56.6667 124.96 57.16 125.12 57.64C125.307 58.12 125.84 58.3467 126.72 58.32ZM150.501 71.36C149.355 71.1467 148.541 70.3733 148.061 69.04C147.608 67.7067 147.381 66.0533 147.381 64.08C147.381 63.84 147.368 63.24 147.341 62.28C147.341 61.32 147.328 60.1333 147.301 58.72C147.301 57.28 147.288 55.7333 147.261 54.08C147.261 52.4267 147.248 50.7733 147.221 49.12C147.195 47.4667 147.168 45.9467 147.141 44.56C147.115 43.1467 147.088 41.9867 147.061 41.08C147.035 40.1733 147.008 39.6267 146.981 39.44C147.381 39.36 147.995 39.3467 148.821 39.4C149.675 39.4267 150.555 39.56 151.461 39.8C152.395 40.0133 153.208 40.3867 153.901 40.92C154.595 41.4267 154.995 42.1333 155.101 43.04C155.155 43.4667 155.195 44.2 155.221 45.24C155.248 46.2533 155.261 47.4667 155.261 48.88C155.288 50.2667 155.301 51.7467 155.301 53.32C155.301 54.8933 155.301 56.4533 155.301 58C155.301 59.52 155.301 60.9333 155.301 62.24C155.301 63.52 155.301 64.6 155.301 65.48C155.328 66.3333 155.355 66.8533 155.381 67.04C155.435 67.6 155.541 68.0133 155.701 68.28C155.861 68.52 156.035 68.8267 156.221 69.2C155.555 69.92 154.728 70.5067 153.741 70.96C152.755 71.4133 151.675 71.5467 150.501 71.36ZM187.323 43.04C187.376 43.4933 187.403 44.2667 187.403 45.36C187.43 46.4267 187.443 47.7067 187.443 49.2C187.443 50.6933 187.443 52.2667 187.443 53.92C187.443 55.5733 187.43 57.2133 187.403 58.84C187.403 60.4667 187.39 61.9467 187.363 63.28C187.363 64.6133 187.363 65.7067 187.363 66.56C187.363 67.3867 187.376 67.8533 187.403 67.96C187.456 68.1733 187.416 68.52 187.283 69C187.15 69.4533 186.936 69.8933 186.643 70.32C186.35 70.72 185.976 70.96 185.523 71.04C185.096 71.1467 184.496 71.1467 183.723 71.04C182.976 70.96 182.216 70.76 181.443 70.44C180.696 70.0933 180.096 69.6 179.643 68.96C179.376 68.5867 178.963 68.0533 178.403 67.36C177.87 66.64 177.27 65.8667 176.603 65.04C175.963 64.1867 175.323 63.3733 174.683 62.6C174.07 61.8 173.55 61.12 173.123 60.56C172.696 59.9733 172.43 59.6133 172.323 59.48C172.083 59.1067 171.683 58.7333 171.123 58.36C170.59 57.96 170.163 57.8133 169.843 57.92C169.523 58.0267 169.283 58.36 169.123 58.92C168.963 59.4533 168.856 60.0267 168.803 60.64C168.75 61.04 168.723 61.6533 168.723 62.48C168.723 63.28 168.723 64.1067 168.723 64.96C168.75 65.8133 168.75 66.5067 168.723 67.04C168.696 67.9733 168.99 68.8667 169.603 69.72C169.39 69.8533 168.963 70.0667 168.323 70.36C167.683 70.6267 167.003 70.8667 166.283 71.08C165.563 71.2933 164.95 71.3867 164.443 71.36C163.59 71.3067 162.83 70.8667 162.163 70.04C161.523 69.2133 161.19 68.1867 161.163 66.96C161.163 66.72 161.15 66.0533 161.123 64.96C161.123 63.84 161.11 62.4533 161.083 60.8C161.083 59.1467 161.083 57.36 161.083 55.44C161.083 53.52 161.07 51.6267 161.043 49.76C161.043 47.8667 161.03 46.1467 161.003 44.6C161.003 43.0267 161.003 41.7733 161.003 40.84C161.003 39.9067 161.003 39.44 161.003 39.44C162.63 39.3867 164.003 39.5067 165.123 39.8C166.243 40.0933 167.176 40.6267 167.923 41.4C168.243 41.6933 168.71 42.2133 169.323 42.96C169.936 43.7067 170.603 44.56 171.323 45.52C172.07 46.4533 172.79 47.3867 173.483 48.32C174.203 49.2533 174.83 50.08 175.363 50.8C175.896 51.4933 176.243 51.9467 176.403 52.16C176.83 52.6933 177.256 53.12 177.683 53.44C178.136 53.7333 178.51 53.8267 178.803 53.72C179.443 53.5067 179.763 52.6133 179.763 51.04L179.683 39.44C179.976 39.3867 180.483 39.3733 181.203 39.4C181.95 39.4267 182.736 39.5467 183.563 39.76C184.47 39.9733 185.296 40.3333 186.043 40.84C186.79 41.3467 187.216 42.08 187.323 43.04Z" fill="#EF1313"/>
<path d="M136.688 103.232C136.976 103.928 137.384 104.6 137.912 105.248C138.44 105.872 138.896 106.34 139.28 106.652C138.704 107.852 137.996 108.728 137.156 109.28C136.46 109.736 135.716 110 134.924 110.072C134.492 110.12 134 110.084 133.448 109.964C132.896 109.844 132.32 109.508 131.72 108.956C131.144 108.38 130.568 107.468 129.992 106.22C129.824 105.812 129.452 105.524 128.876 105.356C128.3 105.188 127.688 105.092 127.04 105.068C126.392 105.02 125.864 104.996 125.456 104.996C125.048 104.996 124.544 105.008 123.944 105.032C123.368 105.056 122.84 105.152 122.36 105.32C121.88 105.488 121.592 105.788 121.496 106.22C121.4 106.604 121.388 107 121.46 107.408C121.532 107.816 121.688 108.08 121.928 108.2C121.52 108.584 121.112 108.92 120.704 109.208C120.32 109.496 119.924 109.724 119.516 109.892C119.012 110.108 118.484 110.216 117.932 110.216C117.404 110.216 116.804 110.096 116.132 109.856C115.82 109.736 115.496 109.52 115.16 109.208C114.824 108.896 114.596 108.464 114.476 107.912C114.356 107.36 114.452 106.664 114.764 105.824C114.788 105.752 114.908 105.368 115.124 104.672C115.34 103.976 115.616 103.064 115.952 101.936C116.312 100.784 116.696 99.512 117.104 98.12C117.536 96.728 117.968 95.3 118.4 93.836C118.856 92.348 119.288 90.92 119.696 89.552C120.128 88.184 120.512 86.948 120.848 85.844C121.184 84.74 121.448 83.864 121.64 83.216C121.832 82.568 121.928 82.244 121.928 82.244C122.144 82.124 122.54 81.98 123.116 81.812C123.716 81.62 124.352 81.512 125.024 81.488C125.768 81.44 126.488 81.536 127.184 81.776C127.904 82.016 128.456 82.496 128.84 83.216C129.008 83.504 129.26 84.056 129.596 84.872C129.932 85.688 130.328 86.672 130.784 87.824C131.24 88.976 131.72 90.212 132.224 91.532C132.728 92.828 133.22 94.124 133.7 95.42C134.204 96.692 134.66 97.88 135.068 98.984C135.476 100.088 135.824 101.024 136.112 101.792C136.4 102.536 136.592 103.016 136.688 103.232ZM125.348 98.588C125.972 98.54 126.332 98.36 126.428 98.048C126.548 97.736 126.62 97.376 126.644 96.968C126.644 96.704 126.596 96.38 126.5 95.996C126.428 95.612 126.308 95.276 126.14 94.988C125.996 94.676 125.804 94.52 125.564 94.52C125.228 94.52 124.856 94.76 124.448 95.24C124.064 95.696 123.848 96.164 123.8 96.644C123.728 97.1 123.764 97.544 123.908 97.976C124.076 98.408 124.556 98.612 125.348 98.588ZM163.419 98.588C163.323 98.612 163.179 98.744 162.987 98.984C162.819 99.224 162.699 99.476 162.627 99.74C162.507 100.124 162.543 100.436 162.735 100.676C163.239 101.276 163.887 101.984 164.679 102.8C165.471 103.592 166.263 104.348 167.055 105.068C167.871 105.788 168.567 106.34 169.143 106.724C168.711 107.876 168.027 108.8 167.091 109.496C166.179 110.168 165.159 110.492 164.031 110.468C162.903 110.444 161.799 109.94 160.719 108.956C160.575 108.812 160.299 108.5 159.891 108.02C159.483 107.516 159.015 106.928 158.487 106.256C157.959 105.584 157.431 104.912 156.903 104.24C156.375 103.568 155.919 102.98 155.535 102.476C155.151 101.972 154.911 101.66 154.815 101.54C154.359 100.94 153.927 100.808 153.519 101.144C153.111 101.48 152.859 102.176 152.763 103.232C152.715 103.856 152.715 104.576 152.763 105.392C152.835 106.184 152.931 106.892 153.051 107.516C153.195 108.14 153.339 108.512 153.483 108.632C152.979 109.016 152.355 109.376 151.611 109.712C150.867 110.048 150.015 110.252 149.055 110.324C148.695 110.348 148.275 110.252 147.795 110.036C147.315 109.82 146.895 109.472 146.535 108.992C146.199 108.488 146.019 107.864 145.995 107.12C145.995 106.928 145.983 106.424 145.959 105.608C145.959 104.792 145.947 103.796 145.923 102.62C145.923 101.42 145.923 100.184 145.923 98.912C145.923 97.64 145.911 96.44 145.887 95.312C145.887 94.184 145.887 93.272 145.887 92.576C145.887 91.88 145.887 91.532 145.887 91.532C145.887 90.116 145.851 88.94 145.779 88.004C145.707 87.044 145.419 86.312 144.915 85.808C144.459 85.352 144.111 84.692 143.871 83.828C143.655 82.964 143.559 82.148 143.583 81.38C143.679 81.404 143.967 81.44 144.447 81.488C144.927 81.512 145.395 81.548 145.851 81.596C146.163 81.596 146.607 81.596 147.183 81.596C147.783 81.572 148.419 81.548 149.091 81.524C149.763 81.5 150.387 81.488 150.963 81.488C151.539 81.464 151.971 81.44 152.259 81.416C152.475 81.416 152.871 81.416 153.447 81.416C154.047 81.392 154.743 81.38 155.535 81.38C156.327 81.38 157.131 81.392 157.947 81.416C158.763 81.416 159.519 81.44 160.215 81.488C160.911 81.536 161.451 81.596 161.835 81.668C163.419 81.956 164.643 82.484 165.507 83.252C166.371 84.02 166.983 84.944 167.343 86.024C167.727 87.104 167.955 88.28 168.027 89.552C168.075 90.632 167.955 91.76 167.667 92.936C167.379 94.112 166.887 95.204 166.191 96.212C165.495 97.22 164.571 98.012 163.419 98.588ZM152.835 90.848C152.835 91.616 153.015 92.192 153.375 92.576C153.735 92.936 154.071 93.152 154.383 93.224C154.815 93.32 155.367 93.332 156.039 93.26C156.711 93.164 157.383 92.996 158.055 92.756C158.727 92.492 159.291 92.156 159.747 91.748C160.227 91.34 160.467 90.872 160.467 90.344C160.467 89.648 160.179 89.12 159.603 88.76C159.027 88.376 158.295 88.136 157.407 88.04C156.543 87.944 155.679 87.968 154.815 88.112C154.143 88.208 153.639 88.508 153.303 89.012C152.967 89.516 152.811 90.128 152.835 90.848ZM194.129 103.916C195.185 104.9 196.097 105.536 196.865 105.824C196.793 106.112 196.637 106.496 196.397 106.976C196.181 107.456 195.893 107.936 195.533 108.416C195.197 108.896 194.801 109.304 194.345 109.64C193.889 109.976 193.385 110.156 192.833 110.18C192.161 110.204 191.549 110.132 190.997 109.964C190.469 109.772 189.905 109.46 189.305 109.028C188.849 108.668 188.309 108.212 187.685 107.66C187.085 107.084 186.497 106.496 185.921 105.896C185.345 105.296 184.889 104.792 184.553 104.384C184.073 103.76 183.557 103.232 183.005 102.8C182.453 102.368 181.841 102.2 181.169 102.296C180.785 102.32 180.545 102.428 180.449 102.62C180.377 102.788 180.305 103.136 180.233 103.664C180.185 104.024 180.173 104.456 180.197 104.96C180.221 105.44 180.257 105.896 180.305 106.328C180.377 106.76 180.413 107.072 180.413 107.264C180.413 107.696 180.497 108.032 180.665 108.272C180.833 108.488 181.001 108.692 181.169 108.884C180.761 109.196 180.125 109.532 179.261 109.892C178.397 110.252 177.437 110.432 176.381 110.432C175.685 110.432 175.133 110.156 174.725 109.604C174.341 109.052 174.065 108.38 173.897 107.588C173.729 106.796 173.633 106.028 173.609 105.284C173.609 105.068 173.597 104.48 173.573 103.52C173.573 102.56 173.561 101.372 173.537 99.956C173.537 98.516 173.537 96.98 173.537 95.348C173.537 93.692 173.525 92.06 173.501 90.452C173.501 88.82 173.489 87.344 173.465 86.024C173.465 84.68 173.465 83.612 173.465 82.82C173.465 82.004 173.465 81.596 173.465 81.596C173.729 81.548 174.185 81.536 174.833 81.56C175.505 81.584 176.201 81.692 176.921 81.884C177.737 82.076 178.481 82.4 179.153 82.856C179.849 83.312 180.245 83.972 180.341 84.836C180.389 85.388 180.413 85.844 180.413 86.204C180.437 86.564 180.449 86.936 180.449 87.32C180.449 88.592 180.761 89.396 181.385 89.732C182.081 90.092 183.029 89.852 184.229 89.012C184.421 88.868 184.757 88.592 185.237 88.184C185.717 87.752 186.269 87.248 186.893 86.672C187.517 86.096 188.165 85.496 188.837 84.872C189.509 84.248 190.121 83.672 190.673 83.144C191.249 82.592 191.717 82.148 192.077 81.812C192.437 81.476 192.617 81.308 192.617 81.308C192.833 81.476 193.133 81.872 193.517 82.496C193.925 83.12 194.285 83.816 194.597 84.584C194.909 85.352 195.101 86.144 195.173 86.96C195.269 87.752 195.113 88.412 194.705 88.94C194.537 89.156 194.261 89.444 193.877 89.804C193.517 90.164 193.109 90.548 192.653 90.956C192.221 91.34 191.801 91.712 191.393 92.072C190.985 92.408 190.673 92.672 190.457 92.864C190.001 93.248 189.617 93.728 189.305 94.304C189.017 94.856 188.837 95.432 188.765 96.032C188.693 96.632 188.717 97.232 188.837 97.832C188.957 98.432 189.221 98.984 189.629 99.488C189.917 99.824 190.349 100.28 190.925 100.856C191.501 101.408 192.089 101.972 192.689 102.548C193.289 103.1 193.769 103.556 194.129 103.916ZM216.177 103.448C216.513 103.4 216.933 103.34 217.437 103.268C217.965 103.196 218.457 103.112 218.913 103.016C219.393 102.896 219.717 102.764 219.885 102.62C220.197 102.884 220.401 103.424 220.497 104.24C220.617 105.032 220.581 105.86 220.389 106.724C220.245 107.468 219.993 108.164 219.633 108.812C219.273 109.46 218.757 109.856 218.085 110C217.509 110.12 216.849 110.192 216.105 110.216C215.361 110.24 214.605 110.24 213.837 110.216C213.069 110.192 212.361 110.168 211.713 110.144C211.089 110.12 210.609 110.108 210.273 110.108C209.937 110.108 209.409 110.108 208.689 110.108C207.993 110.132 207.381 110.156 206.853 110.18C206.229 110.252 205.545 110.3 204.801 110.324C204.057 110.348 203.373 110.324 202.749 110.252C202.125 110.18 201.669 110.06 201.381 109.892C201.549 109.556 201.693 109.052 201.813 108.38C201.933 107.684 202.029 106.928 202.101 106.112C202.173 105.296 202.197 104.516 202.173 103.772L202.101 97.184V94.124C202.101 93.26 202.089 92.54 202.065 91.964C202.065 91.388 202.065 91.076 202.065 91.028C202.065 90.236 202.029 89.384 201.957 88.472C201.885 87.56 201.801 86.696 201.705 85.88C201.609 85.04 201.525 84.356 201.453 83.828C201.357 83.42 201.285 83.024 201.237 82.64C201.189 82.232 201.177 81.872 201.201 81.56C201.369 81.632 201.825 81.704 202.569 81.776C203.337 81.824 204.225 81.872 205.233 81.92C205.305 81.92 205.653 81.932 206.277 81.956C206.901 81.956 207.669 81.968 208.581 81.992C209.517 82.016 210.477 82.04 211.461 82.064C212.469 82.064 213.381 82.064 214.197 82.064C215.013 82.064 215.613 82.052 215.997 82.028C216.981 81.98 217.809 81.908 218.481 81.812C219.177 81.692 219.645 81.536 219.885 81.344C220.173 81.584 220.437 82.04 220.677 82.712C220.941 83.36 221.085 84.044 221.109 84.764C221.109 85.46 220.941 86.12 220.605 86.744C220.293 87.344 219.717 87.752 218.877 87.968C218.565 88.04 218.073 88.1 217.401 88.148C216.753 88.196 216.117 88.232 215.493 88.256C214.893 88.256 214.461 88.244 214.197 88.22C213.453 88.148 212.685 88.232 211.893 88.472C211.101 88.688 210.429 88.988 209.877 89.372C209.325 89.732 209.037 90.128 209.013 90.56C208.989 90.968 209.157 91.304 209.517 91.568C209.877 91.832 210.345 92.048 210.921 92.216C211.521 92.36 212.157 92.456 212.829 92.504C213.501 92.552 214.137 92.564 214.737 92.54C215.217 92.492 215.769 92.408 216.393 92.288C217.017 92.168 217.401 92.048 217.545 91.928C217.857 92.192 218.073 92.684 218.193 93.404C218.337 94.124 218.337 94.868 218.193 95.636C218.073 96.26 217.833 96.836 217.473 97.364C217.113 97.892 216.609 98.252 215.961 98.444C215.457 98.588 215.025 98.684 214.665 98.732C214.305 98.756 214.125 98.768 214.125 98.768C212.709 98.768 211.509 99.02 210.525 99.524C209.565 100.004 209.037 100.58 208.941 101.252C208.845 101.828 208.965 102.356 209.301 102.836C209.661 103.316 210.177 103.58 210.849 103.628C211.305 103.652 211.881 103.664 212.577 103.664C213.297 103.64 213.993 103.616 214.665 103.592C215.361 103.544 215.865 103.496 216.177 103.448ZM248.499 81.02C248.787 81.26 248.991 81.728 249.111 82.424C249.255 83.12 249.315 83.876 249.291 84.692C249.267 85.484 249.147 86.204 248.931 86.852C248.715 87.476 248.403 87.848 247.995 87.968C247.827 88.016 247.479 88.088 246.951 88.184C246.447 88.256 245.979 88.352 245.547 88.472C245.139 88.592 244.599 88.796 243.927 89.084C243.255 89.372 242.679 89.792 242.199 90.344C241.815 90.8 241.503 91.28 241.263 91.784C241.023 92.264 240.891 92.888 240.867 93.656C240.843 93.968 240.831 94.556 240.831 95.42C240.831 96.26 240.831 97.244 240.831 98.372C240.831 99.476 240.831 100.568 240.831 101.648C240.855 102.728 240.867 103.652 240.867 104.42C240.867 105.188 240.867 105.644 240.867 105.788C240.843 106.508 240.915 107.12 241.083 107.624C241.251 108.128 241.431 108.428 241.623 108.524C241.023 108.98 240.423 109.364 239.823 109.676C239.247 109.988 238.419 110.216 237.339 110.36C236.931 110.408 236.475 110.288 235.971 110C235.467 109.736 235.023 109.316 234.639 108.74C234.279 108.14 234.087 107.408 234.063 106.544C234.063 105.68 234.051 104.576 234.027 103.232C234.027 101.864 234.027 100.388 234.027 98.804C234.051 97.196 234.051 95.588 234.027 93.98C234.003 93.284 233.895 92.624 233.703 92C233.535 91.376 233.247 90.836 232.839 90.38C232.431 89.9 231.891 89.504 231.219 89.192C230.547 88.88 229.707 88.676 228.699 88.58C228.435 88.556 228.075 88.484 227.619 88.364C227.163 88.244 226.851 88.124 226.683 88.004C226.419 87.812 226.203 87.452 226.035 86.924C225.867 86.372 225.735 85.772 225.639 85.124C225.543 84.452 225.471 83.792 225.423 83.144C225.399 82.496 225.399 81.968 225.423 81.56C225.519 81.584 225.783 81.62 226.215 81.668C226.671 81.716 227.211 81.764 227.835 81.812C228.459 81.836 229.071 81.86 229.671 81.884C230.103 81.908 230.679 81.932 231.399 81.956C232.143 81.98 232.935 82.004 233.775 82.028C234.615 82.052 235.407 82.076 236.151 82.1C236.895 82.1 237.507 82.1 237.987 82.1C238.635 82.076 239.391 82.052 240.255 82.028C241.119 82.004 241.947 81.98 242.739 81.956C243.555 81.908 244.203 81.86 244.683 81.812C245.163 81.764 245.667 81.704 246.195 81.632C246.747 81.536 247.227 81.44 247.635 81.344C248.067 81.224 248.355 81.116 248.499 81.02ZM270.645 81.38C272.421 81.644 273.825 82.124 274.857 82.82C275.913 83.492 276.693 84.272 277.197 85.16C277.701 86.048 278.025 86.924 278.169 87.788C278.313 88.628 278.385 89.348 278.385 89.948C278.385 90.716 278.253 91.604 277.989 92.612C277.725 93.596 277.281 94.568 276.657 95.528C276.057 96.464 275.253 97.28 274.245 97.976C273.237 98.648 271.977 99.056 270.465 99.2C270.201 99.224 269.865 99.248 269.457 99.272C269.049 99.296 268.677 99.32 268.341 99.344C268.029 99.344 267.837 99.344 267.765 99.344C266.853 99.392 266.013 99.656 265.245 100.136C264.501 100.616 263.901 101.24 263.445 102.008C263.013 102.752 262.785 103.592 262.761 104.528V105.86C262.761 106.484 262.845 107.06 263.013 107.588C263.181 108.092 263.313 108.44 263.409 108.632C262.833 109.16 262.329 109.532 261.897 109.748C261.465 109.964 260.925 110.12 260.277 110.216C259.749 110.288 259.161 110.24 258.513 110.072C257.889 109.904 257.325 109.592 256.821 109.136C256.317 108.656 255.993 107.996 255.849 107.156C255.825 107.012 255.813 106.556 255.813 105.788C255.813 104.996 255.813 104.024 255.813 102.872C255.837 101.696 255.849 100.412 255.849 99.02C255.873 97.628 255.885 96.236 255.885 94.844C255.885 93.452 255.885 92.156 255.885 90.956C255.861 89.66 255.801 88.568 255.705 87.68C255.633 86.792 255.453 86.228 255.165 85.988C254.661 85.556 254.265 84.884 253.977 83.972C253.713 83.06 253.593 82.196 253.617 81.38C253.713 81.404 253.977 81.44 254.409 81.488C254.841 81.512 255.297 81.548 255.777 81.596C256.017 81.596 256.413 81.596 256.965 81.596C257.517 81.572 258.117 81.536 258.765 81.488C259.437 81.44 260.085 81.404 260.709 81.38C261.333 81.332 261.837 81.296 262.221 81.272C262.749 81.224 263.445 81.176 264.309 81.128C265.197 81.08 266.193 81.068 267.297 81.092C268.401 81.116 269.517 81.212 270.645 81.38ZM266.361 92.612C266.697 92.636 267.117 92.612 267.621 92.54C268.149 92.444 268.677 92.3 269.205 92.108C269.757 91.916 270.213 91.652 270.573 91.316C270.933 90.956 271.113 90.524 271.113 90.02C271.113 89.324 270.849 88.784 270.321 88.4C269.817 88.016 269.193 87.752 268.449 87.608C267.729 87.464 267.033 87.404 266.361 87.428C265.377 87.452 264.537 87.728 263.841 88.256C263.145 88.76 262.797 89.36 262.797 90.056C262.821 90.512 263.001 90.932 263.337 91.316C263.697 91.676 264.141 91.976 264.669 92.216C265.221 92.456 265.785 92.588 266.361 92.612ZM302.993 102.872C303.305 103.136 303.509 103.664 303.605 104.456C303.725 105.224 303.689 106.028 303.497 106.868C303.353 107.564 303.089 108.236 302.705 108.884C302.321 109.508 301.817 109.88 301.193 110C300.953 110.048 300.401 110.072 299.537 110.072C298.673 110.096 297.653 110.096 296.477 110.072C295.325 110.072 294.149 110.06 292.949 110.036C291.773 110.036 290.717 110.036 289.781 110.036C288.869 110.06 288.221 110.096 287.837 110.144C286.853 110.312 285.845 110.372 284.813 110.324C283.805 110.276 283.097 110.132 282.689 109.892C282.857 109.556 283.001 109.052 283.121 108.38C283.241 107.684 283.337 106.928 283.409 106.112C283.481 105.296 283.505 104.516 283.481 103.772L283.337 81.596C283.601 81.548 284.057 81.536 284.705 81.56C285.377 81.584 286.085 81.692 286.829 81.884C287.645 82.076 288.377 82.436 289.025 82.964C289.673 83.492 290.069 84.164 290.213 84.98C290.261 85.244 290.297 85.772 290.321 86.564C290.345 87.332 290.357 88.244 290.357 89.3C290.381 90.356 290.381 91.436 290.357 92.54C290.357 93.644 290.357 94.676 290.357 95.636C290.357 96.596 290.345 97.376 290.321 97.976C290.321 98.576 290.321 98.876 290.321 98.876C290.297 99.788 290.393 100.616 290.609 101.36C290.825 102.08 291.137 102.644 291.545 103.052C291.857 103.364 292.241 103.58 292.697 103.7C293.153 103.82 293.717 103.904 294.389 103.952C294.677 103.976 295.121 103.976 295.721 103.952C296.345 103.928 297.029 103.892 297.773 103.844C298.517 103.772 299.249 103.688 299.969 103.592C300.713 103.496 301.361 103.388 301.913 103.268C302.465 103.148 302.825 103.016 302.993 102.872ZM330.248 103.232C330.536 103.928 330.944 104.6 331.472 105.248C332 105.872 332.456 106.34 332.84 106.652C332.264 107.852 331.556 108.728 330.716 109.28C330.02 109.736 329.276 110 328.484 110.072C328.052 110.12 327.56 110.084 327.008 109.964C326.456 109.844 325.88 109.508 325.28 108.956C324.704 108.38 324.128 107.468 323.552 106.22C323.384 105.812 323.012 105.524 322.436 105.356C321.86 105.188 321.248 105.092 320.6 105.068C319.952 105.02 319.424 104.996 319.016 104.996C318.608 104.996 318.104 105.008 317.504 105.032C316.928 105.056 316.4 105.152 315.92 105.32C315.44 105.488 315.152 105.788 315.056 106.22C314.96 106.604 314.948 107 315.02 107.408C315.092 107.816 315.248 108.08 315.488 108.2C315.08 108.584 314.672 108.92 314.264 109.208C313.88 109.496 313.484 109.724 313.076 109.892C312.572 110.108 312.044 110.216 311.492 110.216C310.964 110.216 310.364 110.096 309.692 109.856C309.38 109.736 309.056 109.52 308.72 109.208C308.384 108.896 308.156 108.464 308.036 107.912C307.916 107.36 308.012 106.664 308.324 105.824C308.348 105.752 308.468 105.368 308.684 104.672C308.9 103.976 309.176 103.064 309.512 101.936C309.872 100.784 310.256 99.512 310.664 98.12C311.096 96.728 311.528 95.3 311.96 93.836C312.416 92.348 312.848 90.92 313.256 89.552C313.688 88.184 314.072 86.948 314.408 85.844C314.744 84.74 315.008 83.864 315.2 83.216C315.392 82.568 315.488 82.244 315.488 82.244C315.704 82.124 316.1 81.98 316.676 81.812C317.276 81.62 317.912 81.512 318.584 81.488C319.328 81.44 320.048 81.536 320.744 81.776C321.464 82.016 322.016 82.496 322.4 83.216C322.568 83.504 322.82 84.056 323.156 84.872C323.492 85.688 323.888 86.672 324.344 87.824C324.8 88.976 325.28 90.212 325.784 91.532C326.288 92.828 326.78 94.124 327.26 95.42C327.764 96.692 328.22 97.88 328.628 98.984C329.036 100.088 329.384 101.024 329.672 101.792C329.96 102.536 330.152 103.016 330.248 103.232ZM318.908 98.588C319.532 98.54 319.892 98.36 319.988 98.048C320.108 97.736 320.18 97.376 320.204 96.968C320.204 96.704 320.156 96.38 320.06 95.996C319.988 95.612 319.868 95.276 319.7 94.988C319.556 94.676 319.364 94.52 319.124 94.52C318.788 94.52 318.416 94.76 318.008 95.24C317.624 95.696 317.408 96.164 317.36 96.644C317.288 97.1 317.324 97.544 317.468 97.976C317.636 98.408 318.116 98.612 318.908 98.588ZM358.852 88.4C358.564 89.288 358.12 89.936 357.52 90.344C356.92 90.752 356.296 90.92 355.648 90.848C355 90.752 354.448 90.428 353.992 89.876C354.4 89.564 354.52 89.228 354.352 88.868C354.208 88.484 353.836 88.172 353.236 87.932C352.636 87.668 351.868 87.572 350.932 87.644C349.972 87.692 349 88.004 348.016 88.58C347.056 89.156 346.252 89.984 345.604 91.064C344.956 92.144 344.596 93.488 344.524 95.096C344.452 96.752 344.62 98.096 345.028 99.128C345.436 100.16 345.94 100.952 346.54 101.504C347.164 102.032 347.788 102.416 348.412 102.656C349.036 102.872 349.54 103.016 349.924 103.088C350.428 103.184 351.004 103.256 351.652 103.304C352.324 103.328 352.996 103.28 353.668 103.16C354.34 103.04 354.916 102.836 355.396 102.548C355.828 102.284 356.368 101.936 357.016 101.504C357.664 101.048 358.288 100.544 358.888 99.992C359.488 99.44 359.932 98.876 360.22 98.3C361.036 98.852 361.54 99.632 361.732 100.64C361.948 101.648 361.864 102.728 361.48 103.88C361.096 105.032 360.424 106.124 359.464 107.156C358.528 108.164 357.304 108.992 355.792 109.64C354.28 110.264 352.492 110.552 350.428 110.504C349.468 110.48 348.364 110.3 347.116 109.964C345.892 109.628 344.656 109.1 343.408 108.38C342.16 107.636 341.02 106.664 339.988 105.464C338.98 104.24 338.212 102.728 337.684 100.928C337.156 99.128 337.012 97.004 337.252 94.556C337.468 92.228 338.044 90.224 338.98 88.544C339.94 86.864 341.104 85.496 342.472 84.44C343.864 83.36 345.328 82.556 346.864 82.028C348.424 81.476 349.912 81.188 351.328 81.164C352.744 81.116 353.968 81.332 355 81.812C356.056 82.292 356.908 82.916 357.556 83.684C358.204 84.428 358.636 85.232 358.852 86.096C359.092 86.936 359.092 87.704 358.852 88.4ZM381.122 103.448C381.458 103.4 381.878 103.34 382.382 103.268C382.91 103.196 383.402 103.112 383.858 103.016C384.338 102.896 384.662 102.764 384.83 102.62C385.142 102.884 385.346 103.424 385.442 104.24C385.562 105.032 385.526 105.86 385.334 106.724C385.19 107.468 384.938 108.164 384.578 108.812C384.218 109.46 383.702 109.856 383.03 110C382.454 110.12 381.794 110.192 381.05 110.216C380.306 110.24 379.55 110.24 378.782 110.216C378.014 110.192 377.306 110.168 376.658 110.144C376.034 110.12 375.554 110.108 375.218 110.108C374.882 110.108 374.354 110.108 373.634 110.108C372.938 110.132 372.326 110.156 371.798 110.18C371.174 110.252 370.49 110.3 369.746 110.324C369.002 110.348 368.318 110.324 367.694 110.252C367.07 110.18 366.614 110.06 366.326 109.892C366.494 109.556 366.638 109.052 366.758 108.38C366.878 107.684 366.974 106.928 367.046 106.112C367.118 105.296 367.142 104.516 367.118 103.772L367.046 97.184V94.124C367.046 93.26 367.034 92.54 367.01 91.964C367.01 91.388 367.01 91.076 367.01 91.028C367.01 90.236 366.974 89.384 366.902 88.472C366.83 87.56 366.746 86.696 366.65 85.88C366.554 85.04 366.47 84.356 366.398 83.828C366.302 83.42 366.23 83.024 366.182 82.64C366.134 82.232 366.122 81.872 366.146 81.56C366.314 81.632 366.77 81.704 367.514 81.776C368.282 81.824 369.17 81.872 370.178 81.92C370.25 81.92 370.598 81.932 371.222 81.956C371.846 81.956 372.614 81.968 373.526 81.992C374.462 82.016 375.422 82.04 376.406 82.064C377.414 82.064 378.326 82.064 379.142 82.064C379.958 82.064 380.558 82.052 380.942 82.028C381.926 81.98 382.754 81.908 383.426 81.812C384.122 81.692 384.59 81.536 384.83 81.344C385.118 81.584 385.382 82.04 385.622 82.712C385.886 83.36 386.03 84.044 386.054 84.764C386.054 85.46 385.886 86.12 385.55 86.744C385.238 87.344 384.662 87.752 383.822 87.968C383.51 88.04 383.018 88.1 382.346 88.148C381.698 88.196 381.062 88.232 380.438 88.256C379.838 88.256 379.406 88.244 379.142 88.22C378.398 88.148 377.63 88.232 376.838 88.472C376.046 88.688 375.374 88.988 374.822 89.372C374.27 89.732 373.982 90.128 373.958 90.56C373.934 90.968 374.102 91.304 374.462 91.568C374.822 91.832 375.29 92.048 375.866 92.216C376.466 92.36 377.102 92.456 377.774 92.504C378.446 92.552 379.082 92.564 379.682 92.54C380.162 92.492 380.714 92.408 381.338 92.288C381.962 92.168 382.346 92.048 382.49 91.928C382.802 92.192 383.018 92.684 383.138 93.404C383.282 94.124 383.282 94.868 383.138 95.636C383.018 96.26 382.778 96.836 382.418 97.364C382.058 97.892 381.554 98.252 380.906 98.444C380.402 98.588 379.97 98.684 379.61 98.732C379.25 98.756 379.07 98.768 379.07 98.768C377.654 98.768 376.454 99.02 375.47 99.524C374.51 100.004 373.982 100.58 373.886 101.252C373.79 101.828 373.91 102.356 374.246 102.836C374.606 103.316 375.122 103.58 375.794 103.628C376.25 103.652 376.826 103.664 377.522 103.664C378.242 103.64 378.938 103.616 379.61 103.592C380.306 103.544 380.81 103.496 381.122 103.448Z" fill="#EF1313"/>
</svg>
