<svg width="576" height="150" viewBox="0 0 576 150" fill="none" xmlns="http://www.w3.org/2000/svg">
<rect width="576" height="150" fill="#F5F5F5"/>
<g clip-path="url(#clip0_0_1)">
<rect width="576" height="150" fill="white"/>
<rect width="153" height="150" fill="black"/>
<path d="M202.112 61.968C202.624 63.2053 203.349 64.4 204.288 65.552C205.227 66.6613 206.037 67.4933 206.72 68.048C205.696 70.1813 204.437 71.7387 202.944 72.72C201.707 73.5307 200.384 74 198.976 74.128C198.208 74.2133 197.333 74.1493 196.352 73.936C195.371 73.7227 194.347 73.1253 193.28 72.144C192.256 71.12 191.232 69.4987 190.208 67.28C189.909 66.5547 189.248 66.0427 188.224 65.744C187.2 65.4453 186.112 65.2747 184.96 65.232C183.808 65.1467 182.869 65.104 182.144 65.104C181.419 65.104 180.523 65.1253 179.456 65.168C178.432 65.2107 177.493 65.3813 176.64 65.68C175.787 65.9787 175.275 66.512 175.104 67.28C174.933 67.9627 174.912 68.6667 175.04 69.392C175.168 70.1173 175.445 70.5867 175.872 70.8C175.147 71.4827 174.421 72.08 173.696 72.592C173.013 73.104 172.309 73.5093 171.584 73.808C170.688 74.192 169.749 74.384 168.768 74.384C167.829 74.384 166.763 74.1707 165.568 73.744C165.013 73.5307 164.437 73.1467 163.84 72.592C163.243 72.0373 162.837 71.2693 162.624 70.288C162.411 69.3067 162.581 68.0693 163.136 66.576C163.179 66.448 163.392 65.7653 163.776 64.528C164.16 63.2907 164.651 61.6693 165.248 59.664C165.888 57.616 166.571 55.3547 167.296 52.88C168.064 50.4053 168.832 47.8667 169.6 45.264C170.411 42.6187 171.179 40.08 171.904 37.648C172.672 35.216 173.355 33.0187 173.952 31.056C174.549 29.0933 175.019 27.536 175.36 26.384C175.701 25.232 175.872 24.656 175.872 24.656C176.256 24.4427 176.96 24.1867 177.984 23.888C179.051 23.5467 180.181 23.3547 181.376 23.312C182.699 23.2267 183.979 23.3973 185.216 23.824C186.496 24.2507 187.477 25.104 188.16 26.384C188.459 26.896 188.907 27.8773 189.504 29.328C190.101 30.7787 190.805 32.528 191.616 34.576C192.427 36.624 193.28 38.8213 194.176 41.168C195.072 43.472 195.947 45.776 196.8 48.08C197.696 50.3413 198.507 52.4533 199.232 54.416C199.957 56.3787 200.576 58.0427 201.088 59.408C201.6 60.7307 201.941 61.584 202.112 61.968ZM181.952 53.712C183.061 53.6267 183.701 53.3067 183.872 52.752C184.085 52.1973 184.213 51.5573 184.256 50.832C184.256 50.3627 184.171 49.7867 184 49.104C183.872 48.4213 183.659 47.824 183.36 47.312C183.104 46.7573 182.763 46.48 182.336 46.48C181.739 46.48 181.077 46.9067 180.352 47.76C179.669 48.5707 179.285 49.4027 179.2 50.256C179.072 51.0667 179.136 51.856 179.392 52.624C179.691 53.392 180.544 53.7547 181.952 53.712ZM220.002 74.576C218.167 74.2347 216.866 72.9973 216.098 70.864C215.373 68.7307 215.01 66.0853 215.01 62.928C215.01 62.544 214.989 61.584 214.946 60.048C214.946 58.512 214.925 56.6133 214.882 54.352C214.882 52.048 214.861 49.5733 214.818 46.928C214.818 44.2827 214.797 41.6373 214.754 38.992C214.711 36.3467 214.669 33.9147 214.626 31.696C214.583 29.4347 214.541 27.5787 214.498 26.128C214.455 24.6773 214.413 23.8027 214.37 23.504C215.01 23.376 215.991 23.3547 217.314 23.44C218.679 23.4827 220.087 23.696 221.538 24.08C223.031 24.4213 224.333 25.0187 225.442 25.872C226.551 26.6827 227.191 27.8133 227.362 29.264C227.447 29.9467 227.511 31.12 227.554 32.784C227.597 34.4053 227.618 36.3467 227.618 38.608C227.661 40.8267 227.682 43.1947 227.682 45.712C227.682 48.2293 227.682 50.7253 227.682 53.2C227.682 55.632 227.682 57.8933 227.682 59.984C227.682 62.032 227.682 63.76 227.682 65.168C227.725 66.5333 227.767 67.3653 227.81 67.664C227.895 68.56 228.066 69.2213 228.322 69.648C228.578 70.032 228.855 70.5227 229.154 71.12C228.087 72.272 226.765 73.2107 225.186 73.936C223.607 74.6613 221.879 74.8747 220.002 74.576ZM278.917 29.264C279.002 29.9893 279.045 31.2267 279.045 32.976C279.088 34.6827 279.109 36.7307 279.109 39.12C279.109 41.5093 279.109 44.0267 279.109 46.672C279.109 49.3173 279.088 51.9413 279.045 54.544C279.045 57.1467 279.024 59.5147 278.981 61.648C278.981 63.7813 278.981 65.5307 278.981 66.896C278.981 68.2187 279.002 68.9653 279.045 69.136C279.13 69.4773 279.066 70.032 278.853 70.8C278.64 71.5253 278.298 72.2293 277.829 72.912C277.36 73.552 276.762 73.936 276.037 74.064C275.354 74.2347 274.394 74.2347 273.157 74.064C271.962 73.936 270.746 73.616 269.509 73.104C268.314 72.5493 267.354 71.76 266.629 70.736C266.202 70.1387 265.541 69.2853 264.645 68.176C263.792 67.024 262.832 65.7867 261.765 64.464C260.741 63.0987 259.717 61.7973 258.693 60.56C257.712 59.28 256.88 58.192 256.197 57.296C255.514 56.3573 255.088 55.7813 254.917 55.568C254.533 54.9707 253.893 54.3733 252.997 53.776C252.144 53.136 251.461 52.9013 250.949 53.072C250.437 53.2427 250.053 53.776 249.797 54.672C249.541 55.5253 249.37 56.4427 249.285 57.424C249.2 58.064 249.157 59.0453 249.157 60.368C249.157 61.648 249.157 62.9707 249.157 64.336C249.2 65.7013 249.2 66.8107 249.157 67.664C249.114 69.1573 249.584 70.5867 250.565 71.952C250.224 72.1653 249.541 72.5067 248.517 72.976C247.493 73.4027 246.405 73.7867 245.253 74.128C244.101 74.4693 243.12 74.6187 242.309 74.576C240.944 74.4907 239.728 73.7867 238.661 72.464C237.637 71.1413 237.104 69.4987 237.061 67.536C237.061 67.152 237.04 66.0853 236.997 64.336C236.997 62.544 236.976 60.3253 236.933 57.68C236.933 55.0347 236.933 52.176 236.933 49.104C236.933 46.032 236.912 43.0027 236.869 40.016C236.869 36.9867 236.848 34.2347 236.805 31.76C236.805 29.2427 236.805 27.2373 236.805 25.744C236.805 24.2507 236.805 23.504 236.805 23.504C239.408 23.4187 241.605 23.6107 243.397 24.08C245.189 24.5493 246.682 25.4027 247.877 26.64C248.389 27.1093 249.136 27.9413 250.117 29.136C251.098 30.3307 252.165 31.696 253.317 33.232C254.512 34.7253 255.664 36.2187 256.773 37.712C257.925 39.2053 258.928 40.528 259.781 41.68C260.634 42.7893 261.189 43.5147 261.445 43.856C262.128 44.7093 262.81 45.392 263.493 45.904C264.218 46.3733 264.816 46.5227 265.285 46.352C266.309 46.0107 266.821 44.5813 266.821 42.064L266.693 23.504C267.162 23.4187 267.973 23.3973 269.125 23.44C270.32 23.4827 271.578 23.6747 272.901 24.016C274.352 24.3573 275.674 24.9333 276.869 25.744C278.064 26.5547 278.746 27.728 278.917 29.264Z" fill="#EB2A2A"/>
<path d="M195.532 116.848C195.964 117.892 196.576 118.9 197.368 119.872C198.16 120.808 198.844 121.51 199.42 121.978C198.556 123.778 197.494 125.092 196.234 125.92C195.19 126.604 194.074 127 192.886 127.108C192.238 127.18 191.5 127.126 190.672 126.946C189.844 126.766 188.98 126.262 188.08 125.434C187.216 124.57 186.352 123.202 185.488 121.33C185.236 120.718 184.678 120.286 183.814 120.034C182.95 119.782 182.032 119.638 181.06 119.602C180.088 119.53 179.296 119.494 178.684 119.494C178.072 119.494 177.316 119.512 176.416 119.548C175.552 119.584 174.76 119.728 174.04 119.98C173.32 120.232 172.888 120.682 172.744 121.33C172.6 121.906 172.582 122.5 172.69 123.112C172.798 123.724 173.032 124.12 173.392 124.3C172.78 124.876 172.168 125.38 171.556 125.812C170.98 126.244 170.386 126.586 169.774 126.838C169.018 127.162 168.226 127.324 167.398 127.324C166.606 127.324 165.706 127.144 164.698 126.784C164.23 126.604 163.744 126.28 163.24 125.812C162.736 125.344 162.394 124.696 162.214 123.868C162.034 123.04 162.178 121.996 162.646 120.736C162.682 120.628 162.862 120.052 163.186 119.008C163.51 117.964 163.924 116.596 164.428 114.904C164.968 113.176 165.544 111.268 166.156 109.18C166.804 107.092 167.452 104.95 168.1 102.754C168.784 100.522 169.432 98.38 170.044 96.328C170.692 94.276 171.268 92.422 171.772 90.766C172.276 89.11 172.672 87.796 172.96 86.824C173.248 85.852 173.392 85.366 173.392 85.366C173.716 85.186 174.31 84.97 175.174 84.718C176.074 84.43 177.028 84.268 178.036 84.232C179.152 84.16 180.232 84.304 181.276 84.664C182.356 85.024 183.184 85.744 183.76 86.824C184.012 87.256 184.39 88.084 184.894 89.308C185.398 90.532 185.992 92.008 186.676 93.736C187.36 95.464 188.08 97.318 188.836 99.298C189.592 101.242 190.33 103.186 191.05 105.13C191.806 107.038 192.49 108.82 193.102 110.476C193.714 112.132 194.236 113.536 194.668 114.688C195.1 115.804 195.388 116.524 195.532 116.848ZM178.522 109.882C179.458 109.81 179.998 109.54 180.142 109.072C180.322 108.604 180.43 108.064 180.466 107.452C180.466 107.056 180.394 106.57 180.25 105.994C180.142 105.418 179.962 104.914 179.71 104.482C179.494 104.014 179.206 103.78 178.846 103.78C178.342 103.78 177.784 104.14 177.172 104.86C176.596 105.544 176.272 106.246 176.2 106.966C176.092 107.65 176.146 108.316 176.362 108.964C176.614 109.612 177.334 109.918 178.522 109.882ZM235.629 109.882C235.485 109.918 235.269 110.116 234.981 110.476C234.729 110.836 234.549 111.214 234.441 111.61C234.261 112.186 234.315 112.654 234.603 113.014C235.359 113.914 236.331 114.976 237.519 116.2C238.707 117.388 239.895 118.522 241.083 119.602C242.307 120.682 243.351 121.51 244.215 122.086C243.567 123.814 242.541 125.2 241.137 126.244C239.769 127.252 238.239 127.738 236.547 127.702C234.855 127.666 233.199 126.91 231.579 125.434C231.363 125.218 230.949 124.75 230.337 124.03C229.725 123.274 229.023 122.392 228.231 121.384C227.439 120.376 226.647 119.368 225.855 118.36C225.063 117.352 224.379 116.47 223.803 115.714C223.227 114.958 222.867 114.49 222.723 114.31C222.039 113.41 221.391 113.212 220.779 113.716C220.167 114.22 219.789 115.264 219.645 116.848C219.573 117.784 219.573 118.864 219.645 120.088C219.753 121.276 219.897 122.338 220.077 123.274C220.293 124.21 220.509 124.768 220.725 124.948C219.969 125.524 219.033 126.064 217.917 126.568C216.801 127.072 215.523 127.378 214.083 127.486C213.543 127.522 212.913 127.378 212.193 127.054C211.473 126.73 210.843 126.208 210.303 125.488C209.799 124.732 209.529 123.796 209.493 122.68C209.493 122.392 209.475 121.636 209.439 120.412C209.439 119.188 209.421 117.694 209.385 115.93C209.385 114.13 209.385 112.276 209.385 110.368C209.385 108.46 209.367 106.66 209.331 104.968C209.331 103.276 209.331 101.908 209.331 100.864C209.331 99.82 209.331 99.298 209.331 99.298C209.331 97.174 209.277 95.41 209.169 94.006C209.061 92.566 208.629 91.468 207.873 90.712C207.189 90.028 206.667 89.038 206.307 87.742C205.983 86.446 205.839 85.222 205.875 84.07C206.019 84.106 206.451 84.16 207.171 84.232C207.891 84.268 208.593 84.322 209.277 84.394C209.745 84.394 210.411 84.394 211.275 84.394C212.175 84.358 213.129 84.322 214.137 84.286C215.145 84.25 216.081 84.232 216.945 84.232C217.809 84.196 218.457 84.16 218.889 84.124C219.213 84.124 219.807 84.124 220.671 84.124C221.571 84.088 222.615 84.07 223.803 84.07C224.991 84.07 226.197 84.088 227.421 84.124C228.645 84.124 229.779 84.16 230.823 84.232C231.867 84.304 232.677 84.394 233.253 84.502C235.629 84.934 237.465 85.726 238.761 86.878C240.057 88.03 240.975 89.416 241.515 91.036C242.091 92.656 242.433 94.42 242.541 96.328C242.613 97.948 242.433 99.64 242.001 101.404C241.569 103.168 240.831 104.806 239.787 106.318C238.743 107.83 237.357 109.018 235.629 109.882ZM219.753 98.272C219.753 99.424 220.023 100.288 220.563 100.864C221.103 101.404 221.607 101.728 222.075 101.836C222.723 101.98 223.551 101.998 224.559 101.89C225.567 101.746 226.575 101.494 227.583 101.134C228.591 100.738 229.437 100.234 230.121 99.622C230.841 99.01 231.201 98.308 231.201 97.516C231.201 96.472 230.769 95.68 229.905 95.14C229.041 94.564 227.943 94.204 226.611 94.06C225.315 93.916 224.019 93.952 222.723 94.168C221.715 94.312 220.959 94.762 220.455 95.518C219.951 96.274 219.717 97.192 219.753 98.272ZM281.693 117.874C283.277 119.35 284.645 120.304 285.797 120.736C285.689 121.168 285.455 121.744 285.095 122.464C284.771 123.184 284.339 123.904 283.799 124.624C283.295 125.344 282.701 125.956 282.017 126.46C281.333 126.964 280.577 127.234 279.749 127.27C278.741 127.306 277.823 127.198 276.995 126.946C276.203 126.658 275.357 126.19 274.457 125.542C273.773 125.002 272.963 124.318 272.027 123.49C271.127 122.626 270.245 121.744 269.381 120.844C268.517 119.944 267.833 119.188 267.329 118.576C266.609 117.64 265.835 116.848 265.007 116.2C264.179 115.552 263.261 115.3 262.253 115.444C261.677 115.48 261.317 115.642 261.173 115.93C261.065 116.182 260.957 116.704 260.849 117.496C260.777 118.036 260.759 118.684 260.795 119.44C260.831 120.16 260.885 120.844 260.957 121.492C261.065 122.14 261.119 122.608 261.119 122.896C261.119 123.544 261.245 124.048 261.497 124.408C261.749 124.732 262.001 125.038 262.253 125.326C261.641 125.794 260.687 126.298 259.391 126.838C258.095 127.378 256.655 127.648 255.071 127.648C254.027 127.648 253.199 127.234 252.587 126.406C252.011 125.578 251.597 124.57 251.345 123.382C251.093 122.194 250.949 121.042 250.913 119.926C250.913 119.602 250.895 118.72 250.859 117.28C250.859 115.84 250.841 114.058 250.805 111.934C250.805 109.774 250.805 107.47 250.805 105.022C250.805 102.538 250.787 100.09 250.751 97.678C250.751 95.23 250.733 93.016 250.697 91.036C250.697 89.02 250.697 87.418 250.697 86.23C250.697 85.006 250.697 84.394 250.697 84.394C251.093 84.322 251.777 84.304 252.749 84.34C253.757 84.376 254.801 84.538 255.881 84.826C257.105 85.114 258.221 85.6 259.229 86.284C260.273 86.968 260.867 87.958 261.011 89.254C261.083 90.082 261.119 90.766 261.119 91.306C261.155 91.846 261.173 92.404 261.173 92.98C261.173 94.888 261.641 96.094 262.577 96.598C263.621 97.138 265.043 96.778 266.843 95.518C267.131 95.302 267.635 94.888 268.355 94.276C269.075 93.628 269.903 92.872 270.839 92.008C271.775 91.144 272.747 90.244 273.755 89.308C274.763 88.372 275.681 87.508 276.509 86.716C277.373 85.888 278.075 85.222 278.615 84.718C279.155 84.214 279.425 83.962 279.425 83.962C279.749 84.214 280.199 84.808 280.775 85.744C281.387 86.68 281.927 87.724 282.395 88.876C282.863 90.028 283.151 91.216 283.259 92.44C283.403 93.628 283.169 94.618 282.557 95.41C282.305 95.734 281.891 96.166 281.315 96.706C280.775 97.246 280.163 97.822 279.479 98.434C278.831 99.01 278.201 99.568 277.589 100.108C276.977 100.612 276.509 101.008 276.185 101.296C275.501 101.872 274.925 102.592 274.457 103.456C274.025 104.284 273.755 105.148 273.647 106.048C273.539 106.948 273.575 107.848 273.755 108.748C273.935 109.648 274.331 110.476 274.943 111.232C275.375 111.736 276.023 112.42 276.887 113.284C277.751 114.112 278.633 114.958 279.533 115.822C280.433 116.65 281.153 117.334 281.693 117.874ZM314.766 117.172C315.27 117.1 315.9 117.01 316.656 116.902C317.448 116.794 318.186 116.668 318.87 116.524C319.59 116.344 320.076 116.146 320.328 115.93C320.796 116.326 321.102 117.136 321.246 118.36C321.426 119.548 321.372 120.79 321.084 122.086C320.868 123.202 320.49 124.246 319.95 125.218C319.41 126.19 318.636 126.784 317.628 127C316.764 127.18 315.774 127.288 314.658 127.324C313.542 127.36 312.408 127.36 311.256 127.324C310.104 127.288 309.042 127.252 308.07 127.216C307.134 127.18 306.414 127.162 305.91 127.162C305.406 127.162 304.614 127.162 303.534 127.162C302.49 127.198 301.572 127.234 300.78 127.27C299.844 127.378 298.818 127.45 297.702 127.486C296.586 127.522 295.56 127.486 294.624 127.378C293.688 127.27 293.004 127.09 292.572 126.838C292.824 126.334 293.04 125.578 293.22 124.57C293.4 123.526 293.544 122.392 293.652 121.168C293.76 119.944 293.796 118.774 293.76 117.658L293.652 107.776V103.186C293.652 101.89 293.634 100.81 293.598 99.946C293.598 99.082 293.598 98.614 293.598 98.542C293.598 97.354 293.544 96.076 293.436 94.708C293.328 93.34 293.202 92.044 293.058 90.82C292.914 89.56 292.788 88.534 292.68 87.742C292.536 87.13 292.428 86.536 292.356 85.96C292.284 85.348 292.266 84.808 292.302 84.34C292.554 84.448 293.238 84.556 294.354 84.664C295.506 84.736 296.838 84.808 298.35 84.88C298.458 84.88 298.98 84.898 299.916 84.934C300.852 84.934 302.004 84.952 303.372 84.988C304.776 85.024 306.216 85.06 307.692 85.096C309.204 85.096 310.572 85.096 311.796 85.096C313.02 85.096 313.92 85.078 314.496 85.042C315.972 84.97 317.214 84.862 318.222 84.718C319.266 84.538 319.968 84.304 320.328 84.016C320.76 84.376 321.156 85.06 321.516 86.068C321.912 87.04 322.128 88.066 322.164 89.146C322.164 90.19 321.912 91.18 321.408 92.116C320.94 93.016 320.076 93.628 318.816 93.952C318.348 94.06 317.61 94.15 316.602 94.222C315.63 94.294 314.676 94.348 313.74 94.384C312.84 94.384 312.192 94.366 311.796 94.33C310.68 94.222 309.528 94.348 308.34 94.708C307.152 95.032 306.144 95.482 305.316 96.058C304.488 96.598 304.056 97.192 304.02 97.84C303.984 98.452 304.236 98.956 304.776 99.352C305.316 99.748 306.018 100.072 306.882 100.324C307.782 100.54 308.736 100.684 309.744 100.756C310.752 100.828 311.706 100.846 312.606 100.81C313.326 100.738 314.154 100.612 315.09 100.432C316.026 100.252 316.602 100.072 316.818 99.892C317.286 100.288 317.61 101.026 317.79 102.106C318.006 103.186 318.006 104.302 317.79 105.454C317.61 106.39 317.25 107.254 316.71 108.046C316.17 108.838 315.414 109.378 314.442 109.666C313.686 109.882 313.038 110.026 312.498 110.098C311.958 110.134 311.688 110.152 311.688 110.152C309.564 110.152 307.764 110.53 306.288 111.286C304.848 112.006 304.056 112.87 303.912 113.878C303.768 114.742 303.948 115.534 304.452 116.254C304.992 116.974 305.766 117.37 306.774 117.442C307.458 117.478 308.322 117.496 309.366 117.496C310.446 117.46 311.49 117.424 312.498 117.388C313.542 117.316 314.298 117.244 314.766 117.172ZM363.248 83.53C363.68 83.89 363.986 84.592 364.166 85.636C364.382 86.68 364.472 87.814 364.436 89.038C364.4 90.226 364.22 91.306 363.896 92.278C363.572 93.214 363.104 93.772 362.492 93.952C362.24 94.024 361.718 94.132 360.926 94.276C360.17 94.384 359.468 94.528 358.82 94.708C358.208 94.888 357.398 95.194 356.39 95.626C355.382 96.058 354.518 96.688 353.798 97.516C353.222 98.2 352.754 98.92 352.394 99.676C352.034 100.396 351.836 101.332 351.8 102.484C351.764 102.952 351.746 103.834 351.746 105.13C351.746 106.39 351.746 107.866 351.746 109.558C351.746 111.214 351.746 112.852 351.746 114.472C351.782 116.092 351.8 117.478 351.8 118.63C351.8 119.782 351.8 120.466 351.8 120.682C351.764 121.762 351.872 122.68 352.124 123.436C352.376 124.192 352.646 124.642 352.934 124.786C352.034 125.47 351.134 126.046 350.234 126.514C349.37 126.982 348.128 127.324 346.508 127.54C345.896 127.612 345.212 127.432 344.456 127C343.7 126.604 343.034 125.974 342.458 125.11C341.918 124.21 341.63 123.112 341.594 121.816C341.594 120.52 341.576 118.864 341.54 116.848C341.54 114.796 341.54 112.582 341.54 110.206C341.576 107.794 341.576 105.382 341.54 102.97C341.504 101.926 341.342 100.936 341.054 100C340.802 99.064 340.37 98.254 339.758 97.57C339.146 96.85 338.336 96.256 337.328 95.788C336.32 95.32 335.06 95.014 333.548 94.87C333.152 94.834 332.612 94.726 331.928 94.546C331.244 94.366 330.776 94.186 330.524 94.006C330.128 93.718 329.804 93.178 329.552 92.386C329.3 91.558 329.102 90.658 328.958 89.686C328.814 88.678 328.706 87.688 328.634 86.716C328.598 85.744 328.598 84.952 328.634 84.34C328.778 84.376 329.174 84.43 329.822 84.502C330.506 84.574 331.316 84.646 332.252 84.718C333.188 84.754 334.106 84.79 335.006 84.826C335.654 84.862 336.518 84.898 337.598 84.934C338.714 84.97 339.902 85.006 341.162 85.042C342.422 85.078 343.61 85.114 344.726 85.15C345.842 85.15 346.76 85.15 347.48 85.15C348.452 85.114 349.586 85.078 350.882 85.042C352.178 85.006 353.42 84.97 354.608 84.934C355.832 84.862 356.804 84.79 357.524 84.718C358.244 84.646 359 84.556 359.792 84.448C360.62 84.304 361.34 84.16 361.952 84.016C362.6 83.836 363.032 83.674 363.248 83.53ZM396.467 84.07C399.131 84.466 401.237 85.186 402.785 86.23C404.369 87.238 405.539 88.408 406.295 89.74C407.051 91.072 407.537 92.386 407.753 93.682C407.969 94.942 408.077 96.022 408.077 96.922C408.077 98.074 407.879 99.406 407.483 100.918C407.087 102.394 406.421 103.852 405.485 105.292C404.585 106.696 403.379 107.92 401.867 108.964C400.355 109.972 398.465 110.584 396.197 110.8C395.801 110.836 395.297 110.872 394.685 110.908C394.073 110.944 393.515 110.98 393.011 111.016C392.543 111.016 392.255 111.016 392.147 111.016C390.779 111.088 389.519 111.484 388.367 112.204C387.251 112.924 386.351 113.86 385.667 115.012C385.019 116.128 384.677 117.388 384.641 118.792V120.79C384.641 121.726 384.767 122.59 385.019 123.382C385.271 124.138 385.469 124.66 385.613 124.948C384.749 125.74 383.993 126.298 383.345 126.622C382.697 126.946 381.887 127.18 380.915 127.324C380.123 127.432 379.241 127.36 378.269 127.108C377.333 126.856 376.487 126.388 375.731 125.704C374.975 124.984 374.489 123.994 374.273 122.734C374.237 122.518 374.219 121.834 374.219 120.682C374.219 119.494 374.219 118.036 374.219 116.308C374.255 114.544 374.273 112.618 374.273 110.53C374.309 108.442 374.327 106.354 374.327 104.266C374.327 102.178 374.327 100.234 374.327 98.434C374.291 96.49 374.201 94.852 374.057 93.52C373.949 92.188 373.679 91.342 373.247 90.982C372.491 90.334 371.897 89.326 371.465 87.958C371.069 86.59 370.889 85.294 370.925 84.07C371.069 84.106 371.465 84.16 372.113 84.232C372.761 84.268 373.445 84.322 374.165 84.394C374.525 84.394 375.119 84.394 375.947 84.394C376.775 84.358 377.675 84.304 378.647 84.232C379.655 84.16 380.627 84.106 381.563 84.07C382.499 83.998 383.255 83.944 383.831 83.908C384.623 83.836 385.667 83.764 386.963 83.692C388.295 83.62 389.789 83.602 391.445 83.638C393.101 83.674 394.775 83.818 396.467 84.07ZM390.041 100.918C390.545 100.954 391.175 100.918 391.931 100.81C392.723 100.666 393.515 100.45 394.307 100.162C395.135 99.874 395.819 99.478 396.359 98.974C396.899 98.434 397.169 97.786 397.169 97.03C397.169 95.986 396.773 95.176 395.981 94.6C395.225 94.024 394.289 93.628 393.173 93.412C392.093 93.196 391.049 93.106 390.041 93.142C388.565 93.178 387.305 93.592 386.261 94.384C385.217 95.14 384.695 96.04 384.695 97.084C384.731 97.768 385.001 98.398 385.505 98.974C386.045 99.514 386.711 99.964 387.503 100.324C388.331 100.684 389.177 100.882 390.041 100.918ZM444.99 116.308C445.458 116.704 445.764 117.496 445.908 118.684C446.088 119.836 446.034 121.042 445.746 122.302C445.53 123.346 445.134 124.354 444.558 125.326C443.982 126.262 443.226 126.82 442.29 127C441.93 127.072 441.102 127.108 439.806 127.108C438.51 127.144 436.98 127.144 435.216 127.108C433.488 127.108 431.724 127.09 429.924 127.054C428.16 127.054 426.576 127.054 425.172 127.054C423.804 127.09 422.832 127.144 422.256 127.216C420.78 127.468 419.268 127.558 417.72 127.486C416.208 127.414 415.146 127.198 414.534 126.838C414.786 126.334 415.002 125.578 415.182 124.57C415.362 123.526 415.506 122.392 415.614 121.168C415.722 119.944 415.758 118.774 415.722 117.658L415.506 84.394C415.902 84.322 416.586 84.304 417.558 84.34C418.566 84.376 419.628 84.538 420.744 84.826C421.968 85.114 423.066 85.654 424.038 86.446C425.01 87.238 425.604 88.246 425.82 89.47C425.892 89.866 425.946 90.658 425.982 91.846C426.018 92.998 426.036 94.366 426.036 95.95C426.072 97.534 426.072 99.154 426.036 100.81C426.036 102.466 426.036 104.014 426.036 105.454C426.036 106.894 426.018 108.064 425.982 108.964C425.982 109.864 425.982 110.314 425.982 110.314C425.946 111.682 426.09 112.924 426.414 114.04C426.738 115.12 427.206 115.966 427.818 116.578C428.286 117.046 428.862 117.37 429.546 117.55C430.23 117.73 431.076 117.856 432.084 117.928C432.516 117.964 433.182 117.964 434.082 117.928C435.018 117.892 436.044 117.838 437.16 117.766C438.276 117.658 439.374 117.532 440.454 117.388C441.57 117.244 442.542 117.082 443.37 116.902C444.198 116.722 444.738 116.524 444.99 116.308ZM485.873 116.848C486.305 117.892 486.917 118.9 487.709 119.872C488.501 120.808 489.185 121.51 489.761 121.978C488.897 123.778 487.835 125.092 486.575 125.92C485.531 126.604 484.415 127 483.227 127.108C482.579 127.18 481.841 127.126 481.013 126.946C480.185 126.766 479.321 126.262 478.421 125.434C477.557 124.57 476.693 123.202 475.829 121.33C475.577 120.718 475.019 120.286 474.155 120.034C473.291 119.782 472.373 119.638 471.401 119.602C470.429 119.53 469.637 119.494 469.025 119.494C468.413 119.494 467.657 119.512 466.757 119.548C465.893 119.584 465.101 119.728 464.381 119.98C463.661 120.232 463.229 120.682 463.085 121.33C462.941 121.906 462.923 122.5 463.031 123.112C463.139 123.724 463.373 124.12 463.733 124.3C463.121 124.876 462.509 125.38 461.897 125.812C461.321 126.244 460.727 126.586 460.115 126.838C459.359 127.162 458.567 127.324 457.739 127.324C456.947 127.324 456.047 127.144 455.039 126.784C454.571 126.604 454.085 126.28 453.581 125.812C453.077 125.344 452.735 124.696 452.555 123.868C452.375 123.04 452.519 121.996 452.987 120.736C453.023 120.628 453.203 120.052 453.527 119.008C453.851 117.964 454.265 116.596 454.769 114.904C455.309 113.176 455.885 111.268 456.497 109.18C457.145 107.092 457.793 104.95 458.441 102.754C459.125 100.522 459.773 98.38 460.385 96.328C461.033 94.276 461.609 92.422 462.113 90.766C462.617 89.11 463.013 87.796 463.301 86.824C463.589 85.852 463.733 85.366 463.733 85.366C464.057 85.186 464.651 84.97 465.515 84.718C466.415 84.43 467.369 84.268 468.377 84.232C469.493 84.16 470.573 84.304 471.617 84.664C472.697 85.024 473.525 85.744 474.101 86.824C474.353 87.256 474.731 88.084 475.235 89.308C475.739 90.532 476.333 92.008 477.017 93.736C477.701 95.464 478.421 97.318 479.177 99.298C479.933 101.242 480.671 103.186 481.391 105.13C482.147 107.038 482.831 108.82 483.443 110.476C484.055 112.132 484.577 113.536 485.009 114.688C485.441 115.804 485.729 116.524 485.873 116.848ZM468.863 109.882C469.799 109.81 470.339 109.54 470.483 109.072C470.663 108.604 470.771 108.064 470.807 107.452C470.807 107.056 470.735 106.57 470.591 105.994C470.483 105.418 470.303 104.914 470.051 104.482C469.835 104.014 469.547 103.78 469.187 103.78C468.683 103.78 468.125 104.14 467.513 104.86C466.937 105.544 466.613 106.246 466.541 106.966C466.433 107.65 466.487 108.316 466.703 108.964C466.955 109.612 467.675 109.918 468.863 109.882ZM528.777 94.6C528.345 95.932 527.679 96.904 526.779 97.516C525.879 98.128 524.943 98.38 523.971 98.272C522.999 98.128 522.171 97.642 521.487 96.814C522.099 96.346 522.279 95.842 522.027 95.302C521.811 94.726 521.253 94.258 520.353 93.898C519.453 93.502 518.301 93.358 516.897 93.466C515.457 93.538 513.999 94.006 512.523 94.87C511.083 95.734 509.877 96.976 508.905 98.596C507.933 100.216 507.393 102.232 507.285 104.644C507.177 107.128 507.429 109.144 508.041 110.692C508.653 112.24 509.409 113.428 510.309 114.256C511.245 115.048 512.181 115.624 513.117 115.984C514.053 116.308 514.809 116.524 515.385 116.632C516.141 116.776 517.005 116.884 517.977 116.956C518.985 116.992 519.993 116.92 521.001 116.74C522.009 116.56 522.873 116.254 523.593 115.822C524.241 115.426 525.051 114.904 526.023 114.256C526.995 113.572 527.931 112.816 528.831 111.988C529.731 111.16 530.397 110.314 530.829 109.45C532.053 110.278 532.809 111.448 533.097 112.96C533.421 114.472 533.295 116.092 532.719 117.82C532.143 119.548 531.135 121.186 529.695 122.734C528.291 124.246 526.455 125.488 524.187 126.46C521.919 127.396 519.237 127.828 516.141 127.756C514.701 127.72 513.045 127.45 511.173 126.946C509.337 126.442 507.483 125.65 505.611 124.57C503.739 123.454 502.029 121.996 500.481 120.196C498.969 118.36 497.817 116.092 497.025 113.392C496.233 110.692 496.017 107.506 496.377 103.834C496.701 100.342 497.565 97.336 498.969 94.816C500.409 92.296 502.155 90.244 504.207 88.66C506.295 87.04 508.491 85.834 510.795 85.042C513.135 84.214 515.367 83.782 517.491 83.746C519.615 83.674 521.451 83.998 522.999 84.718C524.583 85.438 525.861 86.374 526.833 87.526C527.805 88.642 528.453 89.848 528.777 91.144C529.137 92.404 529.137 93.556 528.777 94.6ZM562.183 117.172C562.687 117.1 563.317 117.01 564.073 116.902C564.865 116.794 565.603 116.668 566.287 116.524C567.007 116.344 567.493 116.146 567.745 115.93C568.213 116.326 568.519 117.136 568.663 118.36C568.843 119.548 568.789 120.79 568.501 122.086C568.285 123.202 567.907 124.246 567.367 125.218C566.827 126.19 566.053 126.784 565.045 127C564.181 127.18 563.191 127.288 562.075 127.324C560.959 127.36 559.825 127.36 558.673 127.324C557.521 127.288 556.459 127.252 555.487 127.216C554.551 127.18 553.831 127.162 553.327 127.162C552.823 127.162 552.031 127.162 550.951 127.162C549.907 127.198 548.989 127.234 548.197 127.27C547.261 127.378 546.235 127.45 545.119 127.486C544.003 127.522 542.977 127.486 542.041 127.378C541.105 127.27 540.421 127.09 539.989 126.838C540.241 126.334 540.457 125.578 540.637 124.57C540.817 123.526 540.961 122.392 541.069 121.168C541.177 119.944 541.213 118.774 541.177 117.658L541.069 107.776V103.186C541.069 101.89 541.051 100.81 541.015 99.946C541.015 99.082 541.015 98.614 541.015 98.542C541.015 97.354 540.961 96.076 540.853 94.708C540.745 93.34 540.619 92.044 540.475 90.82C540.331 89.56 540.205 88.534 540.097 87.742C539.953 87.13 539.845 86.536 539.773 85.96C539.701 85.348 539.683 84.808 539.719 84.34C539.971 84.448 540.655 84.556 541.771 84.664C542.923 84.736 544.255 84.808 545.767 84.88C545.875 84.88 546.397 84.898 547.333 84.934C548.269 84.934 549.421 84.952 550.789 84.988C552.193 85.024 553.633 85.06 555.109 85.096C556.621 85.096 557.989 85.096 559.213 85.096C560.437 85.096 561.337 85.078 561.913 85.042C563.389 84.97 564.631 84.862 565.639 84.718C566.683 84.538 567.385 84.304 567.745 84.016C568.177 84.376 568.573 85.06 568.933 86.068C569.329 87.04 569.545 88.066 569.581 89.146C569.581 90.19 569.329 91.18 568.825 92.116C568.357 93.016 567.493 93.628 566.233 93.952C565.765 94.06 565.027 94.15 564.019 94.222C563.047 94.294 562.093 94.348 561.157 94.384C560.257 94.384 559.609 94.366 559.213 94.33C558.097 94.222 556.945 94.348 555.757 94.708C554.569 95.032 553.561 95.482 552.733 96.058C551.905 96.598 551.473 97.192 551.437 97.84C551.401 98.452 551.653 98.956 552.193 99.352C552.733 99.748 553.435 100.072 554.299 100.324C555.199 100.54 556.153 100.684 557.161 100.756C558.169 100.828 559.123 100.846 560.023 100.81C560.743 100.738 561.571 100.612 562.507 100.432C563.443 100.252 564.019 100.072 564.235 99.892C564.703 100.288 565.027 101.026 565.207 102.106C565.423 103.186 565.423 104.302 565.207 105.454C565.027 106.39 564.667 107.254 564.127 108.046C563.587 108.838 562.831 109.378 561.859 109.666C561.103 109.882 560.455 110.026 559.915 110.098C559.375 110.134 559.105 110.152 559.105 110.152C556.981 110.152 555.181 110.53 553.705 111.286C552.265 112.006 551.473 112.87 551.329 113.878C551.185 114.742 551.365 115.534 551.869 116.254C552.409 116.974 553.183 117.37 554.191 117.442C554.875 117.478 555.739 117.496 556.783 117.496C557.863 117.46 558.907 117.424 559.915 117.388C560.959 117.316 561.715 117.244 562.183 117.172Z" fill="#EB2A2A"/>
<path d="M130.92 113.56C131.005 115.267 131.219 116.931 131.56 118.552C131.987 120.173 132.499 121.368 133.096 122.136C132.328 122.904 131.133 123.8 129.512 124.824C127.976 125.848 126.184 126.659 124.136 127.256C122.173 127.939 120.083 128.237 117.864 128.152C114.536 127.981 111.848 126.573 109.8 123.928C107.837 121.283 106.813 117.997 106.728 114.072C106.728 113.304 106.728 111.896 106.728 109.848C106.728 107.715 106.728 105.453 106.728 103.064C106.728 100.675 106.728 98.712 106.728 97.176C106.728 95.7253 106.344 94.3173 105.576 92.952C104.893 91.5867 104.083 90.776 103.144 90.52C101.864 90.0933 100.797 90.8613 99.944 92.824C99.7733 93.2507 99.2187 94.3173 98.28 96.024C97.3413 97.6453 96.2747 99.5653 95.08 101.784C93.9707 104.003 92.904 106.221 91.88 108.44C90.9413 110.659 90.3013 112.579 89.96 114.2C89.6187 115.736 89.832 116.675 90.6 117.016C90.2587 117.869 89.6187 119.107 88.68 120.728C87.8267 122.349 86.376 123.757 84.328 124.952C82.3653 126.061 79.5493 126.488 75.88 126.232C73.9173 126.061 71.4 124.867 68.328 122.648C65.256 120.429 62.312 116.376 59.496 110.488C56.8507 104.856 54.6747 101.059 52.968 99.096C51.3467 97.048 50.152 96.1093 49.384 96.28C48.7013 96.3653 48.1467 96.8347 47.72 97.688C47.3787 98.5413 47.0373 99.736 46.696 101.272C46.5253 102.04 46.44 103.32 46.44 105.112C46.44 106.904 46.5253 108.909 46.696 111.128C46.8667 113.347 47.1653 115.437 47.592 117.4C48.104 119.363 48.744 120.856 49.512 121.88C48.8293 122.307 47.592 123.032 45.8 124.056C44.0933 125.08 42.1307 126.019 39.912 126.872C37.7787 127.64 35.688 128.024 33.64 128.024C30.568 127.939 28.008 127.128 25.96 125.592C23.912 123.971 22.6747 120.813 22.248 116.12C22.1627 115.352 22.12 113.176 22.12 109.592C22.12 106.008 22.12 101.485 22.12 96.024C22.12 90.5627 22.12 84.7173 22.12 78.488C22.12 72.1733 22.12 65.944 22.12 59.8C22.12 53.656 22.12 48.024 22.12 42.904C22.2053 37.784 22.248 33.688 22.248 30.616C22.248 27.544 22.248 26.008 22.248 26.008C23.1867 25.8373 24.7653 25.7947 26.984 25.88C29.2027 25.9653 31.6347 26.3067 34.28 26.904C36.9253 27.5013 39.3573 28.4827 41.576 29.848C43.7947 31.128 45.3307 32.9627 46.184 35.352C46.184 35.352 46.568 36.1627 47.336 37.784C48.1893 39.32 49.2987 41.368 50.664 43.928C52.0293 46.4027 53.48 49.0907 55.016 51.992C56.6373 54.8933 58.1733 57.752 59.624 60.568C61.16 63.384 62.4827 65.8587 63.592 67.992C64.7867 70.1253 65.5973 71.6187 66.024 72.472C67.4747 74.9467 68.84 76.6533 70.12 77.592C71.4853 78.5307 72.936 79.0427 74.472 79.128C77.6293 79.128 80.6587 76.696 83.56 71.832C83.9867 71.064 84.84 69.4427 86.12 66.968C87.4 64.408 88.8933 61.3787 90.6 57.88C92.3067 54.3813 94.056 50.7973 95.848 47.128C97.7253 43.4587 99.432 40.0453 100.968 36.888C102.504 33.6453 103.741 31.0427 104.68 29.08C105.704 27.032 106.216 26.008 106.216 26.008C106.813 25.9227 107.667 25.88 108.776 25.88C109.971 25.7947 111.251 25.8373 112.616 26.008C115.005 26.1787 117.523 26.648 120.168 27.416C122.899 28.184 125.245 29.3787 127.208 31C129.256 32.6213 130.408 34.7973 130.664 37.528C130.835 38.9787 130.963 41.368 131.048 44.696C131.133 47.9387 131.176 51.8213 131.176 56.344C131.176 60.7813 131.176 65.5173 131.176 70.552C131.176 75.5867 131.133 80.536 131.048 85.4C131.048 90.264 131.005 94.744 130.92 98.84C130.92 102.936 130.92 106.307 130.92 108.952C130.92 111.512 130.92 113.048 130.92 113.56Z" fill="#EB2A2A"/>
</g>
<defs>
<clipPath id="clip0_0_1">
<rect width="576" height="150" fill="white"/>
</clipPath>
</defs>
</svg>
