<svg width="580" height="154" viewBox="0 0 580 154" fill="none" xmlns="http://www.w3.org/2000/svg">
<rect width="580" height="154" fill="#F5F5F5"/>
<g clip-path="url(#clip0_0_1)">
<rect x="2" y="2" width="576" height="150" fill="white"/>
<path d="M189.112 64.968C189.624 66.2053 190.349 67.4 191.288 68.552C192.227 69.6613 193.037 70.4933 193.72 71.048C192.696 73.1813 191.437 74.7387 189.944 75.72C188.707 76.5307 187.384 77 185.976 77.128C185.208 77.2133 184.333 77.1493 183.352 76.936C182.371 76.7227 181.347 76.1253 180.28 75.144C179.256 74.12 178.232 72.4987 177.208 70.28C176.909 69.5547 176.248 69.0427 175.224 68.744C174.2 68.4453 173.112 68.2747 171.96 68.232C170.808 68.1467 169.869 68.104 169.144 68.104C168.419 68.104 167.523 68.1253 166.456 68.168C165.432 68.2107 164.493 68.3813 163.64 68.68C162.787 68.9787 162.275 69.512 162.104 70.28C161.933 70.9627 161.912 71.6667 162.04 72.392C162.168 73.1173 162.445 73.5867 162.872 73.8C162.147 74.4827 161.421 75.08 160.696 75.592C160.013 76.104 159.309 76.5093 158.584 76.808C157.688 77.192 156.749 77.384 155.768 77.384C154.829 77.384 153.763 77.1707 152.568 76.744C152.013 76.5307 151.437 76.1467 150.84 75.592C150.243 75.0373 149.837 74.2693 149.624 73.288C149.411 72.3067 149.581 71.0693 150.136 69.576C150.179 69.448 150.392 68.7653 150.776 67.528C151.16 66.2907 151.651 64.6693 152.248 62.664C152.888 60.616 153.571 58.3547 154.296 55.88C155.064 53.4053 155.832 50.8667 156.6 48.264C157.411 45.6187 158.179 43.08 158.904 40.648C159.672 38.216 160.355 36.0187 160.952 34.056C161.549 32.0933 162.019 30.536 162.36 29.384C162.701 28.232 162.872 27.656 162.872 27.656C163.256 27.4427 163.96 27.1867 164.984 26.888C166.051 26.5467 167.181 26.3547 168.376 26.312C169.699 26.2267 170.979 26.3973 172.216 26.824C173.496 27.2507 174.477 28.104 175.16 29.384C175.459 29.896 175.907 30.8773 176.504 32.328C177.101 33.7787 177.805 35.528 178.616 37.576C179.427 39.624 180.28 41.8213 181.176 44.168C182.072 46.472 182.947 48.776 183.8 51.08C184.696 53.3413 185.507 55.4533 186.232 57.416C186.957 59.3787 187.576 61.0427 188.088 62.408C188.6 63.7307 188.941 64.584 189.112 64.968ZM168.952 56.712C170.061 56.6267 170.701 56.3067 170.872 55.752C171.085 55.1973 171.213 54.5573 171.256 53.832C171.256 53.3627 171.171 52.7867 171 52.104C170.872 51.4213 170.659 50.824 170.36 50.312C170.104 49.7573 169.763 49.48 169.336 49.48C168.739 49.48 168.077 49.9067 167.352 50.76C166.669 51.5707 166.285 52.4027 166.2 53.256C166.072 54.0667 166.136 54.856 166.392 55.624C166.691 56.392 167.544 56.7547 168.952 56.712ZM207.002 77.576C205.167 77.2347 203.866 75.9973 203.098 73.864C202.373 71.7307 202.01 69.0853 202.01 65.928C202.01 65.544 201.989 64.584 201.946 63.048C201.946 61.512 201.925 59.6133 201.882 57.352C201.882 55.048 201.861 52.5733 201.818 49.928C201.818 47.2827 201.797 44.6373 201.754 41.992C201.711 39.3467 201.669 36.9147 201.626 34.696C201.583 32.4347 201.541 30.5787 201.498 29.128C201.455 27.6773 201.413 26.8027 201.37 26.504C202.01 26.376 202.991 26.3547 204.314 26.44C205.679 26.4827 207.087 26.696 208.538 27.08C210.031 27.4213 211.333 28.0187 212.442 28.872C213.551 29.6827 214.191 30.8133 214.362 32.264C214.447 32.9467 214.511 34.12 214.554 35.784C214.597 37.4053 214.618 39.3467 214.618 41.608C214.661 43.8267 214.682 46.1947 214.682 48.712C214.682 51.2293 214.682 53.7253 214.682 56.2C214.682 58.632 214.682 60.8933 214.682 62.984C214.682 65.032 214.682 66.76 214.682 68.168C214.725 69.5333 214.767 70.3653 214.81 70.664C214.895 71.56 215.066 72.2213 215.322 72.648C215.578 73.032 215.855 73.5227 216.154 74.12C215.087 75.272 213.765 76.2107 212.186 76.936C210.607 77.6613 208.879 77.8747 207.002 77.576ZM265.917 32.264C266.002 32.9893 266.045 34.2267 266.045 35.976C266.088 37.6827 266.109 39.7307 266.109 42.12C266.109 44.5093 266.109 47.0267 266.109 49.672C266.109 52.3173 266.088 54.9413 266.045 57.544C266.045 60.1467 266.024 62.5147 265.981 64.648C265.981 66.7813 265.981 68.5307 265.981 69.896C265.981 71.2187 266.002 71.9653 266.045 72.136C266.13 72.4773 266.066 73.032 265.853 73.8C265.64 74.5253 265.298 75.2293 264.829 75.912C264.36 76.552 263.762 76.936 263.037 77.064C262.354 77.2347 261.394 77.2347 260.157 77.064C258.962 76.936 257.746 76.616 256.509 76.104C255.314 75.5493 254.354 74.76 253.629 73.736C253.202 73.1387 252.541 72.2853 251.645 71.176C250.792 70.024 249.832 68.7867 248.765 67.464C247.741 66.0987 246.717 64.7973 245.693 63.56C244.712 62.28 243.88 61.192 243.197 60.296C242.514 59.3573 242.088 58.7813 241.917 58.568C241.533 57.9707 240.893 57.3733 239.997 56.776C239.144 56.136 238.461 55.9013 237.949 56.072C237.437 56.2427 237.053 56.776 236.797 57.672C236.541 58.5253 236.37 59.4427 236.285 60.424C236.2 61.064 236.157 62.0453 236.157 63.368C236.157 64.648 236.157 65.9707 236.157 67.336C236.2 68.7013 236.2 69.8107 236.157 70.664C236.114 72.1573 236.584 73.5867 237.565 74.952C237.224 75.1653 236.541 75.5067 235.517 75.976C234.493 76.4027 233.405 76.7867 232.253 77.128C231.101 77.4693 230.12 77.6187 229.309 77.576C227.944 77.4907 226.728 76.7867 225.661 75.464C224.637 74.1413 224.104 72.4987 224.061 70.536C224.061 70.152 224.04 69.0853 223.997 67.336C223.997 65.544 223.976 63.3253 223.933 60.68C223.933 58.0347 223.933 55.176 223.933 52.104C223.933 49.032 223.912 46.0027 223.869 43.016C223.869 39.9867 223.848 37.2347 223.805 34.76C223.805 32.2427 223.805 30.2373 223.805 28.744C223.805 27.2507 223.805 26.504 223.805 26.504C226.408 26.4187 228.605 26.6107 230.397 27.08C232.189 27.5493 233.682 28.4027 234.877 29.64C235.389 30.1093 236.136 30.9413 237.117 32.136C238.098 33.3307 239.165 34.696 240.317 36.232C241.512 37.7253 242.664 39.2187 243.773 40.712C244.925 42.2053 245.928 43.528 246.781 44.68C247.634 45.7893 248.189 46.5147 248.445 46.856C249.128 47.7093 249.81 48.392 250.493 48.904C251.218 49.3733 251.816 49.5227 252.285 49.352C253.309 49.0107 253.821 47.5813 253.821 45.064L253.693 26.504C254.162 26.4187 254.973 26.3973 256.125 26.44C257.32 26.4827 258.578 26.6747 259.901 27.016C261.352 27.3573 262.674 27.9333 263.869 28.744C265.064 29.5547 265.746 30.728 265.917 32.264Z" fill="#EB2A2A"/>
<path d="M182.532 119.848C182.964 120.892 183.576 121.9 184.368 122.872C185.16 123.808 185.844 124.51 186.42 124.978C185.556 126.778 184.494 128.092 183.234 128.92C182.19 129.604 181.074 130 179.886 130.108C179.238 130.18 178.5 130.126 177.672 129.946C176.844 129.766 175.98 129.262 175.08 128.434C174.216 127.57 173.352 126.202 172.488 124.33C172.236 123.718 171.678 123.286 170.814 123.034C169.95 122.782 169.032 122.638 168.06 122.602C167.088 122.53 166.296 122.494 165.684 122.494C165.072 122.494 164.316 122.512 163.416 122.548C162.552 122.584 161.76 122.728 161.04 122.98C160.32 123.232 159.888 123.682 159.744 124.33C159.6 124.906 159.582 125.5 159.69 126.112C159.798 126.724 160.032 127.12 160.392 127.3C159.78 127.876 159.168 128.38 158.556 128.812C157.98 129.244 157.386 129.586 156.774 129.838C156.018 130.162 155.226 130.324 154.398 130.324C153.606 130.324 152.706 130.144 151.698 129.784C151.23 129.604 150.744 129.28 150.24 128.812C149.736 128.344 149.394 127.696 149.214 126.868C149.034 126.04 149.178 124.996 149.646 123.736C149.682 123.628 149.862 123.052 150.186 122.008C150.51 120.964 150.924 119.596 151.428 117.904C151.968 116.176 152.544 114.268 153.156 112.18C153.804 110.092 154.452 107.95 155.1 105.754C155.784 103.522 156.432 101.38 157.044 99.328C157.692 97.276 158.268 95.422 158.772 93.766C159.276 92.11 159.672 90.796 159.96 89.824C160.248 88.852 160.392 88.366 160.392 88.366C160.716 88.186 161.31 87.97 162.174 87.718C163.074 87.43 164.028 87.268 165.036 87.232C166.152 87.16 167.232 87.304 168.276 87.664C169.356 88.024 170.184 88.744 170.76 89.824C171.012 90.256 171.39 91.084 171.894 92.308C172.398 93.532 172.992 95.008 173.676 96.736C174.36 98.464 175.08 100.318 175.836 102.298C176.592 104.242 177.33 106.186 178.05 108.13C178.806 110.038 179.49 111.82 180.102 113.476C180.714 115.132 181.236 116.536 181.668 117.688C182.1 118.804 182.388 119.524 182.532 119.848ZM165.522 112.882C166.458 112.81 166.998 112.54 167.142 112.072C167.322 111.604 167.43 111.064 167.466 110.452C167.466 110.056 167.394 109.57 167.25 108.994C167.142 108.418 166.962 107.914 166.71 107.482C166.494 107.014 166.206 106.78 165.846 106.78C165.342 106.78 164.784 107.14 164.172 107.86C163.596 108.544 163.272 109.246 163.2 109.966C163.092 110.65 163.146 111.316 163.362 111.964C163.614 112.612 164.334 112.918 165.522 112.882ZM222.629 112.882C222.485 112.918 222.269 113.116 221.981 113.476C221.729 113.836 221.549 114.214 221.441 114.61C221.261 115.186 221.315 115.654 221.603 116.014C222.359 116.914 223.331 117.976 224.519 119.2C225.707 120.388 226.895 121.522 228.083 122.602C229.307 123.682 230.351 124.51 231.215 125.086C230.567 126.814 229.541 128.2 228.137 129.244C226.769 130.252 225.239 130.738 223.547 130.702C221.855 130.666 220.199 129.91 218.579 128.434C218.363 128.218 217.949 127.75 217.337 127.03C216.725 126.274 216.023 125.392 215.231 124.384C214.439 123.376 213.647 122.368 212.855 121.36C212.063 120.352 211.379 119.47 210.803 118.714C210.227 117.958 209.867 117.49 209.723 117.31C209.039 116.41 208.391 116.212 207.779 116.716C207.167 117.22 206.789 118.264 206.645 119.848C206.573 120.784 206.573 121.864 206.645 123.088C206.753 124.276 206.897 125.338 207.077 126.274C207.293 127.21 207.509 127.768 207.725 127.948C206.969 128.524 206.033 129.064 204.917 129.568C203.801 130.072 202.523 130.378 201.083 130.486C200.543 130.522 199.913 130.378 199.193 130.054C198.473 129.73 197.843 129.208 197.303 128.488C196.799 127.732 196.529 126.796 196.493 125.68C196.493 125.392 196.475 124.636 196.439 123.412C196.439 122.188 196.421 120.694 196.385 118.93C196.385 117.13 196.385 115.276 196.385 113.368C196.385 111.46 196.367 109.66 196.331 107.968C196.331 106.276 196.331 104.908 196.331 103.864C196.331 102.82 196.331 102.298 196.331 102.298C196.331 100.174 196.277 98.41 196.169 97.006C196.061 95.566 195.629 94.468 194.873 93.712C194.189 93.028 193.667 92.038 193.307 90.742C192.983 89.446 192.839 88.222 192.875 87.07C193.019 87.106 193.451 87.16 194.171 87.232C194.891 87.268 195.593 87.322 196.277 87.394C196.745 87.394 197.411 87.394 198.275 87.394C199.175 87.358 200.129 87.322 201.137 87.286C202.145 87.25 203.081 87.232 203.945 87.232C204.809 87.196 205.457 87.16 205.889 87.124C206.213 87.124 206.807 87.124 207.671 87.124C208.571 87.088 209.615 87.07 210.803 87.07C211.991 87.07 213.197 87.088 214.421 87.124C215.645 87.124 216.779 87.16 217.823 87.232C218.867 87.304 219.677 87.394 220.253 87.502C222.629 87.934 224.465 88.726 225.761 89.878C227.057 91.03 227.975 92.416 228.515 94.036C229.091 95.656 229.433 97.42 229.541 99.328C229.613 100.948 229.433 102.64 229.001 104.404C228.569 106.168 227.831 107.806 226.787 109.318C225.743 110.83 224.357 112.018 222.629 112.882ZM206.753 101.272C206.753 102.424 207.023 103.288 207.563 103.864C208.103 104.404 208.607 104.728 209.075 104.836C209.723 104.98 210.551 104.998 211.559 104.89C212.567 104.746 213.575 104.494 214.583 104.134C215.591 103.738 216.437 103.234 217.121 102.622C217.841 102.01 218.201 101.308 218.201 100.516C218.201 99.472 217.769 98.68 216.905 98.14C216.041 97.564 214.943 97.204 213.611 97.06C212.315 96.916 211.019 96.952 209.723 97.168C208.715 97.312 207.959 97.762 207.455 98.518C206.951 99.274 206.717 100.192 206.753 101.272ZM268.693 120.874C270.277 122.35 271.645 123.304 272.797 123.736C272.689 124.168 272.455 124.744 272.095 125.464C271.771 126.184 271.339 126.904 270.799 127.624C270.295 128.344 269.701 128.956 269.017 129.46C268.333 129.964 267.577 130.234 266.749 130.27C265.741 130.306 264.823 130.198 263.995 129.946C263.203 129.658 262.357 129.19 261.457 128.542C260.773 128.002 259.963 127.318 259.027 126.49C258.127 125.626 257.245 124.744 256.381 123.844C255.517 122.944 254.833 122.188 254.329 121.576C253.609 120.64 252.835 119.848 252.007 119.2C251.179 118.552 250.261 118.3 249.253 118.444C248.677 118.48 248.317 118.642 248.173 118.93C248.065 119.182 247.957 119.704 247.849 120.496C247.777 121.036 247.759 121.684 247.795 122.44C247.831 123.16 247.885 123.844 247.957 124.492C248.065 125.14 248.119 125.608 248.119 125.896C248.119 126.544 248.245 127.048 248.497 127.408C248.749 127.732 249.001 128.038 249.253 128.326C248.641 128.794 247.687 129.298 246.391 129.838C245.095 130.378 243.655 130.648 242.071 130.648C241.027 130.648 240.199 130.234 239.587 129.406C239.011 128.578 238.597 127.57 238.345 126.382C238.093 125.194 237.949 124.042 237.913 122.926C237.913 122.602 237.895 121.72 237.859 120.28C237.859 118.84 237.841 117.058 237.805 114.934C237.805 112.774 237.805 110.47 237.805 108.022C237.805 105.538 237.787 103.09 237.751 100.678C237.751 98.23 237.733 96.016 237.697 94.036C237.697 92.02 237.697 90.418 237.697 89.23C237.697 88.006 237.697 87.394 237.697 87.394C238.093 87.322 238.777 87.304 239.749 87.34C240.757 87.376 241.801 87.538 242.881 87.826C244.105 88.114 245.221 88.6 246.229 89.284C247.273 89.968 247.867 90.958 248.011 92.254C248.083 93.082 248.119 93.766 248.119 94.306C248.155 94.846 248.173 95.404 248.173 95.98C248.173 97.888 248.641 99.094 249.577 99.598C250.621 100.138 252.043 99.778 253.843 98.518C254.131 98.302 254.635 97.888 255.355 97.276C256.075 96.628 256.903 95.872 257.839 95.008C258.775 94.144 259.747 93.244 260.755 92.308C261.763 91.372 262.681 90.508 263.509 89.716C264.373 88.888 265.075 88.222 265.615 87.718C266.155 87.214 266.425 86.962 266.425 86.962C266.749 87.214 267.199 87.808 267.775 88.744C268.387 89.68 268.927 90.724 269.395 91.876C269.863 93.028 270.151 94.216 270.259 95.44C270.403 96.628 270.169 97.618 269.557 98.41C269.305 98.734 268.891 99.166 268.315 99.706C267.775 100.246 267.163 100.822 266.479 101.434C265.831 102.01 265.201 102.568 264.589 103.108C263.977 103.612 263.509 104.008 263.185 104.296C262.501 104.872 261.925 105.592 261.457 106.456C261.025 107.284 260.755 108.148 260.647 109.048C260.539 109.948 260.575 110.848 260.755 111.748C260.935 112.648 261.331 113.476 261.943 114.232C262.375 114.736 263.023 115.42 263.887 116.284C264.751 117.112 265.633 117.958 266.533 118.822C267.433 119.65 268.153 120.334 268.693 120.874ZM301.766 120.172C302.27 120.1 302.9 120.01 303.656 119.902C304.448 119.794 305.186 119.668 305.87 119.524C306.59 119.344 307.076 119.146 307.328 118.93C307.796 119.326 308.102 120.136 308.246 121.36C308.426 122.548 308.372 123.79 308.084 125.086C307.868 126.202 307.49 127.246 306.95 128.218C306.41 129.19 305.636 129.784 304.628 130C303.764 130.18 302.774 130.288 301.658 130.324C300.542 130.36 299.408 130.36 298.256 130.324C297.104 130.288 296.042 130.252 295.07 130.216C294.134 130.18 293.414 130.162 292.91 130.162C292.406 130.162 291.614 130.162 290.534 130.162C289.49 130.198 288.572 130.234 287.78 130.27C286.844 130.378 285.818 130.45 284.702 130.486C283.586 130.522 282.56 130.486 281.624 130.378C280.688 130.27 280.004 130.09 279.572 129.838C279.824 129.334 280.04 128.578 280.22 127.57C280.4 126.526 280.544 125.392 280.652 124.168C280.76 122.944 280.796 121.774 280.76 120.658L280.652 110.776V106.186C280.652 104.89 280.634 103.81 280.598 102.946C280.598 102.082 280.598 101.614 280.598 101.542C280.598 100.354 280.544 99.076 280.436 97.708C280.328 96.34 280.202 95.044 280.058 93.82C279.914 92.56 279.788 91.534 279.68 90.742C279.536 90.13 279.428 89.536 279.356 88.96C279.284 88.348 279.266 87.808 279.302 87.34C279.554 87.448 280.238 87.556 281.354 87.664C282.506 87.736 283.838 87.808 285.35 87.88C285.458 87.88 285.98 87.898 286.916 87.934C287.852 87.934 289.004 87.952 290.372 87.988C291.776 88.024 293.216 88.06 294.692 88.096C296.204 88.096 297.572 88.096 298.796 88.096C300.02 88.096 300.92 88.078 301.496 88.042C302.972 87.97 304.214 87.862 305.222 87.718C306.266 87.538 306.968 87.304 307.328 87.016C307.76 87.376 308.156 88.06 308.516 89.068C308.912 90.04 309.128 91.066 309.164 92.146C309.164 93.19 308.912 94.18 308.408 95.116C307.94 96.016 307.076 96.628 305.816 96.952C305.348 97.06 304.61 97.15 303.602 97.222C302.63 97.294 301.676 97.348 300.74 97.384C299.84 97.384 299.192 97.366 298.796 97.33C297.68 97.222 296.528 97.348 295.34 97.708C294.152 98.032 293.144 98.482 292.316 99.058C291.488 99.598 291.056 100.192 291.02 100.84C290.984 101.452 291.236 101.956 291.776 102.352C292.316 102.748 293.018 103.072 293.882 103.324C294.782 103.54 295.736 103.684 296.744 103.756C297.752 103.828 298.706 103.846 299.606 103.81C300.326 103.738 301.154 103.612 302.09 103.432C303.026 103.252 303.602 103.072 303.818 102.892C304.286 103.288 304.61 104.026 304.79 105.106C305.006 106.186 305.006 107.302 304.79 108.454C304.61 109.39 304.25 110.254 303.71 111.046C303.17 111.838 302.414 112.378 301.442 112.666C300.686 112.882 300.038 113.026 299.498 113.098C298.958 113.134 298.688 113.152 298.688 113.152C296.564 113.152 294.764 113.53 293.288 114.286C291.848 115.006 291.056 115.87 290.912 116.878C290.768 117.742 290.948 118.534 291.452 119.254C291.992 119.974 292.766 120.37 293.774 120.442C294.458 120.478 295.322 120.496 296.366 120.496C297.446 120.46 298.49 120.424 299.498 120.388C300.542 120.316 301.298 120.244 301.766 120.172ZM350.248 86.53C350.68 86.89 350.986 87.592 351.166 88.636C351.382 89.68 351.472 90.814 351.436 92.038C351.4 93.226 351.22 94.306 350.896 95.278C350.572 96.214 350.104 96.772 349.492 96.952C349.24 97.024 348.718 97.132 347.926 97.276C347.17 97.384 346.468 97.528 345.82 97.708C345.208 97.888 344.398 98.194 343.39 98.626C342.382 99.058 341.518 99.688 340.798 100.516C340.222 101.2 339.754 101.92 339.394 102.676C339.034 103.396 338.836 104.332 338.8 105.484C338.764 105.952 338.746 106.834 338.746 108.13C338.746 109.39 338.746 110.866 338.746 112.558C338.746 114.214 338.746 115.852 338.746 117.472C338.782 119.092 338.8 120.478 338.8 121.63C338.8 122.782 338.8 123.466 338.8 123.682C338.764 124.762 338.872 125.68 339.124 126.436C339.376 127.192 339.646 127.642 339.934 127.786C339.034 128.47 338.134 129.046 337.234 129.514C336.37 129.982 335.128 130.324 333.508 130.54C332.896 130.612 332.212 130.432 331.456 130C330.7 129.604 330.034 128.974 329.458 128.11C328.918 127.21 328.63 126.112 328.594 124.816C328.594 123.52 328.576 121.864 328.54 119.848C328.54 117.796 328.54 115.582 328.54 113.206C328.576 110.794 328.576 108.382 328.54 105.97C328.504 104.926 328.342 103.936 328.054 103C327.802 102.064 327.37 101.254 326.758 100.57C326.146 99.85 325.336 99.256 324.328 98.788C323.32 98.32 322.06 98.014 320.548 97.87C320.152 97.834 319.612 97.726 318.928 97.546C318.244 97.366 317.776 97.186 317.524 97.006C317.128 96.718 316.804 96.178 316.552 95.386C316.3 94.558 316.102 93.658 315.958 92.686C315.814 91.678 315.706 90.688 315.634 89.716C315.598 88.744 315.598 87.952 315.634 87.34C315.778 87.376 316.174 87.43 316.822 87.502C317.506 87.574 318.316 87.646 319.252 87.718C320.188 87.754 321.106 87.79 322.006 87.826C322.654 87.862 323.518 87.898 324.598 87.934C325.714 87.97 326.902 88.006 328.162 88.042C329.422 88.078 330.61 88.114 331.726 88.15C332.842 88.15 333.76 88.15 334.48 88.15C335.452 88.114 336.586 88.078 337.882 88.042C339.178 88.006 340.42 87.97 341.608 87.934C342.832 87.862 343.804 87.79 344.524 87.718C345.244 87.646 346 87.556 346.792 87.448C347.62 87.304 348.34 87.16 348.952 87.016C349.6 86.836 350.032 86.674 350.248 86.53ZM383.467 87.07C386.131 87.466 388.237 88.186 389.785 89.23C391.369 90.238 392.539 91.408 393.295 92.74C394.051 94.072 394.537 95.386 394.753 96.682C394.969 97.942 395.077 99.022 395.077 99.922C395.077 101.074 394.879 102.406 394.483 103.918C394.087 105.394 393.421 106.852 392.485 108.292C391.585 109.696 390.379 110.92 388.867 111.964C387.355 112.972 385.465 113.584 383.197 113.8C382.801 113.836 382.297 113.872 381.685 113.908C381.073 113.944 380.515 113.98 380.011 114.016C379.543 114.016 379.255 114.016 379.147 114.016C377.779 114.088 376.519 114.484 375.367 115.204C374.251 115.924 373.351 116.86 372.667 118.012C372.019 119.128 371.677 120.388 371.641 121.792V123.79C371.641 124.726 371.767 125.59 372.019 126.382C372.271 127.138 372.469 127.66 372.613 127.948C371.749 128.74 370.993 129.298 370.345 129.622C369.697 129.946 368.887 130.18 367.915 130.324C367.123 130.432 366.241 130.36 365.269 130.108C364.333 129.856 363.487 129.388 362.731 128.704C361.975 127.984 361.489 126.994 361.273 125.734C361.237 125.518 361.219 124.834 361.219 123.682C361.219 122.494 361.219 121.036 361.219 119.308C361.255 117.544 361.273 115.618 361.273 113.53C361.309 111.442 361.327 109.354 361.327 107.266C361.327 105.178 361.327 103.234 361.327 101.434C361.291 99.49 361.201 97.852 361.057 96.52C360.949 95.188 360.679 94.342 360.247 93.982C359.491 93.334 358.897 92.326 358.465 90.958C358.069 89.59 357.889 88.294 357.925 87.07C358.069 87.106 358.465 87.16 359.113 87.232C359.761 87.268 360.445 87.322 361.165 87.394C361.525 87.394 362.119 87.394 362.947 87.394C363.775 87.358 364.675 87.304 365.647 87.232C366.655 87.16 367.627 87.106 368.563 87.07C369.499 86.998 370.255 86.944 370.831 86.908C371.623 86.836 372.667 86.764 373.963 86.692C375.295 86.62 376.789 86.602 378.445 86.638C380.101 86.674 381.775 86.818 383.467 87.07ZM377.041 103.918C377.545 103.954 378.175 103.918 378.931 103.81C379.723 103.666 380.515 103.45 381.307 103.162C382.135 102.874 382.819 102.478 383.359 101.974C383.899 101.434 384.169 100.786 384.169 100.03C384.169 98.986 383.773 98.176 382.981 97.6C382.225 97.024 381.289 96.628 380.173 96.412C379.093 96.196 378.049 96.106 377.041 96.142C375.565 96.178 374.305 96.592 373.261 97.384C372.217 98.14 371.695 99.04 371.695 100.084C371.731 100.768 372.001 101.398 372.505 101.974C373.045 102.514 373.711 102.964 374.503 103.324C375.331 103.684 376.177 103.882 377.041 103.918ZM431.99 119.308C432.458 119.704 432.764 120.496 432.908 121.684C433.088 122.836 433.034 124.042 432.746 125.302C432.53 126.346 432.134 127.354 431.558 128.326C430.982 129.262 430.226 129.82 429.29 130C428.93 130.072 428.102 130.108 426.806 130.108C425.51 130.144 423.98 130.144 422.216 130.108C420.488 130.108 418.724 130.09 416.924 130.054C415.16 130.054 413.576 130.054 412.172 130.054C410.804 130.09 409.832 130.144 409.256 130.216C407.78 130.468 406.268 130.558 404.72 130.486C403.208 130.414 402.146 130.198 401.534 129.838C401.786 129.334 402.002 128.578 402.182 127.57C402.362 126.526 402.506 125.392 402.614 124.168C402.722 122.944 402.758 121.774 402.722 120.658L402.506 87.394C402.902 87.322 403.586 87.304 404.558 87.34C405.566 87.376 406.628 87.538 407.744 87.826C408.968 88.114 410.066 88.654 411.038 89.446C412.01 90.238 412.604 91.246 412.82 92.47C412.892 92.866 412.946 93.658 412.982 94.846C413.018 95.998 413.036 97.366 413.036 98.95C413.072 100.534 413.072 102.154 413.036 103.81C413.036 105.466 413.036 107.014 413.036 108.454C413.036 109.894 413.018 111.064 412.982 111.964C412.982 112.864 412.982 113.314 412.982 113.314C412.946 114.682 413.09 115.924 413.414 117.04C413.738 118.12 414.206 118.966 414.818 119.578C415.286 120.046 415.862 120.37 416.546 120.55C417.23 120.73 418.076 120.856 419.084 120.928C419.516 120.964 420.182 120.964 421.082 120.928C422.018 120.892 423.044 120.838 424.16 120.766C425.276 120.658 426.374 120.532 427.454 120.388C428.57 120.244 429.542 120.082 430.37 119.902C431.198 119.722 431.738 119.524 431.99 119.308ZM472.873 119.848C473.305 120.892 473.917 121.9 474.709 122.872C475.501 123.808 476.185 124.51 476.761 124.978C475.897 126.778 474.835 128.092 473.575 128.92C472.531 129.604 471.415 130 470.227 130.108C469.579 130.18 468.841 130.126 468.013 129.946C467.185 129.766 466.321 129.262 465.421 128.434C464.557 127.57 463.693 126.202 462.829 124.33C462.577 123.718 462.019 123.286 461.155 123.034C460.291 122.782 459.373 122.638 458.401 122.602C457.429 122.53 456.637 122.494 456.025 122.494C455.413 122.494 454.657 122.512 453.757 122.548C452.893 122.584 452.101 122.728 451.381 122.98C450.661 123.232 450.229 123.682 450.085 124.33C449.941 124.906 449.923 125.5 450.031 126.112C450.139 126.724 450.373 127.12 450.733 127.3C450.121 127.876 449.509 128.38 448.897 128.812C448.321 129.244 447.727 129.586 447.115 129.838C446.359 130.162 445.567 130.324 444.739 130.324C443.947 130.324 443.047 130.144 442.039 129.784C441.571 129.604 441.085 129.28 440.581 128.812C440.077 128.344 439.735 127.696 439.555 126.868C439.375 126.04 439.519 124.996 439.987 123.736C440.023 123.628 440.203 123.052 440.527 122.008C440.851 120.964 441.265 119.596 441.769 117.904C442.309 116.176 442.885 114.268 443.497 112.18C444.145 110.092 444.793 107.95 445.441 105.754C446.125 103.522 446.773 101.38 447.385 99.328C448.033 97.276 448.609 95.422 449.113 93.766C449.617 92.11 450.013 90.796 450.301 89.824C450.589 88.852 450.733 88.366 450.733 88.366C451.057 88.186 451.651 87.97 452.515 87.718C453.415 87.43 454.369 87.268 455.377 87.232C456.493 87.16 457.573 87.304 458.617 87.664C459.697 88.024 460.525 88.744 461.101 89.824C461.353 90.256 461.731 91.084 462.235 92.308C462.739 93.532 463.333 95.008 464.017 96.736C464.701 98.464 465.421 100.318 466.177 102.298C466.933 104.242 467.671 106.186 468.391 108.13C469.147 110.038 469.831 111.82 470.443 113.476C471.055 115.132 471.577 116.536 472.009 117.688C472.441 118.804 472.729 119.524 472.873 119.848ZM455.863 112.882C456.799 112.81 457.339 112.54 457.483 112.072C457.663 111.604 457.771 111.064 457.807 110.452C457.807 110.056 457.735 109.57 457.591 108.994C457.483 108.418 457.303 107.914 457.051 107.482C456.835 107.014 456.547 106.78 456.187 106.78C455.683 106.78 455.125 107.14 454.513 107.86C453.937 108.544 453.613 109.246 453.541 109.966C453.433 110.65 453.487 111.316 453.703 111.964C453.955 112.612 454.675 112.918 455.863 112.882ZM515.777 97.6C515.345 98.932 514.679 99.904 513.779 100.516C512.879 101.128 511.943 101.38 510.971 101.272C509.999 101.128 509.171 100.642 508.487 99.814C509.099 99.346 509.279 98.842 509.027 98.302C508.811 97.726 508.253 97.258 507.353 96.898C506.453 96.502 505.301 96.358 503.897 96.466C502.457 96.538 500.999 97.006 499.523 97.87C498.083 98.734 496.877 99.976 495.905 101.596C494.933 103.216 494.393 105.232 494.285 107.644C494.177 110.128 494.429 112.144 495.041 113.692C495.653 115.24 496.409 116.428 497.309 117.256C498.245 118.048 499.181 118.624 500.117 118.984C501.053 119.308 501.809 119.524 502.385 119.632C503.141 119.776 504.005 119.884 504.977 119.956C505.985 119.992 506.993 119.92 508.001 119.74C509.009 119.56 509.873 119.254 510.593 118.822C511.241 118.426 512.051 117.904 513.023 117.256C513.995 116.572 514.931 115.816 515.831 114.988C516.731 114.16 517.397 113.314 517.829 112.45C519.053 113.278 519.809 114.448 520.097 115.96C520.421 117.472 520.295 119.092 519.719 120.82C519.143 122.548 518.135 124.186 516.695 125.734C515.291 127.246 513.455 128.488 511.187 129.46C508.919 130.396 506.237 130.828 503.141 130.756C501.701 130.72 500.045 130.45 498.173 129.946C496.337 129.442 494.483 128.65 492.611 127.57C490.739 126.454 489.029 124.996 487.481 123.196C485.969 121.36 484.817 119.092 484.025 116.392C483.233 113.692 483.017 110.506 483.377 106.834C483.701 103.342 484.565 100.336 485.969 97.816C487.409 95.296 489.155 93.244 491.207 91.66C493.295 90.04 495.491 88.834 497.795 88.042C500.135 87.214 502.367 86.782 504.491 86.746C506.615 86.674 508.451 86.998 509.999 87.718C511.583 88.438 512.861 89.374 513.833 90.526C514.805 91.642 515.453 92.848 515.777 94.144C516.137 95.404 516.137 96.556 515.777 97.6ZM549.183 120.172C549.687 120.1 550.317 120.01 551.073 119.902C551.865 119.794 552.603 119.668 553.287 119.524C554.007 119.344 554.493 119.146 554.745 118.93C555.213 119.326 555.519 120.136 555.663 121.36C555.843 122.548 555.789 123.79 555.501 125.086C555.285 126.202 554.907 127.246 554.367 128.218C553.827 129.19 553.053 129.784 552.045 130C551.181 130.18 550.191 130.288 549.075 130.324C547.959 130.36 546.825 130.36 545.673 130.324C544.521 130.288 543.459 130.252 542.487 130.216C541.551 130.18 540.831 130.162 540.327 130.162C539.823 130.162 539.031 130.162 537.951 130.162C536.907 130.198 535.989 130.234 535.197 130.27C534.261 130.378 533.235 130.45 532.119 130.486C531.003 130.522 529.977 130.486 529.041 130.378C528.105 130.27 527.421 130.09 526.989 129.838C527.241 129.334 527.457 128.578 527.637 127.57C527.817 126.526 527.961 125.392 528.069 124.168C528.177 122.944 528.213 121.774 528.177 120.658L528.069 110.776V106.186C528.069 104.89 528.051 103.81 528.015 102.946C528.015 102.082 528.015 101.614 528.015 101.542C528.015 100.354 527.961 99.076 527.853 97.708C527.745 96.34 527.619 95.044 527.475 93.82C527.331 92.56 527.205 91.534 527.097 90.742C526.953 90.13 526.845 89.536 526.773 88.96C526.701 88.348 526.683 87.808 526.719 87.34C526.971 87.448 527.655 87.556 528.771 87.664C529.923 87.736 531.255 87.808 532.767 87.88C532.875 87.88 533.397 87.898 534.333 87.934C535.269 87.934 536.421 87.952 537.789 87.988C539.193 88.024 540.633 88.06 542.109 88.096C543.621 88.096 544.989 88.096 546.213 88.096C547.437 88.096 548.337 88.078 548.913 88.042C550.389 87.97 551.631 87.862 552.639 87.718C553.683 87.538 554.385 87.304 554.745 87.016C555.177 87.376 555.573 88.06 555.933 89.068C556.329 90.04 556.545 91.066 556.581 92.146C556.581 93.19 556.329 94.18 555.825 95.116C555.357 96.016 554.493 96.628 553.233 96.952C552.765 97.06 552.027 97.15 551.019 97.222C550.047 97.294 549.093 97.348 548.157 97.384C547.257 97.384 546.609 97.366 546.213 97.33C545.097 97.222 543.945 97.348 542.757 97.708C541.569 98.032 540.561 98.482 539.733 99.058C538.905 99.598 538.473 100.192 538.437 100.84C538.401 101.452 538.653 101.956 539.193 102.352C539.733 102.748 540.435 103.072 541.299 103.324C542.199 103.54 543.153 103.684 544.161 103.756C545.169 103.828 546.123 103.846 547.023 103.81C547.743 103.738 548.571 103.612 549.507 103.432C550.443 103.252 551.019 103.072 551.235 102.892C551.703 103.288 552.027 104.026 552.207 105.106C552.423 106.186 552.423 107.302 552.207 108.454C552.027 109.39 551.667 110.254 551.127 111.046C550.587 111.838 549.831 112.378 548.859 112.666C548.103 112.882 547.455 113.026 546.915 113.098C546.375 113.134 546.105 113.152 546.105 113.152C543.981 113.152 542.181 113.53 540.705 114.286C539.265 115.006 538.473 115.87 538.329 116.878C538.185 117.742 538.365 118.534 538.869 119.254C539.409 119.974 540.183 120.37 541.191 120.442C541.875 120.478 542.739 120.496 543.783 120.496C544.863 120.46 545.907 120.424 546.915 120.388C547.959 120.316 548.715 120.244 549.183 120.172Z" fill="#0A0000"/>
<path d="M139.15 117.825C139.24 119.625 139.465 121.38 139.825 123.09C140.275 124.8 140.815 126.06 141.445 126.87C140.635 127.68 139.375 128.625 137.665 129.705C136.045 130.785 134.155 131.64 131.995 132.27C129.925 132.99 127.72 133.305 125.38 133.215C121.87 133.035 119.035 131.55 116.875 128.76C114.805 125.97 113.725 122.505 113.635 118.365C113.635 117.555 113.635 116.07 113.635 113.91C113.635 111.66 113.635 109.275 113.635 106.755C113.635 104.235 113.635 102.165 113.635 100.545C113.635 99.015 113.23 97.53 112.42 96.09C111.7 94.65 110.845 93.795 109.855 93.525C108.505 93.075 107.38 93.885 106.48 95.955C106.3 96.405 105.715 97.53 104.725 99.33C103.735 101.04 102.61 103.065 101.35 105.405C100.18 107.745 99.055 110.085 97.975 112.425C96.985 114.765 96.31 116.79 95.95 118.5C95.59 120.12 95.815 121.11 96.625 121.47C96.265 122.37 95.59 123.675 94.6 125.385C93.7 127.095 92.17 128.58 90.01 129.84C87.94 131.01 84.97 131.46 81.1 131.19C79.03 131.01 76.375 129.75 73.135 127.41C69.895 125.07 66.79 120.795 63.82 114.585C61.03 108.645 58.735 104.64 56.935 102.57C55.225 100.41 53.965 99.42 53.155 99.6C52.435 99.69 51.85 100.185 51.4 101.085C51.04 101.985 50.68 103.245 50.32 104.865C50.14 105.675 50.05 107.025 50.05 108.915C50.05 110.805 50.14 112.92 50.32 115.26C50.5 117.6 50.815 119.805 51.265 121.875C51.805 123.945 52.48 125.52 53.29 126.6C52.57 127.05 51.265 127.815 49.375 128.895C47.575 129.975 45.505 130.965 43.165 131.865C40.915 132.675 38.71 133.08 36.55 133.08C33.31 132.99 30.61 132.135 28.45 130.515C26.29 128.805 24.985 125.475 24.535 120.525C24.445 119.715 24.4 117.42 24.4 113.64C24.4 109.86 24.4 105.09 24.4 99.33C24.4 93.57 24.4 87.405 24.4 80.835C24.4 74.175 24.4 67.605 24.4 61.125C24.4 54.645 24.4 48.705 24.4 43.305C24.49 37.905 24.535 33.585 24.535 30.345C24.535 27.105 24.535 25.485 24.535 25.485C25.525 25.305 27.19 25.26 29.53 25.35C31.87 25.44 34.435 25.8 37.225 26.43C40.015 27.06 42.58 28.095 44.92 29.535C47.26 30.885 48.88 32.82 49.78 35.34C49.78 35.34 50.185 36.195 50.995 37.905C51.895 39.525 53.065 41.685 54.505 44.385C55.945 46.995 57.475 49.83 59.095 52.89C60.805 55.95 62.425 58.965 63.955 61.935C65.575 64.905 66.97 67.515 68.14 69.765C69.4 72.015 70.255 73.59 70.705 74.49C72.235 77.1 73.675 78.9 75.025 79.89C76.465 80.88 77.995 81.42 79.615 81.51C82.945 81.51 86.14 78.945 89.2 73.815C89.65 73.005 90.55 71.295 91.9 68.685C93.25 65.985 94.825 62.79 96.625 59.1C98.425 55.41 100.27 51.63 102.16 47.76C104.14 43.89 105.94 40.29 107.56 36.96C109.18 33.54 110.485 30.795 111.475 28.725C112.555 26.565 113.095 25.485 113.095 25.485C113.725 25.395 114.625 25.35 115.795 25.35C117.055 25.26 118.405 25.305 119.845 25.485C122.365 25.665 125.02 26.16 127.81 26.97C130.69 27.78 133.165 29.04 135.235 30.75C137.395 32.46 138.61 34.755 138.88 37.635C139.06 39.165 139.195 41.685 139.285 45.195C139.375 48.615 139.42 52.71 139.42 57.48C139.42 62.16 139.42 67.155 139.42 72.465C139.42 77.775 139.375 82.995 139.285 88.125C139.285 93.255 139.24 97.98 139.15 102.3C139.15 106.62 139.15 110.175 139.15 112.965C139.15 115.665 139.15 117.285 139.15 117.825Z" fill="#EB2A2A"/>
</g>
<rect x="2" y="2" width="576" height="150" stroke="black" stroke-width="4"/>
<defs>
<clipPath id="clip0_0_1">
<rect x="2" y="2" width="576" height="150" fill="white"/>
</clipPath>
</defs>
</svg>
